<?xml version="1.0" encoding="UTF-8" standalone="no"?>
<!DOCTYPE svg PUBLIC "-//W3C//DTD SVG 1.1//EN"
 "http://www.w3.org/Graphics/SVG/1.1/DTD/svg11.dtd">
<!-- Generated by graphviz version 2.40.1 (20161225.0304)
 -->
<!-- Title: Tree Pages: 1 -->
<svg width="325pt" height="433pt"
 viewBox="0.00 0.00 324.50 433.00" xmlns="http://www.w3.org/2000/svg" xmlns:xlink="http://www.w3.org/1999/xlink">
<g id="graph0" class="graph" transform="scale(1 1) rotate(0) translate(4 429)">
<title>Tree</title>
<polygon fill="#ffffff" stroke="transparent" points="-4,4 -4,-429 320.5,-429 320.5,4 -4,4"/>
<!-- 0 -->
<g id="node1" class="node">
<title>0</title>
<path fill="#8ef0b7" stroke="#000000" d="M208,-425C208,-425 43,-425 43,-425 37,-425 31,-419 31,-413 31,-413 31,-354 31,-354 31,-348 37,-342 43,-342 43,-342 208,-342 208,-342 214,-342 220,-348 220,-354 220,-354 220,-413 220,-413 220,-419 214,-425 208,-425"/>
<text text-anchor="start" x="39" y="-409.8" font-family="Helvetica,sans-Serif" font-size="14.00" fill="#000000">normal_tear_prod_rate ≤ 0.5</text>
<text text-anchor="start" x="90" y="-394.8" font-family="Helvetica,sans-Serif" font-size="14.00" fill="#000000">gini = 0.494</text>
<text text-anchor="start" x="84.5" y="-379.8" font-family="Helvetica,sans-Serif" font-size="14.00" fill="#000000">samples = 18</text>
<text text-anchor="start" x="75" y="-364.8" font-family="Helvetica,sans-Serif" font-size="14.00" fill="#000000">value = [2, 12, 4]</text>
<text text-anchor="start" x="91" y="-349.8" font-family="Helvetica,sans-Serif" font-size="14.00" fill="#000000">class = soft</text>
</g>
<!-- 1 -->
<g id="node2" class="node">
<title>1</title>
<path fill="#39e581" stroke="#000000" d="M105,-298.5C105,-298.5 12,-298.5 12,-298.5 6,-298.5 0,-292.5 0,-286.5 0,-286.5 0,-242.5 0,-242.5 0,-236.5 6,-230.5 12,-230.5 12,-230.5 105,-230.5 105,-230.5 111,-230.5 117,-236.5 117,-242.5 117,-242.5 117,-286.5 117,-286.5 117,-292.5 111,-298.5 105,-298.5"/>
<text text-anchor="start" x="30.5" y="-283.3" font-family="Helvetica,sans-Serif" font-size="14.00" fill="#000000">gini = 0.0</text>
<text text-anchor="start" x="17.5" y="-268.3" font-family="Helvetica,sans-Serif" font-size="14.00" fill="#000000">samples = 10</text>
<text text-anchor="start" x="8" y="-253.3" font-family="Helvetica,sans-Serif" font-size="14.00" fill="#000000">value = [0, 10, 0]</text>
<text text-anchor="start" x="24" y="-238.3" font-family="Helvetica,sans-Serif" font-size="14.00" fill="#000000">class = soft</text>
</g>
<!-- 0&#45;&gt;1 -->
<g id="edge1" class="edge">
<title>0&#45;&gt;1</title>
<path fill="none" stroke="#000000" d="M102.0667,-341.8796C95.8137,-330.7735 89.0448,-318.7513 82.749,-307.5691"/>
<polygon fill="#000000" stroke="#000000" points="85.7761,-305.8116 77.8202,-298.8149 79.6765,-309.2459 85.7761,-305.8116"/>
<text text-anchor="middle" x="71.089" y="-319.1917" font-family="Helvetica,sans-Serif" font-size="14.00" fill="#000000">True</text>
</g>
<!-- 2 -->
<g id="node3" class="node">
<title>2</title>
<path fill="#d5bdf6" stroke="#000000" d="M239.5,-306C239.5,-306 147.5,-306 147.5,-306 141.5,-306 135.5,-300 135.5,-294 135.5,-294 135.5,-235 135.5,-235 135.5,-229 141.5,-223 147.5,-223 147.5,-223 239.5,-223 239.5,-223 245.5,-223 251.5,-229 251.5,-235 251.5,-235 251.5,-294 251.5,-294 251.5,-300 245.5,-306 239.5,-306"/>
<text text-anchor="start" x="143.5" y="-290.8" font-family="Helvetica,sans-Serif" font-size="14.00" fill="#000000">presbyopic ≤ 0.5</text>
<text text-anchor="start" x="158" y="-275.8" font-family="Helvetica,sans-Serif" font-size="14.00" fill="#000000">gini = 0.625</text>
<text text-anchor="start" x="156" y="-260.8" font-family="Helvetica,sans-Serif" font-size="14.00" fill="#000000">samples = 8</text>
<text text-anchor="start" x="146.5" y="-245.8" font-family="Helvetica,sans-Serif" font-size="14.00" fill="#000000">value = [2, 2, 4]</text>
<text text-anchor="start" x="155" y="-230.8" font-family="Helvetica,sans-Serif" font-size="14.00" fill="#000000">class = none</text>
</g>
<!-- 0&#45;&gt;2 -->
<g id="edge2" class="edge">
<title>0&#45;&gt;2</title>
<path fill="none" stroke="#000000" d="M149.2831,-341.8796C154.2237,-333.2335 159.4816,-324.0322 164.5833,-315.1042"/>
<polygon fill="#000000" stroke="#000000" points="167.6928,-316.717 169.6154,-306.2981 161.6151,-313.244 167.6928,-316.717"/>
<text text-anchor="middle" x="176.1933" y="-326.7172" font-family="Helvetica,sans-Serif" font-size="14.00" fill="#000000">False</text>
</g>
<!-- 3 -->
<g id="node4" class="node">
<title>3</title>
<path fill="#c09cf2" stroke="#000000" d="M176,-187C176,-187 75,-187 75,-187 69,-187 63,-181 63,-175 63,-175 63,-116 63,-116 63,-110 69,-104 75,-104 75,-104 176,-104 176,-104 182,-104 188,-110 188,-116 188,-116 188,-175 188,-175 188,-181 182,-187 176,-187"/>
<text text-anchor="start" x="71" y="-171.8" font-family="Helvetica,sans-Serif" font-size="14.00" fill="#000000">astigmatism ≤ 0.5</text>
<text text-anchor="start" x="90" y="-156.8" font-family="Helvetica,sans-Serif" font-size="14.00" fill="#000000">gini = 0.444</text>
<text text-anchor="start" x="88" y="-141.8" font-family="Helvetica,sans-Serif" font-size="14.00" fill="#000000">samples = 6</text>
<text text-anchor="start" x="78.5" y="-126.8" font-family="Helvetica,sans-Serif" font-size="14.00" fill="#000000">value = [2, 0, 4]</text>
<text text-anchor="start" x="87" y="-111.8" font-family="Helvetica,sans-Serif" font-size="14.00" fill="#000000">class = none</text>
</g>
<!-- 2&#45;&gt;3 -->
<g id="edge3" class="edge">
<title>2&#45;&gt;3</title>
<path fill="none" stroke="#000000" d="M169.7169,-222.8796C164.7763,-214.2335 159.5184,-205.0322 154.4167,-196.1042"/>
<polygon fill="#000000" stroke="#000000" points="157.3849,-194.244 149.3846,-187.2981 151.3072,-197.717 157.3849,-194.244"/>
</g>
<!-- 6 -->
<g id="node7" class="node">
<title>6</title>
<path fill="#39e581" stroke="#000000" d="M304.5,-179.5C304.5,-179.5 218.5,-179.5 218.5,-179.5 212.5,-179.5 206.5,-173.5 206.5,-167.5 206.5,-167.5 206.5,-123.5 206.5,-123.5 206.5,-117.5 212.5,-111.5 218.5,-111.5 218.5,-111.5 304.5,-111.5 304.5,-111.5 310.5,-111.5 316.5,-117.5 316.5,-123.5 316.5,-123.5 316.5,-167.5 316.5,-167.5 316.5,-173.5 310.5,-179.5 304.5,-179.5"/>
<text text-anchor="start" x="233.5" y="-164.3" font-family="Helvetica,sans-Serif" font-size="14.00" fill="#000000">gini = 0.0</text>
<text text-anchor="start" x="224" y="-149.3" font-family="Helvetica,sans-Serif" font-size="14.00" fill="#000000">samples = 2</text>
<text text-anchor="start" x="214.5" y="-134.3" font-family="Helvetica,sans-Serif" font-size="14.00" fill="#000000">value = [0, 2, 0]</text>
<text text-anchor="start" x="227" y="-119.3" font-family="Helvetica,sans-Serif" font-size="14.00" fill="#000000">class = soft</text>
</g>
<!-- 2&#45;&gt;6 -->
<g id="edge6" class="edge">
<title>2&#45;&gt;6</title>
<path fill="none" stroke="#000000" d="M217.2831,-222.8796C223.6294,-211.7735 230.4993,-199.7513 236.8891,-188.5691"/>
<polygon fill="#000000" stroke="#000000" points="239.9689,-190.2339 241.8915,-179.8149 233.8912,-186.7609 239.9689,-190.2339"/>
</g>
<!-- 4 -->
<g id="node5" class="node">
<title>4</title>
<path fill="#8139e5" stroke="#000000" d="M104.5,-68C104.5,-68 18.5,-68 18.5,-68 12.5,-68 6.5,-62 6.5,-56 6.5,-56 6.5,-12 6.5,-12 6.5,-6 12.5,0 18.5,0 18.5,0 104.5,0 104.5,0 110.5,0 116.5,-6 116.5,-12 116.5,-12 116.5,-56 116.5,-56 116.5,-62 110.5,-68 104.5,-68"/>
<text text-anchor="start" x="33.5" y="-52.8" font-family="Helvetica,sans-Serif" font-size="14.00" fill="#000000">gini = 0.0</text>
<text text-anchor="start" x="24" y="-37.8" font-family="Helvetica,sans-Serif" font-size="14.00" fill="#000000">samples = 4</text>
<text text-anchor="start" x="14.5" y="-22.8" font-family="Helvetica,sans-Serif" font-size="14.00" fill="#000000">value = [0, 0, 4]</text>
<text text-anchor="start" x="23" y="-7.8" font-family="Helvetica,sans-Serif" font-size="14.00" fill="#000000">class = none</text>
</g>
<!-- 3&#45;&gt;4 -->
<g id="edge4" class="edge">
<title>3&#45;&gt;4</title>
<path fill="none" stroke="#000000" d="M101.6688,-103.9815C96.6044,-95.1585 91.2475,-85.8258 86.1532,-76.9506"/>
<polygon fill="#000000" stroke="#000000" points="89.1807,-75.1942 81.167,-68.2637 83.1097,-78.6789 89.1807,-75.1942"/>
</g>
<!-- 5 -->
<g id="node6" class="node">
<title>5</title>
<path fill="#e58139" stroke="#000000" d="M232.5,-68C232.5,-68 146.5,-68 146.5,-68 140.5,-68 134.5,-62 134.5,-56 134.5,-56 134.5,-12 134.5,-12 134.5,-6 140.5,0 146.5,0 146.5,0 232.5,0 232.5,0 238.5,0 244.5,-6 244.5,-12 244.5,-12 244.5,-56 244.5,-56 244.5,-62 238.5,-68 232.5,-68"/>
<text text-anchor="start" x="161.5" y="-52.8" font-family="Helvetica,sans-Serif" font-size="14.00" fill="#000000">gini = 0.0</text>
<text text-anchor="start" x="152" y="-37.8" font-family="Helvetica,sans-Serif" font-size="14.00" fill="#000000">samples = 2</text>
<text text-anchor="start" x="142.5" y="-22.8" font-family="Helvetica,sans-Serif" font-size="14.00" fill="#000000">value = [2, 0, 0]</text>
<text text-anchor="start" x="152.5" y="-7.8" font-family="Helvetica,sans-Serif" font-size="14.00" fill="#000000">class = hard</text>
</g>
<!-- 3&#45;&gt;5 -->
<g id="edge5" class="edge">
<title>3&#45;&gt;5</title>
<path fill="none" stroke="#000000" d="M149.3312,-103.9815C154.3956,-95.1585 159.7525,-85.8258 164.8468,-76.9506"/>
<polygon fill="#000000" stroke="#000000" points="167.8903,-78.6789 169.833,-68.2637 161.8193,-75.1942 167.8903,-78.6789"/>
</g>
</g>
</svg>
