<?xml version="1.0" encoding="UTF-8" standalone="no"?>
<!DOCTYPE svg PUBLIC "-//W3C//DTD SVG 1.1//EN"
 "http://www.w3.org/Graphics/SVG/1.1/DTD/svg11.dtd">
<!-- Generated by graphviz version 2.40.1 (20161225.0304)
 -->
<!-- Title: Tree Pages: 1 -->
<svg width="669pt" height="1266pt"
 viewBox="0.00 0.00 669.00 1266.00" xmlns="http://www.w3.org/2000/svg" xmlns:xlink="http://www.w3.org/1999/xlink">
<g id="graph0" class="graph" transform="scale(1 1) rotate(0) translate(4 1262)">
<title>Tree</title>
<polygon fill="#ffffff" stroke="transparent" points="-4,4 -4,-1262 665,-1262 665,4 -4,4"/>
<!-- 0 -->
<g id="node1" class="node">
<title>0</title>
<path fill="#a1d1f3" stroke="#000000" d="M293,-1258C293,-1258 200,-1258 200,-1258 194,-1258 188,-1252 188,-1246 188,-1246 188,-1187 188,-1187 188,-1181 194,-1175 200,-1175 200,-1175 293,-1175 293,-1175 299,-1175 305,-1181 305,-1187 305,-1187 305,-1246 305,-1246 305,-1252 299,-1258 293,-1258"/>
<text text-anchor="start" x="210" y="-1242.8" font-family="Helvetica,sans-Serif" font-size="14.00" fill="#000000">a05 ≤ 0.041</text>
<text text-anchor="start" x="211" y="-1227.8" font-family="Helvetica,sans-Serif" font-size="14.00" fill="#000000">gini = 0.452</text>
<text text-anchor="start" x="201.5" y="-1212.8" font-family="Helvetica,sans-Serif" font-size="14.00" fill="#000000">samples = 252</text>
<text text-anchor="start" x="196" y="-1197.8" font-family="Helvetica,sans-Serif" font-size="14.00" fill="#000000">value = [87, 165]</text>
<text text-anchor="start" x="219" y="-1182.8" font-family="Helvetica,sans-Serif" font-size="14.00" fill="#000000">class = g</text>
</g>
<!-- 1 -->
<g id="node2" class="node">
<title>1</title>
<path fill="#e58139" stroke="#000000" d="M221.5,-1131.5C221.5,-1131.5 143.5,-1131.5 143.5,-1131.5 137.5,-1131.5 131.5,-1125.5 131.5,-1119.5 131.5,-1119.5 131.5,-1075.5 131.5,-1075.5 131.5,-1069.5 137.5,-1063.5 143.5,-1063.5 143.5,-1063.5 221.5,-1063.5 221.5,-1063.5 227.5,-1063.5 233.5,-1069.5 233.5,-1075.5 233.5,-1075.5 233.5,-1119.5 233.5,-1119.5 233.5,-1125.5 227.5,-1131.5 221.5,-1131.5"/>
<text text-anchor="start" x="154.5" y="-1116.3" font-family="Helvetica,sans-Serif" font-size="14.00" fill="#000000">gini = 0.0</text>
<text text-anchor="start" x="141.5" y="-1101.3" font-family="Helvetica,sans-Serif" font-size="14.00" fill="#000000">samples = 51</text>
<text text-anchor="start" x="139.5" y="-1086.3" font-family="Helvetica,sans-Serif" font-size="14.00" fill="#000000">value = [51, 0]</text>
<text text-anchor="start" x="155" y="-1071.3" font-family="Helvetica,sans-Serif" font-size="14.00" fill="#000000">class = b</text>
</g>
<!-- 0&#45;&gt;1 -->
<g id="edge1" class="edge">
<title>0&#45;&gt;1</title>
<path fill="none" stroke="#000000" d="M224.1159,-1174.8796C218.202,-1163.8835 211.8051,-1151.9893 205.842,-1140.9015"/>
<polygon fill="#000000" stroke="#000000" points="208.7742,-1138.9642 200.9551,-1131.8149 202.6092,-1142.2799 208.7742,-1138.9642"/>
<text text-anchor="middle" x="193.7594" y="-1152.057" font-family="Helvetica,sans-Serif" font-size="14.00" fill="#000000">True</text>
</g>
<!-- 2 -->
<g id="node3" class="node">
<title>2</title>
<path fill="#64b2eb" stroke="#000000" d="M357,-1139C357,-1139 264,-1139 264,-1139 258,-1139 252,-1133 252,-1127 252,-1127 252,-1068 252,-1068 252,-1062 258,-1056 264,-1056 264,-1056 357,-1056 357,-1056 363,-1056 369,-1062 369,-1068 369,-1068 369,-1127 369,-1127 369,-1133 363,-1139 357,-1139"/>
<text text-anchor="start" x="281.5" y="-1123.8" font-family="Helvetica,sans-Serif" font-size="14.00" fill="#000000">a27 ≤ 1.0</text>
<text text-anchor="start" x="275" y="-1108.8" font-family="Helvetica,sans-Serif" font-size="14.00" fill="#000000">gini = 0.294</text>
<text text-anchor="start" x="265.5" y="-1093.8" font-family="Helvetica,sans-Serif" font-size="14.00" fill="#000000">samples = 201</text>
<text text-anchor="start" x="260" y="-1078.8" font-family="Helvetica,sans-Serif" font-size="14.00" fill="#000000">value = [36, 165]</text>
<text text-anchor="start" x="283" y="-1063.8" font-family="Helvetica,sans-Serif" font-size="14.00" fill="#000000">class = g</text>
</g>
<!-- 0&#45;&gt;2 -->
<g id="edge2" class="edge">
<title>0&#45;&gt;2</title>
<path fill="none" stroke="#000000" d="M268.8841,-1174.8796C273.4856,-1166.3236 278.3796,-1157.2238 283.1342,-1148.3833"/>
<polygon fill="#000000" stroke="#000000" points="286.3662,-1149.763 288.0204,-1139.2981 280.2012,-1146.4473 286.3662,-1149.763"/>
<text text-anchor="middle" x="295.2161" y="-1159.5401" font-family="Helvetica,sans-Serif" font-size="14.00" fill="#000000">False</text>
</g>
<!-- 3 -->
<g id="node4" class="node">
<title>3</title>
<path fill="#4aa5e7" stroke="#000000" d="M291,-1020C291,-1020 198,-1020 198,-1020 192,-1020 186,-1014 186,-1008 186,-1008 186,-949 186,-949 186,-943 192,-937 198,-937 198,-937 291,-937 291,-937 297,-937 303,-943 303,-949 303,-949 303,-1008 303,-1008 303,-1014 297,-1020 291,-1020"/>
<text text-anchor="start" x="208" y="-1004.8" font-family="Helvetica,sans-Serif" font-size="14.00" fill="#000000">a03 ≤ 0.127</text>
<text text-anchor="start" x="209" y="-989.8" font-family="Helvetica,sans-Serif" font-size="14.00" fill="#000000">gini = 0.143</text>
<text text-anchor="start" x="199.5" y="-974.8" font-family="Helvetica,sans-Serif" font-size="14.00" fill="#000000">samples = 168</text>
<text text-anchor="start" x="194" y="-959.8" font-family="Helvetica,sans-Serif" font-size="14.00" fill="#000000">value = [13, 155]</text>
<text text-anchor="start" x="217" y="-944.8" font-family="Helvetica,sans-Serif" font-size="14.00" fill="#000000">class = g</text>
</g>
<!-- 2&#45;&gt;3 -->
<g id="edge3" class="edge">
<title>2&#45;&gt;3</title>
<path fill="none" stroke="#000000" d="M287.4164,-1055.8796C282.6211,-1047.2335 277.5178,-1038.0322 272.5662,-1029.1042"/>
<polygon fill="#000000" stroke="#000000" points="275.5931,-1027.3455 267.6821,-1020.2981 269.4716,-1030.7407 275.5931,-1027.3455"/>
</g>
<!-- 24 -->
<g id="node25" class="node">
<title>24</title>
<path fill="#f0b88f" stroke="#000000" d="M419.5,-1020C419.5,-1020 333.5,-1020 333.5,-1020 327.5,-1020 321.5,-1014 321.5,-1008 321.5,-1008 321.5,-949 321.5,-949 321.5,-943 327.5,-937 333.5,-937 333.5,-937 419.5,-937 419.5,-937 425.5,-937 431.5,-943 431.5,-949 431.5,-949 431.5,-1008 431.5,-1008 431.5,-1014 425.5,-1020 419.5,-1020"/>
<text text-anchor="start" x="338" y="-1004.8" font-family="Helvetica,sans-Serif" font-size="14.00" fill="#000000">a18 ≤ &#45;0.726</text>
<text text-anchor="start" x="341" y="-989.8" font-family="Helvetica,sans-Serif" font-size="14.00" fill="#000000">gini = 0.422</text>
<text text-anchor="start" x="335.5" y="-974.8" font-family="Helvetica,sans-Serif" font-size="14.00" fill="#000000">samples = 33</text>
<text text-anchor="start" x="329.5" y="-959.8" font-family="Helvetica,sans-Serif" font-size="14.00" fill="#000000">value = [23, 10]</text>
<text text-anchor="start" x="349" y="-944.8" font-family="Helvetica,sans-Serif" font-size="14.00" fill="#000000">class = b</text>
</g>
<!-- 2&#45;&gt;24 -->
<g id="edge24" class="edge">
<title>2&#45;&gt;24</title>
<path fill="none" stroke="#000000" d="M333.5836,-1055.8796C338.3789,-1047.2335 343.4822,-1038.0322 348.4338,-1029.1042"/>
<polygon fill="#000000" stroke="#000000" points="351.5284,-1030.7407 353.3179,-1020.2981 345.4069,-1027.3455 351.5284,-1030.7407"/>
</g>
<!-- 4 -->
<g id="node5" class="node">
<title>4</title>
<path fill="#e58139" stroke="#000000" d="M160,-893.5C160,-893.5 89,-893.5 89,-893.5 83,-893.5 77,-887.5 77,-881.5 77,-881.5 77,-837.5 77,-837.5 77,-831.5 83,-825.5 89,-825.5 89,-825.5 160,-825.5 160,-825.5 166,-825.5 172,-831.5 172,-837.5 172,-837.5 172,-881.5 172,-881.5 172,-887.5 166,-893.5 160,-893.5"/>
<text text-anchor="start" x="96.5" y="-878.3" font-family="Helvetica,sans-Serif" font-size="14.00" fill="#000000">gini = 0.0</text>
<text text-anchor="start" x="87" y="-863.3" font-family="Helvetica,sans-Serif" font-size="14.00" fill="#000000">samples = 4</text>
<text text-anchor="start" x="85" y="-848.3" font-family="Helvetica,sans-Serif" font-size="14.00" fill="#000000">value = [4, 0]</text>
<text text-anchor="start" x="97" y="-833.3" font-family="Helvetica,sans-Serif" font-size="14.00" fill="#000000">class = b</text>
</g>
<!-- 3&#45;&gt;4 -->
<g id="edge4" class="edge">
<title>3&#45;&gt;4</title>
<path fill="none" stroke="#000000" d="M202.5298,-936.8796C190.776,-925.2237 178.0046,-912.5587 166.2628,-900.9148"/>
<polygon fill="#000000" stroke="#000000" points="168.6684,-898.3712 159.1033,-893.8149 163.7394,-903.3416 168.6684,-898.3712"/>
</g>
<!-- 5 -->
<g id="node6" class="node">
<title>5</title>
<path fill="#44a3e7" stroke="#000000" d="M288.5,-901C288.5,-901 202.5,-901 202.5,-901 196.5,-901 190.5,-895 190.5,-889 190.5,-889 190.5,-830 190.5,-830 190.5,-824 196.5,-818 202.5,-818 202.5,-818 288.5,-818 288.5,-818 294.5,-818 300.5,-824 300.5,-830 300.5,-830 300.5,-889 300.5,-889 300.5,-895 294.5,-901 288.5,-901"/>
<text text-anchor="start" x="207" y="-885.8" font-family="Helvetica,sans-Serif" font-size="14.00" fill="#000000">a14 ≤ &#45;0.602</text>
<text text-anchor="start" x="210" y="-870.8" font-family="Helvetica,sans-Serif" font-size="14.00" fill="#000000">gini = 0.104</text>
<text text-anchor="start" x="200.5" y="-855.8" font-family="Helvetica,sans-Serif" font-size="14.00" fill="#000000">samples = 164</text>
<text text-anchor="start" x="198.5" y="-840.8" font-family="Helvetica,sans-Serif" font-size="14.00" fill="#000000">value = [9, 155]</text>
<text text-anchor="start" x="218" y="-825.8" font-family="Helvetica,sans-Serif" font-size="14.00" fill="#000000">class = g</text>
</g>
<!-- 3&#45;&gt;5 -->
<g id="edge5" class="edge">
<title>3&#45;&gt;5</title>
<path fill="none" stroke="#000000" d="M244.8498,-936.8796C244.9186,-928.6838 244.9917,-919.9891 245.063,-911.5013"/>
<polygon fill="#000000" stroke="#000000" points="248.5645,-911.3272 245.1488,-901.2981 241.5648,-911.2683 248.5645,-911.3272"/>
</g>
<!-- 6 -->
<g id="node7" class="node">
<title>6</title>
<path fill="#e58139" stroke="#000000" d="M165,-774.5C165,-774.5 94,-774.5 94,-774.5 88,-774.5 82,-768.5 82,-762.5 82,-762.5 82,-718.5 82,-718.5 82,-712.5 88,-706.5 94,-706.5 94,-706.5 165,-706.5 165,-706.5 171,-706.5 177,-712.5 177,-718.5 177,-718.5 177,-762.5 177,-762.5 177,-768.5 171,-774.5 165,-774.5"/>
<text text-anchor="start" x="101.5" y="-759.3" font-family="Helvetica,sans-Serif" font-size="14.00" fill="#000000">gini = 0.0</text>
<text text-anchor="start" x="92" y="-744.3" font-family="Helvetica,sans-Serif" font-size="14.00" fill="#000000">samples = 2</text>
<text text-anchor="start" x="90" y="-729.3" font-family="Helvetica,sans-Serif" font-size="14.00" fill="#000000">value = [2, 0]</text>
<text text-anchor="start" x="102" y="-714.3" font-family="Helvetica,sans-Serif" font-size="14.00" fill="#000000">class = b</text>
</g>
<!-- 5&#45;&gt;6 -->
<g id="edge6" class="edge">
<title>5&#45;&gt;6</title>
<path fill="none" stroke="#000000" d="M204.9288,-817.8796C193.674,-806.3337 181.4539,-793.7976 170.1922,-782.2446"/>
<polygon fill="#000000" stroke="#000000" points="172.4364,-779.5326 162.9499,-774.8149 167.4238,-784.4188 172.4364,-779.5326"/>
</g>
<!-- 7 -->
<g id="node8" class="node">
<title>7</title>
<path fill="#42a1e6" stroke="#000000" d="M293.5,-782C293.5,-782 207.5,-782 207.5,-782 201.5,-782 195.5,-776 195.5,-770 195.5,-770 195.5,-711 195.5,-711 195.5,-705 201.5,-699 207.5,-699 207.5,-699 293.5,-699 293.5,-699 299.5,-699 305.5,-705 305.5,-711 305.5,-711 305.5,-770 305.5,-770 305.5,-776 299.5,-782 293.5,-782"/>
<text text-anchor="start" x="212" y="-766.8" font-family="Helvetica,sans-Serif" font-size="14.00" fill="#000000">a08 ≤ &#45;0.929</text>
<text text-anchor="start" x="215" y="-751.8" font-family="Helvetica,sans-Serif" font-size="14.00" fill="#000000">gini = 0.083</text>
<text text-anchor="start" x="205.5" y="-736.8" font-family="Helvetica,sans-Serif" font-size="14.00" fill="#000000">samples = 162</text>
<text text-anchor="start" x="203.5" y="-721.8" font-family="Helvetica,sans-Serif" font-size="14.00" fill="#000000">value = [7, 155]</text>
<text text-anchor="start" x="223" y="-706.8" font-family="Helvetica,sans-Serif" font-size="14.00" fill="#000000">class = g</text>
</g>
<!-- 5&#45;&gt;7 -->
<g id="edge7" class="edge">
<title>5&#45;&gt;7</title>
<path fill="none" stroke="#000000" d="M247.2488,-817.8796C247.5931,-809.6838 247.9584,-800.9891 248.3151,-792.5013"/>
<polygon fill="#000000" stroke="#000000" points="251.8208,-792.4362 248.7438,-782.2981 244.827,-792.1423 251.8208,-792.4362"/>
</g>
<!-- 8 -->
<g id="node9" class="node">
<title>8</title>
<path fill="#e58139" stroke="#000000" d="M194,-655.5C194,-655.5 123,-655.5 123,-655.5 117,-655.5 111,-649.5 111,-643.5 111,-643.5 111,-599.5 111,-599.5 111,-593.5 117,-587.5 123,-587.5 123,-587.5 194,-587.5 194,-587.5 200,-587.5 206,-593.5 206,-599.5 206,-599.5 206,-643.5 206,-643.5 206,-649.5 200,-655.5 194,-655.5"/>
<text text-anchor="start" x="130.5" y="-640.3" font-family="Helvetica,sans-Serif" font-size="14.00" fill="#000000">gini = 0.0</text>
<text text-anchor="start" x="121" y="-625.3" font-family="Helvetica,sans-Serif" font-size="14.00" fill="#000000">samples = 1</text>
<text text-anchor="start" x="119" y="-610.3" font-family="Helvetica,sans-Serif" font-size="14.00" fill="#000000">value = [1, 0]</text>
<text text-anchor="start" x="131" y="-595.3" font-family="Helvetica,sans-Serif" font-size="14.00" fill="#000000">class = b</text>
</g>
<!-- 7&#45;&gt;8 -->
<g id="edge8" class="edge">
<title>7&#45;&gt;8</title>
<path fill="none" stroke="#000000" d="M218.3229,-698.8796C209.5667,-687.5536 200.0738,-675.2748 191.2844,-663.9058"/>
<polygon fill="#000000" stroke="#000000" points="193.9146,-661.5856 185.0292,-655.8149 188.3766,-665.8671 193.9146,-661.5856"/>
</g>
<!-- 9 -->
<g id="node10" class="node">
<title>9</title>
<path fill="#41a1e6" stroke="#000000" d="M322.5,-663C322.5,-663 236.5,-663 236.5,-663 230.5,-663 224.5,-657 224.5,-651 224.5,-651 224.5,-592 224.5,-592 224.5,-586 230.5,-580 236.5,-580 236.5,-580 322.5,-580 322.5,-580 328.5,-580 334.5,-586 334.5,-592 334.5,-592 334.5,-651 334.5,-651 334.5,-657 328.5,-663 322.5,-663"/>
<text text-anchor="start" x="243" y="-647.8" font-family="Helvetica,sans-Serif" font-size="14.00" fill="#000000">a03 ≤ 0.437</text>
<text text-anchor="start" x="244" y="-632.8" font-family="Helvetica,sans-Serif" font-size="14.00" fill="#000000">gini = 0.072</text>
<text text-anchor="start" x="234.5" y="-617.8" font-family="Helvetica,sans-Serif" font-size="14.00" fill="#000000">samples = 161</text>
<text text-anchor="start" x="232.5" y="-602.8" font-family="Helvetica,sans-Serif" font-size="14.00" fill="#000000">value = [6, 155]</text>
<text text-anchor="start" x="252" y="-587.8" font-family="Helvetica,sans-Serif" font-size="14.00" fill="#000000">class = g</text>
</g>
<!-- 7&#45;&gt;9 -->
<g id="edge9" class="edge">
<title>7&#45;&gt;9</title>
<path fill="none" stroke="#000000" d="M260.6428,-698.8796C262.662,-690.5938 264.8055,-681.798 266.8956,-673.2216"/>
<polygon fill="#000000" stroke="#000000" points="270.3466,-673.8425 269.3139,-663.2981 263.5457,-672.185 270.3466,-673.8425"/>
</g>
<!-- 10 -->
<g id="node11" class="node">
<title>10</title>
<path fill="#7bbeee" stroke="#000000" d="M194.5,-544C194.5,-544 120.5,-544 120.5,-544 114.5,-544 108.5,-538 108.5,-532 108.5,-532 108.5,-473 108.5,-473 108.5,-467 114.5,-461 120.5,-461 120.5,-461 194.5,-461 194.5,-461 200.5,-461 206.5,-467 206.5,-473 206.5,-473 206.5,-532 206.5,-532 206.5,-538 200.5,-544 194.5,-544"/>
<text text-anchor="start" x="121" y="-528.8" font-family="Helvetica,sans-Serif" font-size="14.00" fill="#000000">a20 ≤ 0.052</text>
<text text-anchor="start" x="122" y="-513.8" font-family="Helvetica,sans-Serif" font-size="14.00" fill="#000000">gini = 0.375</text>
<text text-anchor="start" x="116.5" y="-498.8" font-family="Helvetica,sans-Serif" font-size="14.00" fill="#000000">samples = 12</text>
<text text-anchor="start" x="118" y="-483.8" font-family="Helvetica,sans-Serif" font-size="14.00" fill="#000000">value = [3, 9]</text>
<text text-anchor="start" x="130" y="-468.8" font-family="Helvetica,sans-Serif" font-size="14.00" fill="#000000">class = g</text>
</g>
<!-- 9&#45;&gt;10 -->
<g id="edge10" class="edge">
<title>9&#45;&gt;10</title>
<path fill="none" stroke="#000000" d="M236.8303,-579.8796C227.4123,-570.6931 217.3516,-560.8798 207.6672,-551.4336"/>
<polygon fill="#000000" stroke="#000000" points="209.9543,-548.7751 200.3518,-544.2981 205.0665,-553.7861 209.9543,-548.7751"/>
</g>
<!-- 13 -->
<g id="node14" class="node">
<title>13</title>
<path fill="#3d9fe6" stroke="#000000" d="M322.5,-544C322.5,-544 236.5,-544 236.5,-544 230.5,-544 224.5,-538 224.5,-532 224.5,-532 224.5,-473 224.5,-473 224.5,-467 230.5,-461 236.5,-461 236.5,-461 322.5,-461 322.5,-461 328.5,-461 334.5,-467 334.5,-473 334.5,-473 334.5,-532 334.5,-532 334.5,-538 328.5,-544 322.5,-544"/>
<text text-anchor="start" x="241" y="-528.8" font-family="Helvetica,sans-Serif" font-size="14.00" fill="#000000">a06 ≤ &#45;0.529</text>
<text text-anchor="start" x="244" y="-513.8" font-family="Helvetica,sans-Serif" font-size="14.00" fill="#000000">gini = 0.039</text>
<text text-anchor="start" x="234.5" y="-498.8" font-family="Helvetica,sans-Serif" font-size="14.00" fill="#000000">samples = 149</text>
<text text-anchor="start" x="232.5" y="-483.8" font-family="Helvetica,sans-Serif" font-size="14.00" fill="#000000">value = [3, 146]</text>
<text text-anchor="start" x="252" y="-468.8" font-family="Helvetica,sans-Serif" font-size="14.00" fill="#000000">class = g</text>
</g>
<!-- 9&#45;&gt;13 -->
<g id="edge13" class="edge">
<title>9&#45;&gt;13</title>
<path fill="none" stroke="#000000" d="M279.5,-579.8796C279.5,-571.6838 279.5,-562.9891 279.5,-554.5013"/>
<polygon fill="#000000" stroke="#000000" points="283.0001,-554.298 279.5,-544.2981 276.0001,-554.2981 283.0001,-554.298"/>
</g>
<!-- 11 -->
<g id="node12" class="node">
<title>11</title>
<path fill="#399de5" stroke="#000000" d="M83,-417.5C83,-417.5 12,-417.5 12,-417.5 6,-417.5 0,-411.5 0,-405.5 0,-405.5 0,-361.5 0,-361.5 0,-355.5 6,-349.5 12,-349.5 12,-349.5 83,-349.5 83,-349.5 89,-349.5 95,-355.5 95,-361.5 95,-361.5 95,-405.5 95,-405.5 95,-411.5 89,-417.5 83,-417.5"/>
<text text-anchor="start" x="19.5" y="-402.3" font-family="Helvetica,sans-Serif" font-size="14.00" fill="#000000">gini = 0.0</text>
<text text-anchor="start" x="10" y="-387.3" font-family="Helvetica,sans-Serif" font-size="14.00" fill="#000000">samples = 9</text>
<text text-anchor="start" x="8" y="-372.3" font-family="Helvetica,sans-Serif" font-size="14.00" fill="#000000">value = [0, 9]</text>
<text text-anchor="start" x="20" y="-357.3" font-family="Helvetica,sans-Serif" font-size="14.00" fill="#000000">class = g</text>
</g>
<!-- 10&#45;&gt;11 -->
<g id="edge11" class="edge">
<title>10&#45;&gt;11</title>
<path fill="none" stroke="#000000" d="M119.0273,-460.8796C108.3547,-449.3337 96.7667,-436.7976 86.0875,-425.2446"/>
<polygon fill="#000000" stroke="#000000" points="88.5778,-422.7825 79.2197,-417.8149 83.4375,-427.534 88.5778,-422.7825"/>
</g>
<!-- 12 -->
<g id="node13" class="node">
<title>12</title>
<path fill="#e58139" stroke="#000000" d="M196,-417.5C196,-417.5 125,-417.5 125,-417.5 119,-417.5 113,-411.5 113,-405.5 113,-405.5 113,-361.5 113,-361.5 113,-355.5 119,-349.5 125,-349.5 125,-349.5 196,-349.5 196,-349.5 202,-349.5 208,-355.5 208,-361.5 208,-361.5 208,-405.5 208,-405.5 208,-411.5 202,-417.5 196,-417.5"/>
<text text-anchor="start" x="132.5" y="-402.3" font-family="Helvetica,sans-Serif" font-size="14.00" fill="#000000">gini = 0.0</text>
<text text-anchor="start" x="123" y="-387.3" font-family="Helvetica,sans-Serif" font-size="14.00" fill="#000000">samples = 3</text>
<text text-anchor="start" x="121" y="-372.3" font-family="Helvetica,sans-Serif" font-size="14.00" fill="#000000">value = [3, 0]</text>
<text text-anchor="start" x="133" y="-357.3" font-family="Helvetica,sans-Serif" font-size="14.00" fill="#000000">class = b</text>
</g>
<!-- 10&#45;&gt;12 -->
<g id="edge12" class="edge">
<title>10&#45;&gt;12</title>
<path fill="none" stroke="#000000" d="M158.5493,-460.8796C158.8182,-450.2134 159.1084,-438.7021 159.3806,-427.9015"/>
<polygon fill="#000000" stroke="#000000" points="162.8817,-427.9 159.6349,-417.8149 155.8839,-427.7235 162.8817,-427.9"/>
</g>
<!-- 14 -->
<g id="node15" class="node">
<title>14</title>
<path fill="#ffffff" stroke="#000000" d="M313,-425C313,-425 242,-425 242,-425 236,-425 230,-419 230,-413 230,-413 230,-354 230,-354 230,-348 236,-342 242,-342 242,-342 313,-342 313,-342 319,-342 325,-348 325,-354 325,-354 325,-413 325,-413 325,-419 319,-425 313,-425"/>
<text text-anchor="start" x="241" y="-409.8" font-family="Helvetica,sans-Serif" font-size="14.00" fill="#000000">a24 ≤ 0.433</text>
<text text-anchor="start" x="249.5" y="-394.8" font-family="Helvetica,sans-Serif" font-size="14.00" fill="#000000">gini = 0.5</text>
<text text-anchor="start" x="240" y="-379.8" font-family="Helvetica,sans-Serif" font-size="14.00" fill="#000000">samples = 2</text>
<text text-anchor="start" x="238" y="-364.8" font-family="Helvetica,sans-Serif" font-size="14.00" fill="#000000">value = [1, 1]</text>
<text text-anchor="start" x="250" y="-349.8" font-family="Helvetica,sans-Serif" font-size="14.00" fill="#000000">class = b</text>
</g>
<!-- 13&#45;&gt;14 -->
<g id="edge14" class="edge">
<title>13&#45;&gt;14</title>
<path fill="none" stroke="#000000" d="M278.8005,-460.8796C278.6628,-452.6838 278.5166,-443.9891 278.374,-435.5013"/>
<polygon fill="#000000" stroke="#000000" points="281.8701,-435.2378 278.2025,-425.2981 274.8711,-435.3555 281.8701,-435.2378"/>
</g>
<!-- 17 -->
<g id="node18" class="node">
<title>17</title>
<path fill="#3c9ee5" stroke="#000000" d="M441.5,-425C441.5,-425 355.5,-425 355.5,-425 349.5,-425 343.5,-419 343.5,-413 343.5,-413 343.5,-354 343.5,-354 343.5,-348 349.5,-342 355.5,-342 355.5,-342 441.5,-342 441.5,-342 447.5,-342 453.5,-348 453.5,-354 453.5,-354 453.5,-413 453.5,-413 453.5,-419 447.5,-425 441.5,-425"/>
<text text-anchor="start" x="360" y="-409.8" font-family="Helvetica,sans-Serif" font-size="14.00" fill="#000000">a04 ≤ &#45;0.078</text>
<text text-anchor="start" x="363" y="-394.8" font-family="Helvetica,sans-Serif" font-size="14.00" fill="#000000">gini = 0.027</text>
<text text-anchor="start" x="353.5" y="-379.8" font-family="Helvetica,sans-Serif" font-size="14.00" fill="#000000">samples = 147</text>
<text text-anchor="start" x="351.5" y="-364.8" font-family="Helvetica,sans-Serif" font-size="14.00" fill="#000000">value = [2, 145]</text>
<text text-anchor="start" x="371" y="-349.8" font-family="Helvetica,sans-Serif" font-size="14.00" fill="#000000">class = g</text>
</g>
<!-- 13&#45;&gt;17 -->
<g id="edge17" class="edge">
<title>13&#45;&gt;17</title>
<path fill="none" stroke="#000000" d="M321.1204,-460.8796C330.3069,-451.6931 340.1202,-441.8798 349.5664,-432.4336"/>
<polygon fill="#000000" stroke="#000000" points="352.1057,-434.8441 356.7019,-425.2981 347.1559,-429.8943 352.1057,-434.8441"/>
</g>
<!-- 15 -->
<g id="node16" class="node">
<title>15</title>
<path fill="#399de5" stroke="#000000" d="M201,-298.5C201,-298.5 130,-298.5 130,-298.5 124,-298.5 118,-292.5 118,-286.5 118,-286.5 118,-242.5 118,-242.5 118,-236.5 124,-230.5 130,-230.5 130,-230.5 201,-230.5 201,-230.5 207,-230.5 213,-236.5 213,-242.5 213,-242.5 213,-286.5 213,-286.5 213,-292.5 207,-298.5 201,-298.5"/>
<text text-anchor="start" x="137.5" y="-283.3" font-family="Helvetica,sans-Serif" font-size="14.00" fill="#000000">gini = 0.0</text>
<text text-anchor="start" x="128" y="-268.3" font-family="Helvetica,sans-Serif" font-size="14.00" fill="#000000">samples = 1</text>
<text text-anchor="start" x="126" y="-253.3" font-family="Helvetica,sans-Serif" font-size="14.00" fill="#000000">value = [0, 1]</text>
<text text-anchor="start" x="138" y="-238.3" font-family="Helvetica,sans-Serif" font-size="14.00" fill="#000000">class = g</text>
</g>
<!-- 14&#45;&gt;15 -->
<g id="edge15" class="edge">
<title>14&#45;&gt;15</title>
<path fill="none" stroke="#000000" d="M238.3278,-341.8796C227.4611,-330.3337 215.6624,-317.7976 204.7891,-306.2446"/>
<polygon fill="#000000" stroke="#000000" points="207.1988,-303.6982 197.7964,-298.8149 202.1014,-308.4958 207.1988,-303.6982"/>
</g>
<!-- 16 -->
<g id="node17" class="node">
<title>16</title>
<path fill="#e58139" stroke="#000000" d="M314,-298.5C314,-298.5 243,-298.5 243,-298.5 237,-298.5 231,-292.5 231,-286.5 231,-286.5 231,-242.5 231,-242.5 231,-236.5 237,-230.5 243,-230.5 243,-230.5 314,-230.5 314,-230.5 320,-230.5 326,-236.5 326,-242.5 326,-242.5 326,-286.5 326,-286.5 326,-292.5 320,-298.5 314,-298.5"/>
<text text-anchor="start" x="250.5" y="-283.3" font-family="Helvetica,sans-Serif" font-size="14.00" fill="#000000">gini = 0.0</text>
<text text-anchor="start" x="241" y="-268.3" font-family="Helvetica,sans-Serif" font-size="14.00" fill="#000000">samples = 1</text>
<text text-anchor="start" x="239" y="-253.3" font-family="Helvetica,sans-Serif" font-size="14.00" fill="#000000">value = [1, 0]</text>
<text text-anchor="start" x="251" y="-238.3" font-family="Helvetica,sans-Serif" font-size="14.00" fill="#000000">class = b</text>
</g>
<!-- 14&#45;&gt;16 -->
<g id="edge16" class="edge">
<title>14&#45;&gt;16</title>
<path fill="none" stroke="#000000" d="M277.8498,-341.8796C277.9394,-331.2134 278.0361,-319.7021 278.1269,-308.9015"/>
<polygon fill="#000000" stroke="#000000" points="281.6274,-308.844 278.2116,-298.8149 274.6276,-308.7851 281.6274,-308.844"/>
</g>
<!-- 18 -->
<g id="node19" class="node">
<title>18</title>
<path fill="#52a9e8" stroke="#000000" d="M436.5,-306C436.5,-306 358.5,-306 358.5,-306 352.5,-306 346.5,-300 346.5,-294 346.5,-294 346.5,-235 346.5,-235 346.5,-229 352.5,-223 358.5,-223 358.5,-223 436.5,-223 436.5,-223 442.5,-223 448.5,-229 448.5,-235 448.5,-235 448.5,-294 448.5,-294 448.5,-300 442.5,-306 436.5,-306"/>
<text text-anchor="start" x="359" y="-290.8" font-family="Helvetica,sans-Serif" font-size="14.00" fill="#000000">a04 ≤ &#45;0.079</text>
<text text-anchor="start" x="362" y="-275.8" font-family="Helvetica,sans-Serif" font-size="14.00" fill="#000000">gini = 0.198</text>
<text text-anchor="start" x="356.5" y="-260.8" font-family="Helvetica,sans-Serif" font-size="14.00" fill="#000000">samples = 18</text>
<text text-anchor="start" x="354.5" y="-245.8" font-family="Helvetica,sans-Serif" font-size="14.00" fill="#000000">value = [2, 16]</text>
<text text-anchor="start" x="370" y="-230.8" font-family="Helvetica,sans-Serif" font-size="14.00" fill="#000000">class = g</text>
</g>
<!-- 17&#45;&gt;18 -->
<g id="edge18" class="edge">
<title>17&#45;&gt;18</title>
<path fill="none" stroke="#000000" d="M398.1502,-341.8796C398.0814,-333.6838 398.0083,-324.9891 397.937,-316.5013"/>
<polygon fill="#000000" stroke="#000000" points="401.4352,-316.2683 397.8512,-306.2981 394.4355,-316.3272 401.4352,-316.2683"/>
</g>
<!-- 23 -->
<g id="node24" class="node">
<title>23</title>
<path fill="#399de5" stroke="#000000" d="M564.5,-298.5C564.5,-298.5 478.5,-298.5 478.5,-298.5 472.5,-298.5 466.5,-292.5 466.5,-286.5 466.5,-286.5 466.5,-242.5 466.5,-242.5 466.5,-236.5 472.5,-230.5 478.5,-230.5 478.5,-230.5 564.5,-230.5 564.5,-230.5 570.5,-230.5 576.5,-236.5 576.5,-242.5 576.5,-242.5 576.5,-286.5 576.5,-286.5 576.5,-292.5 570.5,-298.5 564.5,-298.5"/>
<text text-anchor="start" x="493.5" y="-283.3" font-family="Helvetica,sans-Serif" font-size="14.00" fill="#000000">gini = 0.0</text>
<text text-anchor="start" x="476.5" y="-268.3" font-family="Helvetica,sans-Serif" font-size="14.00" fill="#000000">samples = 129</text>
<text text-anchor="start" x="474.5" y="-253.3" font-family="Helvetica,sans-Serif" font-size="14.00" fill="#000000">value = [0, 129]</text>
<text text-anchor="start" x="494" y="-238.3" font-family="Helvetica,sans-Serif" font-size="14.00" fill="#000000">class = g</text>
</g>
<!-- 17&#45;&gt;23 -->
<g id="edge23" class="edge">
<title>17&#45;&gt;23</title>
<path fill="none" stroke="#000000" d="M441.5194,-341.8796C453.5671,-330.2237 466.6578,-317.5587 478.6931,-305.9148"/>
<polygon fill="#000000" stroke="#000000" points="481.2783,-308.2837 486.0316,-298.8149 476.411,-303.2528 481.2783,-308.2837"/>
</g>
<!-- 19 -->
<g id="node20" class="node">
<title>19</title>
<path fill="#45a3e7" stroke="#000000" d="M378.5,-187C378.5,-187 300.5,-187 300.5,-187 294.5,-187 288.5,-181 288.5,-175 288.5,-175 288.5,-116 288.5,-116 288.5,-110 294.5,-104 300.5,-104 300.5,-104 378.5,-104 378.5,-104 384.5,-104 390.5,-110 390.5,-116 390.5,-116 390.5,-175 390.5,-175 390.5,-181 384.5,-187 378.5,-187"/>
<text text-anchor="start" x="310.5" y="-171.8" font-family="Helvetica,sans-Serif" font-size="14.00" fill="#000000">a17 ≤ 0.2</text>
<text text-anchor="start" x="304" y="-156.8" font-family="Helvetica,sans-Serif" font-size="14.00" fill="#000000">gini = 0.111</text>
<text text-anchor="start" x="298.5" y="-141.8" font-family="Helvetica,sans-Serif" font-size="14.00" fill="#000000">samples = 17</text>
<text text-anchor="start" x="296.5" y="-126.8" font-family="Helvetica,sans-Serif" font-size="14.00" fill="#000000">value = [1, 16]</text>
<text text-anchor="start" x="312" y="-111.8" font-family="Helvetica,sans-Serif" font-size="14.00" fill="#000000">class = g</text>
</g>
<!-- 18&#45;&gt;19 -->
<g id="edge19" class="edge">
<title>18&#45;&gt;19</title>
<path fill="none" stroke="#000000" d="M377.2144,-222.8796C373.0443,-214.3236 368.6091,-205.2238 364.3003,-196.3833"/>
<polygon fill="#000000" stroke="#000000" points="367.3997,-194.7538 359.8722,-187.2981 361.1073,-197.8207 367.3997,-194.7538"/>
</g>
<!-- 22 -->
<g id="node23" class="node">
<title>22</title>
<path fill="#e58139" stroke="#000000" d="M492,-179.5C492,-179.5 421,-179.5 421,-179.5 415,-179.5 409,-173.5 409,-167.5 409,-167.5 409,-123.5 409,-123.5 409,-117.5 415,-111.5 421,-111.5 421,-111.5 492,-111.5 492,-111.5 498,-111.5 504,-117.5 504,-123.5 504,-123.5 504,-167.5 504,-167.5 504,-173.5 498,-179.5 492,-179.5"/>
<text text-anchor="start" x="428.5" y="-164.3" font-family="Helvetica,sans-Serif" font-size="14.00" fill="#000000">gini = 0.0</text>
<text text-anchor="start" x="419" y="-149.3" font-family="Helvetica,sans-Serif" font-size="14.00" fill="#000000">samples = 1</text>
<text text-anchor="start" x="417" y="-134.3" font-family="Helvetica,sans-Serif" font-size="14.00" fill="#000000">value = [1, 0]</text>
<text text-anchor="start" x="429" y="-119.3" font-family="Helvetica,sans-Serif" font-size="14.00" fill="#000000">class = b</text>
</g>
<!-- 18&#45;&gt;22 -->
<g id="edge22" class="edge">
<title>18&#45;&gt;22</title>
<path fill="none" stroke="#000000" d="M418.1353,-222.8796C423.5872,-211.8835 429.4843,-199.9893 434.9816,-188.9015"/>
<polygon fill="#000000" stroke="#000000" points="438.1804,-190.3289 439.4867,-179.8149 431.9089,-187.2195 438.1804,-190.3289"/>
</g>
<!-- 20 -->
<g id="node21" class="node">
<title>20</title>
<path fill="#e58139" stroke="#000000" d="M317,-68C317,-68 246,-68 246,-68 240,-68 234,-62 234,-56 234,-56 234,-12 234,-12 234,-6 240,0 246,0 246,0 317,0 317,0 323,0 329,-6 329,-12 329,-12 329,-56 329,-56 329,-62 323,-68 317,-68"/>
<text text-anchor="start" x="253.5" y="-52.8" font-family="Helvetica,sans-Serif" font-size="14.00" fill="#000000">gini = 0.0</text>
<text text-anchor="start" x="244" y="-37.8" font-family="Helvetica,sans-Serif" font-size="14.00" fill="#000000">samples = 1</text>
<text text-anchor="start" x="242" y="-22.8" font-family="Helvetica,sans-Serif" font-size="14.00" fill="#000000">value = [1, 0]</text>
<text text-anchor="start" x="254" y="-7.8" font-family="Helvetica,sans-Serif" font-size="14.00" fill="#000000">class = b</text>
</g>
<!-- 19&#45;&gt;20 -->
<g id="edge20" class="edge">
<title>19&#45;&gt;20</title>
<path fill="none" stroke="#000000" d="M317.9029,-103.9815C313.3612,-95.2504 308.5598,-86.0202 303.9863,-77.2281"/>
<polygon fill="#000000" stroke="#000000" points="307.0431,-75.52 299.3233,-68.2637 300.8331,-78.7504 307.0431,-75.52"/>
</g>
<!-- 21 -->
<g id="node22" class="node">
<title>21</title>
<path fill="#399de5" stroke="#000000" d="M437.5,-68C437.5,-68 359.5,-68 359.5,-68 353.5,-68 347.5,-62 347.5,-56 347.5,-56 347.5,-12 347.5,-12 347.5,-6 353.5,0 359.5,0 359.5,0 437.5,0 437.5,0 443.5,0 449.5,-6 449.5,-12 449.5,-12 449.5,-56 449.5,-56 449.5,-62 443.5,-68 437.5,-68"/>
<text text-anchor="start" x="370.5" y="-52.8" font-family="Helvetica,sans-Serif" font-size="14.00" fill="#000000">gini = 0.0</text>
<text text-anchor="start" x="357.5" y="-37.8" font-family="Helvetica,sans-Serif" font-size="14.00" fill="#000000">samples = 16</text>
<text text-anchor="start" x="355.5" y="-22.8" font-family="Helvetica,sans-Serif" font-size="14.00" fill="#000000">value = [0, 16]</text>
<text text-anchor="start" x="371" y="-7.8" font-family="Helvetica,sans-Serif" font-size="14.00" fill="#000000">class = g</text>
</g>
<!-- 19&#45;&gt;21 -->
<g id="edge21" class="edge">
<title>19&#45;&gt;21</title>
<path fill="none" stroke="#000000" d="M361.4694,-103.9815C366.0895,-95.2504 370.9736,-86.0202 375.626,-77.2281"/>
<polygon fill="#000000" stroke="#000000" points="378.7859,-78.7395 380.3694,-68.2637 372.5987,-75.4655 378.7859,-78.7395"/>
</g>
<!-- 25 -->
<g id="node26" class="node">
<title>25</title>
<path fill="#e58139" stroke="#000000" d="M414.5,-893.5C414.5,-893.5 336.5,-893.5 336.5,-893.5 330.5,-893.5 324.5,-887.5 324.5,-881.5 324.5,-881.5 324.5,-837.5 324.5,-837.5 324.5,-831.5 330.5,-825.5 336.5,-825.5 336.5,-825.5 414.5,-825.5 414.5,-825.5 420.5,-825.5 426.5,-831.5 426.5,-837.5 426.5,-837.5 426.5,-881.5 426.5,-881.5 426.5,-887.5 420.5,-893.5 414.5,-893.5"/>
<text text-anchor="start" x="347.5" y="-878.3" font-family="Helvetica,sans-Serif" font-size="14.00" fill="#000000">gini = 0.0</text>
<text text-anchor="start" x="334.5" y="-863.3" font-family="Helvetica,sans-Serif" font-size="14.00" fill="#000000">samples = 12</text>
<text text-anchor="start" x="332.5" y="-848.3" font-family="Helvetica,sans-Serif" font-size="14.00" fill="#000000">value = [12, 0]</text>
<text text-anchor="start" x="348" y="-833.3" font-family="Helvetica,sans-Serif" font-size="14.00" fill="#000000">class = b</text>
</g>
<!-- 24&#45;&gt;25 -->
<g id="edge25" class="edge">
<title>24&#45;&gt;25</title>
<path fill="none" stroke="#000000" d="M376.1502,-936.8796C376.0606,-926.2134 375.9639,-914.7021 375.8731,-903.9015"/>
<polygon fill="#000000" stroke="#000000" points="379.3724,-903.7851 375.7884,-893.8149 372.3726,-903.844 379.3724,-903.7851"/>
</g>
<!-- 26 -->
<g id="node27" class="node">
<title>26</title>
<path fill="#fdf4ed" stroke="#000000" d="M542.5,-901C542.5,-901 456.5,-901 456.5,-901 450.5,-901 444.5,-895 444.5,-889 444.5,-889 444.5,-830 444.5,-830 444.5,-824 450.5,-818 456.5,-818 456.5,-818 542.5,-818 542.5,-818 548.5,-818 554.5,-824 554.5,-830 554.5,-830 554.5,-889 554.5,-889 554.5,-895 548.5,-901 542.5,-901"/>
<text text-anchor="start" x="467" y="-885.8" font-family="Helvetica,sans-Serif" font-size="14.00" fill="#000000">a22 ≤ 0.96</text>
<text text-anchor="start" x="464" y="-870.8" font-family="Helvetica,sans-Serif" font-size="14.00" fill="#000000">gini = 0.499</text>
<text text-anchor="start" x="458.5" y="-855.8" font-family="Helvetica,sans-Serif" font-size="14.00" fill="#000000">samples = 21</text>
<text text-anchor="start" x="452.5" y="-840.8" font-family="Helvetica,sans-Serif" font-size="14.00" fill="#000000">value = [11, 10]</text>
<text text-anchor="start" x="472" y="-825.8" font-family="Helvetica,sans-Serif" font-size="14.00" fill="#000000">class = b</text>
</g>
<!-- 24&#45;&gt;26 -->
<g id="edge26" class="edge">
<title>24&#45;&gt;26</title>
<path fill="none" stroke="#000000" d="M419.5194,-936.8796C429.0147,-927.6931 439.1578,-917.8798 448.9215,-908.4336"/>
<polygon fill="#000000" stroke="#000000" points="451.5436,-910.7668 456.297,-901.2981 446.6763,-905.7359 451.5436,-910.7668"/>
</g>
<!-- 27 -->
<g id="node28" class="node">
<title>27</title>
<path fill="#74baed" stroke="#000000" d="M535.5,-782C535.5,-782 457.5,-782 457.5,-782 451.5,-782 445.5,-776 445.5,-770 445.5,-770 445.5,-711 445.5,-711 445.5,-705 451.5,-699 457.5,-699 457.5,-699 535.5,-699 535.5,-699 541.5,-699 547.5,-705 547.5,-711 547.5,-711 547.5,-770 547.5,-770 547.5,-776 541.5,-782 535.5,-782"/>
<text text-anchor="start" x="460" y="-766.8" font-family="Helvetica,sans-Serif" font-size="14.00" fill="#000000">a09 ≤ 0.957</text>
<text text-anchor="start" x="461" y="-751.8" font-family="Helvetica,sans-Serif" font-size="14.00" fill="#000000">gini = 0.355</text>
<text text-anchor="start" x="455.5" y="-736.8" font-family="Helvetica,sans-Serif" font-size="14.00" fill="#000000">samples = 13</text>
<text text-anchor="start" x="453.5" y="-721.8" font-family="Helvetica,sans-Serif" font-size="14.00" fill="#000000">value = [3, 10]</text>
<text text-anchor="start" x="469" y="-706.8" font-family="Helvetica,sans-Serif" font-size="14.00" fill="#000000">class = g</text>
</g>
<!-- 26&#45;&gt;27 -->
<g id="edge27" class="edge">
<title>26&#45;&gt;27</title>
<path fill="none" stroke="#000000" d="M498.4507,-817.8796C498.2441,-809.6838 498.0249,-800.9891 497.811,-792.5013"/>
<polygon fill="#000000" stroke="#000000" points="501.3047,-792.2067 497.5537,-782.2981 494.307,-792.3831 501.3047,-792.2067"/>
</g>
<!-- 32 -->
<g id="node33" class="node">
<title>32</title>
<path fill="#e58139" stroke="#000000" d="M649,-774.5C649,-774.5 578,-774.5 578,-774.5 572,-774.5 566,-768.5 566,-762.5 566,-762.5 566,-718.5 566,-718.5 566,-712.5 572,-706.5 578,-706.5 578,-706.5 649,-706.5 649,-706.5 655,-706.5 661,-712.5 661,-718.5 661,-718.5 661,-762.5 661,-762.5 661,-768.5 655,-774.5 649,-774.5"/>
<text text-anchor="start" x="585.5" y="-759.3" font-family="Helvetica,sans-Serif" font-size="14.00" fill="#000000">gini = 0.0</text>
<text text-anchor="start" x="576" y="-744.3" font-family="Helvetica,sans-Serif" font-size="14.00" fill="#000000">samples = 8</text>
<text text-anchor="start" x="574" y="-729.3" font-family="Helvetica,sans-Serif" font-size="14.00" fill="#000000">value = [8, 0]</text>
<text text-anchor="start" x="586" y="-714.3" font-family="Helvetica,sans-Serif" font-size="14.00" fill="#000000">class = b</text>
</g>
<!-- 26&#45;&gt;32 -->
<g id="edge32" class="edge">
<title>26&#45;&gt;32</title>
<path fill="none" stroke="#000000" d="M539.3717,-817.8796C550.4324,-806.3337 562.4418,-793.7976 573.5094,-782.2446"/>
<polygon fill="#000000" stroke="#000000" points="576.2365,-784.4573 580.6269,-774.8149 571.1817,-779.6149 576.2365,-784.4573"/>
</g>
<!-- 28 -->
<g id="node29" class="node">
<title>28</title>
<path fill="#eeab7b" stroke="#000000" d="M504,-663C504,-663 433,-663 433,-663 427,-663 421,-657 421,-651 421,-651 421,-592 421,-592 421,-586 427,-580 433,-580 433,-580 504,-580 504,-580 510,-580 516,-586 516,-592 516,-592 516,-651 516,-651 516,-657 510,-663 504,-663"/>
<text text-anchor="start" x="430" y="-647.8" font-family="Helvetica,sans-Serif" font-size="14.00" fill="#000000">a04 ≤ &#45;0.274</text>
<text text-anchor="start" x="433" y="-632.8" font-family="Helvetica,sans-Serif" font-size="14.00" fill="#000000">gini = 0.375</text>
<text text-anchor="start" x="431" y="-617.8" font-family="Helvetica,sans-Serif" font-size="14.00" fill="#000000">samples = 4</text>
<text text-anchor="start" x="429" y="-602.8" font-family="Helvetica,sans-Serif" font-size="14.00" fill="#000000">value = [3, 1]</text>
<text text-anchor="start" x="441" y="-587.8" font-family="Helvetica,sans-Serif" font-size="14.00" fill="#000000">class = b</text>
</g>
<!-- 27&#45;&gt;28 -->
<g id="edge28" class="edge">
<title>27&#45;&gt;28</title>
<path fill="none" stroke="#000000" d="M486.707,-698.8796C484.7574,-690.5938 482.6878,-681.798 480.6698,-673.2216"/>
<polygon fill="#000000" stroke="#000000" points="484.0323,-672.2306 478.3348,-663.2981 477.2183,-673.8339 484.0323,-672.2306"/>
</g>
<!-- 31 -->
<g id="node32" class="node">
<title>31</title>
<path fill="#399de5" stroke="#000000" d="M617,-655.5C617,-655.5 546,-655.5 546,-655.5 540,-655.5 534,-649.5 534,-643.5 534,-643.5 534,-599.5 534,-599.5 534,-593.5 540,-587.5 546,-587.5 546,-587.5 617,-587.5 617,-587.5 623,-587.5 629,-593.5 629,-599.5 629,-599.5 629,-643.5 629,-643.5 629,-649.5 623,-655.5 617,-655.5"/>
<text text-anchor="start" x="553.5" y="-640.3" font-family="Helvetica,sans-Serif" font-size="14.00" fill="#000000">gini = 0.0</text>
<text text-anchor="start" x="544" y="-625.3" font-family="Helvetica,sans-Serif" font-size="14.00" fill="#000000">samples = 9</text>
<text text-anchor="start" x="542" y="-610.3" font-family="Helvetica,sans-Serif" font-size="14.00" fill="#000000">value = [0, 9]</text>
<text text-anchor="start" x="554" y="-595.3" font-family="Helvetica,sans-Serif" font-size="14.00" fill="#000000">class = g</text>
</g>
<!-- 27&#45;&gt;31 -->
<g id="edge31" class="edge">
<title>27&#45;&gt;31</title>
<path fill="none" stroke="#000000" d="M526.2289,-698.8796C534.2403,-687.6636 542.9192,-675.5131 550.9734,-664.2372"/>
<polygon fill="#000000" stroke="#000000" points="554.025,-665.9866 556.9893,-655.8149 548.3288,-661.9179 554.025,-665.9866"/>
</g>
<!-- 29 -->
<g id="node30" class="node">
<title>29</title>
<path fill="#399de5" stroke="#000000" d="M447,-536.5C447,-536.5 376,-536.5 376,-536.5 370,-536.5 364,-530.5 364,-524.5 364,-524.5 364,-480.5 364,-480.5 364,-474.5 370,-468.5 376,-468.5 376,-468.5 447,-468.5 447,-468.5 453,-468.5 459,-474.5 459,-480.5 459,-480.5 459,-524.5 459,-524.5 459,-530.5 453,-536.5 447,-536.5"/>
<text text-anchor="start" x="383.5" y="-521.3" font-family="Helvetica,sans-Serif" font-size="14.00" fill="#000000">gini = 0.0</text>
<text text-anchor="start" x="374" y="-506.3" font-family="Helvetica,sans-Serif" font-size="14.00" fill="#000000">samples = 1</text>
<text text-anchor="start" x="372" y="-491.3" font-family="Helvetica,sans-Serif" font-size="14.00" fill="#000000">value = [0, 1]</text>
<text text-anchor="start" x="384" y="-476.3" font-family="Helvetica,sans-Serif" font-size="14.00" fill="#000000">class = g</text>
</g>
<!-- 28&#45;&gt;29 -->
<g id="edge29" class="edge">
<title>28&#45;&gt;29</title>
<path fill="none" stroke="#000000" d="M448.5642,-579.8796C443.2971,-568.8835 437.5999,-556.9893 432.289,-545.9015"/>
<polygon fill="#000000" stroke="#000000" points="435.4131,-544.3217 427.9366,-536.8149 429.1,-547.3457 435.4131,-544.3217"/>
</g>
<!-- 30 -->
<g id="node31" class="node">
<title>30</title>
<path fill="#e58139" stroke="#000000" d="M560,-536.5C560,-536.5 489,-536.5 489,-536.5 483,-536.5 477,-530.5 477,-524.5 477,-524.5 477,-480.5 477,-480.5 477,-474.5 483,-468.5 489,-468.5 489,-468.5 560,-468.5 560,-468.5 566,-468.5 572,-474.5 572,-480.5 572,-480.5 572,-524.5 572,-524.5 572,-530.5 566,-536.5 560,-536.5"/>
<text text-anchor="start" x="496.5" y="-521.3" font-family="Helvetica,sans-Serif" font-size="14.00" fill="#000000">gini = 0.0</text>
<text text-anchor="start" x="487" y="-506.3" font-family="Helvetica,sans-Serif" font-size="14.00" fill="#000000">samples = 3</text>
<text text-anchor="start" x="485" y="-491.3" font-family="Helvetica,sans-Serif" font-size="14.00" fill="#000000">value = [3, 0]</text>
<text text-anchor="start" x="497" y="-476.3" font-family="Helvetica,sans-Serif" font-size="14.00" fill="#000000">class = b</text>
</g>
<!-- 28&#45;&gt;30 -->
<g id="edge30" class="edge">
<title>28&#45;&gt;30</title>
<path fill="none" stroke="#000000" d="M488.0861,-579.8796C493.2607,-568.8835 498.858,-556.9893 504.0758,-545.9015"/>
<polygon fill="#000000" stroke="#000000" points="507.2606,-547.3534 508.3518,-536.8149 500.9269,-544.3728 507.2606,-547.3534"/>
</g>
</g>
</svg>
