<?xml version="1.0" encoding="UTF-8" standalone="no"?>
<!DOCTYPE svg PUBLIC "-//W3C//DTD SVG 1.1//EN"
 "http://www.w3.org/Graphics/SVG/1.1/DTD/svg11.dtd">
<!-- Generated by graphviz version 2.40.1 (20161225.0304)
 -->
<!-- Title: Tree Pages: 1 -->
<svg width="634pt" height="671pt"
 viewBox="0.00 0.00 634.00 671.00" xmlns="http://www.w3.org/2000/svg" xmlns:xlink="http://www.w3.org/1999/xlink">
<g id="graph0" class="graph" transform="scale(1 1) rotate(0) translate(4 667)">
<title>Tree</title>
<polygon fill="#ffffff" stroke="transparent" points="-4,4 -4,-667 630,-667 630,4 -4,4"/>
<!-- 0 -->
<g id="node1" class="node">
<title>0</title>
<path fill="#fcfffd" stroke="#000000" d="M296,-663C296,-663 174,-663 174,-663 168,-663 162,-657 162,-651 162,-651 162,-592 162,-592 162,-586 168,-580 174,-580 174,-580 296,-580 296,-580 302,-580 308,-586 308,-592 308,-592 308,-651 308,-651 308,-657 302,-663 296,-663"/>
<text text-anchor="start" x="180.5" y="-647.8" font-family="Helvetica,sans-Serif" font-size="14.00" fill="#000000">petallength ≤ 2.45</text>
<text text-anchor="start" x="199.5" y="-632.8" font-family="Helvetica,sans-Serif" font-size="14.00" fill="#000000">gini = 0.666</text>
<text text-anchor="start" x="190" y="-617.8" font-family="Helvetica,sans-Serif" font-size="14.00" fill="#000000">samples = 109</text>
<text text-anchor="start" x="177" y="-602.8" font-family="Helvetica,sans-Serif" font-size="14.00" fill="#000000">value = [37, 38, 34]</text>
<text text-anchor="start" x="170" y="-587.8" font-family="Helvetica,sans-Serif" font-size="14.00" fill="#000000">class = Iris_versicolor</text>
</g>
<!-- 1 -->
<g id="node2" class="node">
<title>1</title>
<path fill="#e58139" stroke="#000000" d="M210,-536.5C210,-536.5 106,-536.5 106,-536.5 100,-536.5 94,-530.5 94,-524.5 94,-524.5 94,-480.5 94,-480.5 94,-474.5 100,-468.5 106,-468.5 106,-468.5 210,-468.5 210,-468.5 216,-468.5 222,-474.5 222,-480.5 222,-480.5 222,-524.5 222,-524.5 222,-530.5 216,-536.5 210,-536.5"/>
<text text-anchor="start" x="130" y="-521.3" font-family="Helvetica,sans-Serif" font-size="14.00" fill="#000000">gini = 0.0</text>
<text text-anchor="start" x="117" y="-506.3" font-family="Helvetica,sans-Serif" font-size="14.00" fill="#000000">samples = 37</text>
<text text-anchor="start" x="107.5" y="-491.3" font-family="Helvetica,sans-Serif" font-size="14.00" fill="#000000">value = [37, 0, 0]</text>
<text text-anchor="start" x="102" y="-476.3" font-family="Helvetica,sans-Serif" font-size="14.00" fill="#000000">class = Iris_setosa</text>
</g>
<!-- 0&#45;&gt;1 -->
<g id="edge1" class="edge">
<title>0&#45;&gt;1</title>
<path fill="none" stroke="#000000" d="M208.0691,-579.8796C200.8117,-568.6636 192.9497,-556.5131 185.6535,-545.2372"/>
<polygon fill="#000000" stroke="#000000" points="188.5748,-543.3093 180.2038,-536.8149 182.6978,-547.112 188.5748,-543.3093"/>
<text text-anchor="middle" x="174.9656" y="-557.56" font-family="Helvetica,sans-Serif" font-size="14.00" fill="#000000">True</text>
</g>
<!-- 2 -->
<g id="node3" class="node">
<title>2</title>
<path fill="#eafcf2" stroke="#000000" d="M374,-544C374,-544 252,-544 252,-544 246,-544 240,-538 240,-532 240,-532 240,-473 240,-473 240,-467 246,-461 252,-461 252,-461 374,-461 374,-461 380,-461 386,-467 386,-473 386,-473 386,-532 386,-532 386,-538 380,-544 374,-544"/>
<text text-anchor="start" x="261.5" y="-528.8" font-family="Helvetica,sans-Serif" font-size="14.00" fill="#000000">petalwidth ≤ 1.65</text>
<text text-anchor="start" x="277.5" y="-513.8" font-family="Helvetica,sans-Serif" font-size="14.00" fill="#000000">gini = 0.498</text>
<text text-anchor="start" x="272" y="-498.8" font-family="Helvetica,sans-Serif" font-size="14.00" fill="#000000">samples = 72</text>
<text text-anchor="start" x="258.5" y="-483.8" font-family="Helvetica,sans-Serif" font-size="14.00" fill="#000000">value = [0, 38, 34]</text>
<text text-anchor="start" x="248" y="-468.8" font-family="Helvetica,sans-Serif" font-size="14.00" fill="#000000">class = Iris_versicolor</text>
</g>
<!-- 0&#45;&gt;2 -->
<g id="edge2" class="edge">
<title>0&#45;&gt;2</title>
<path fill="none" stroke="#000000" d="M262.2806,-579.8796C268.0068,-571.1434 274.1046,-561.8404 280.0137,-552.8253"/>
<polygon fill="#000000" stroke="#000000" points="283.0482,-554.5803 285.6029,-544.2981 277.1937,-550.7429 283.0482,-554.5803"/>
<text text-anchor="middle" x="290.6968" y="-565.0736" font-family="Helvetica,sans-Serif" font-size="14.00" fill="#000000">False</text>
</g>
<!-- 3 -->
<g id="node4" class="node">
<title>3</title>
<path fill="#44e688" stroke="#000000" d="M294,-425C294,-425 172,-425 172,-425 166,-425 160,-419 160,-413 160,-413 160,-354 160,-354 160,-348 166,-342 172,-342 172,-342 294,-342 294,-342 300,-342 306,-348 306,-354 306,-354 306,-413 306,-413 306,-419 300,-425 294,-425"/>
<text text-anchor="start" x="178.5" y="-409.8" font-family="Helvetica,sans-Serif" font-size="14.00" fill="#000000">petallength ≤ 4.95</text>
<text text-anchor="start" x="197.5" y="-394.8" font-family="Helvetica,sans-Serif" font-size="14.00" fill="#000000">gini = 0.097</text>
<text text-anchor="start" x="192" y="-379.8" font-family="Helvetica,sans-Serif" font-size="14.00" fill="#000000">samples = 39</text>
<text text-anchor="start" x="182.5" y="-364.8" font-family="Helvetica,sans-Serif" font-size="14.00" fill="#000000">value = [0, 37, 2]</text>
<text text-anchor="start" x="168" y="-349.8" font-family="Helvetica,sans-Serif" font-size="14.00" fill="#000000">class = Iris_versicolor</text>
</g>
<!-- 2&#45;&gt;3 -->
<g id="edge3" class="edge">
<title>2&#45;&gt;3</title>
<path fill="none" stroke="#000000" d="M285.0199,-460.8796C279.1469,-452.1434 272.8927,-442.8404 266.8321,-433.8253"/>
<polygon fill="#000000" stroke="#000000" points="269.5834,-431.6444 261.0995,-425.2981 263.7741,-435.5498 269.5834,-431.6444"/>
</g>
<!-- 10 -->
<g id="node11" class="node">
<title>10</title>
<path fill="#853fe6" stroke="#000000" d="M450,-425C450,-425 336,-425 336,-425 330,-425 324,-419 324,-413 324,-413 324,-354 324,-354 324,-348 330,-342 336,-342 336,-342 450,-342 450,-342 456,-342 462,-348 462,-354 462,-354 462,-413 462,-413 462,-419 456,-425 450,-425"/>
<text text-anchor="start" x="338.5" y="-409.8" font-family="Helvetica,sans-Serif" font-size="14.00" fill="#000000">petallength ≤ 4.85</text>
<text text-anchor="start" x="357.5" y="-394.8" font-family="Helvetica,sans-Serif" font-size="14.00" fill="#000000">gini = 0.059</text>
<text text-anchor="start" x="352" y="-379.8" font-family="Helvetica,sans-Serif" font-size="14.00" fill="#000000">samples = 33</text>
<text text-anchor="start" x="342.5" y="-364.8" font-family="Helvetica,sans-Serif" font-size="14.00" fill="#000000">value = [0, 1, 32]</text>
<text text-anchor="start" x="332" y="-349.8" font-family="Helvetica,sans-Serif" font-size="14.00" fill="#000000">class = Iris_virginica</text>
</g>
<!-- 2&#45;&gt;10 -->
<g id="edge10" class="edge">
<title>2&#45;&gt;10</title>
<path fill="none" stroke="#000000" d="M340.9801,-460.8796C346.8531,-452.1434 353.1073,-442.8404 359.1679,-433.8253"/>
<polygon fill="#000000" stroke="#000000" points="362.2259,-435.5498 364.9005,-425.2981 356.4166,-431.6444 362.2259,-435.5498"/>
</g>
<!-- 4 -->
<g id="node5" class="node">
<title>4</title>
<path fill="#39e581" stroke="#000000" d="M134,-298.5C134,-298.5 12,-298.5 12,-298.5 6,-298.5 0,-292.5 0,-286.5 0,-286.5 0,-242.5 0,-242.5 0,-236.5 6,-230.5 12,-230.5 12,-230.5 134,-230.5 134,-230.5 140,-230.5 146,-236.5 146,-242.5 146,-242.5 146,-286.5 146,-286.5 146,-292.5 140,-298.5 134,-298.5"/>
<text text-anchor="start" x="45" y="-283.3" font-family="Helvetica,sans-Serif" font-size="14.00" fill="#000000">gini = 0.0</text>
<text text-anchor="start" x="32" y="-268.3" font-family="Helvetica,sans-Serif" font-size="14.00" fill="#000000">samples = 36</text>
<text text-anchor="start" x="22.5" y="-253.3" font-family="Helvetica,sans-Serif" font-size="14.00" fill="#000000">value = [0, 36, 0]</text>
<text text-anchor="start" x="8" y="-238.3" font-family="Helvetica,sans-Serif" font-size="14.00" fill="#000000">class = Iris_versicolor</text>
</g>
<!-- 3&#45;&gt;4 -->
<g id="edge4" class="edge">
<title>3&#45;&gt;4</title>
<path fill="none" stroke="#000000" d="M177.0398,-341.8796C160.8478,-329.8368 143.2073,-316.7167 127.1292,-304.7586"/>
<polygon fill="#000000" stroke="#000000" points="128.9925,-301.7825 118.8797,-298.623 124.815,-307.3993 128.9925,-301.7825"/>
</g>
<!-- 5 -->
<g id="node6" class="node">
<title>5</title>
<path fill="#c09cf2" stroke="#000000" d="M290,-306C290,-306 176,-306 176,-306 170,-306 164,-300 164,-294 164,-294 164,-235 164,-235 164,-229 170,-223 176,-223 176,-223 290,-223 290,-223 296,-223 302,-229 302,-235 302,-235 302,-294 302,-294 302,-300 296,-306 290,-306"/>
<text text-anchor="start" x="180" y="-290.8" font-family="Helvetica,sans-Serif" font-size="14.00" fill="#000000">sepalwidth ≤ 2.45</text>
<text text-anchor="start" x="197.5" y="-275.8" font-family="Helvetica,sans-Serif" font-size="14.00" fill="#000000">gini = 0.444</text>
<text text-anchor="start" x="195.5" y="-260.8" font-family="Helvetica,sans-Serif" font-size="14.00" fill="#000000">samples = 3</text>
<text text-anchor="start" x="186" y="-245.8" font-family="Helvetica,sans-Serif" font-size="14.00" fill="#000000">value = [0, 1, 2]</text>
<text text-anchor="start" x="172" y="-230.8" font-family="Helvetica,sans-Serif" font-size="14.00" fill="#000000">class = Iris_virginica</text>
</g>
<!-- 3&#45;&gt;5 -->
<g id="edge5" class="edge">
<title>3&#45;&gt;5</title>
<path fill="none" stroke="#000000" d="M233,-341.8796C233,-333.6838 233,-324.9891 233,-316.5013"/>
<polygon fill="#000000" stroke="#000000" points="236.5001,-316.298 233,-306.2981 229.5001,-316.2981 236.5001,-316.298"/>
</g>
<!-- 6 -->
<g id="node7" class="node">
<title>6</title>
<path fill="#8139e5" stroke="#000000" d="M130,-179.5C130,-179.5 16,-179.5 16,-179.5 10,-179.5 4,-173.5 4,-167.5 4,-167.5 4,-123.5 4,-123.5 4,-117.5 10,-111.5 16,-111.5 16,-111.5 130,-111.5 130,-111.5 136,-111.5 142,-117.5 142,-123.5 142,-123.5 142,-167.5 142,-167.5 142,-173.5 136,-179.5 130,-179.5"/>
<text text-anchor="start" x="45" y="-164.3" font-family="Helvetica,sans-Serif" font-size="14.00" fill="#000000">gini = 0.0</text>
<text text-anchor="start" x="35.5" y="-149.3" font-family="Helvetica,sans-Serif" font-size="14.00" fill="#000000">samples = 1</text>
<text text-anchor="start" x="26" y="-134.3" font-family="Helvetica,sans-Serif" font-size="14.00" fill="#000000">value = [0, 0, 1]</text>
<text text-anchor="start" x="12" y="-119.3" font-family="Helvetica,sans-Serif" font-size="14.00" fill="#000000">class = Iris_virginica</text>
</g>
<!-- 5&#45;&gt;6 -->
<g id="edge6" class="edge">
<title>5&#45;&gt;6</title>
<path fill="none" stroke="#000000" d="M177.0398,-222.8796C160.8478,-210.8368 143.2073,-197.7167 127.1292,-185.7586"/>
<polygon fill="#000000" stroke="#000000" points="128.9925,-182.7825 118.8797,-179.623 124.815,-188.3993 128.9925,-182.7825"/>
</g>
<!-- 7 -->
<g id="node8" class="node">
<title>7</title>
<path fill="#ffffff" stroke="#000000" d="M294,-187C294,-187 172,-187 172,-187 166,-187 160,-181 160,-175 160,-175 160,-116 160,-116 160,-110 166,-104 172,-104 172,-104 294,-104 294,-104 300,-104 306,-110 306,-116 306,-116 306,-175 306,-175 306,-181 300,-187 294,-187"/>
<text text-anchor="start" x="178.5" y="-171.8" font-family="Helvetica,sans-Serif" font-size="14.00" fill="#000000">petallength ≤ 5.45</text>
<text text-anchor="start" x="205" y="-156.8" font-family="Helvetica,sans-Serif" font-size="14.00" fill="#000000">gini = 0.5</text>
<text text-anchor="start" x="195.5" y="-141.8" font-family="Helvetica,sans-Serif" font-size="14.00" fill="#000000">samples = 2</text>
<text text-anchor="start" x="186" y="-126.8" font-family="Helvetica,sans-Serif" font-size="14.00" fill="#000000">value = [0, 1, 1]</text>
<text text-anchor="start" x="168" y="-111.8" font-family="Helvetica,sans-Serif" font-size="14.00" fill="#000000">class = Iris_versicolor</text>
</g>
<!-- 5&#45;&gt;7 -->
<g id="edge7" class="edge">
<title>5&#45;&gt;7</title>
<path fill="none" stroke="#000000" d="M233,-222.8796C233,-214.6838 233,-205.9891 233,-197.5013"/>
<polygon fill="#000000" stroke="#000000" points="236.5001,-197.298 233,-187.2981 229.5001,-197.2981 236.5001,-197.298"/>
</g>
<!-- 8 -->
<g id="node9" class="node">
<title>8</title>
<path fill="#39e581" stroke="#000000" d="M214,-68C214,-68 92,-68 92,-68 86,-68 80,-62 80,-56 80,-56 80,-12 80,-12 80,-6 86,0 92,0 92,0 214,0 214,0 220,0 226,-6 226,-12 226,-12 226,-56 226,-56 226,-62 220,-68 214,-68"/>
<text text-anchor="start" x="125" y="-52.8" font-family="Helvetica,sans-Serif" font-size="14.00" fill="#000000">gini = 0.0</text>
<text text-anchor="start" x="115.5" y="-37.8" font-family="Helvetica,sans-Serif" font-size="14.00" fill="#000000">samples = 1</text>
<text text-anchor="start" x="106" y="-22.8" font-family="Helvetica,sans-Serif" font-size="14.00" fill="#000000">value = [0, 1, 0]</text>
<text text-anchor="start" x="88" y="-7.8" font-family="Helvetica,sans-Serif" font-size="14.00" fill="#000000">class = Iris_versicolor</text>
</g>
<!-- 7&#45;&gt;8 -->
<g id="edge8" class="edge">
<title>7&#45;&gt;8</title>
<path fill="none" stroke="#000000" d="M203.211,-103.9815C196.7486,-94.9747 189.9052,-85.4367 183.419,-76.3965"/>
<polygon fill="#000000" stroke="#000000" points="186.2572,-74.3483 177.5838,-68.2637 180.5697,-78.4291 186.2572,-74.3483"/>
</g>
<!-- 9 -->
<g id="node10" class="node">
<title>9</title>
<path fill="#8139e5" stroke="#000000" d="M370,-68C370,-68 256,-68 256,-68 250,-68 244,-62 244,-56 244,-56 244,-12 244,-12 244,-6 250,0 256,0 256,0 370,0 370,0 376,0 382,-6 382,-12 382,-12 382,-56 382,-56 382,-62 376,-68 370,-68"/>
<text text-anchor="start" x="285" y="-52.8" font-family="Helvetica,sans-Serif" font-size="14.00" fill="#000000">gini = 0.0</text>
<text text-anchor="start" x="275.5" y="-37.8" font-family="Helvetica,sans-Serif" font-size="14.00" fill="#000000">samples = 1</text>
<text text-anchor="start" x="266" y="-22.8" font-family="Helvetica,sans-Serif" font-size="14.00" fill="#000000">value = [0, 0, 1]</text>
<text text-anchor="start" x="252" y="-7.8" font-family="Helvetica,sans-Serif" font-size="14.00" fill="#000000">class = Iris_virginica</text>
</g>
<!-- 7&#45;&gt;9 -->
<g id="edge9" class="edge">
<title>7&#45;&gt;9</title>
<path fill="none" stroke="#000000" d="M262.789,-103.9815C269.2514,-94.9747 276.0948,-85.4367 282.581,-76.3965"/>
<polygon fill="#000000" stroke="#000000" points="285.4303,-78.4291 288.4162,-68.2637 279.7428,-74.3483 285.4303,-78.4291"/>
</g>
<!-- 11 -->
<g id="node12" class="node">
<title>11</title>
<path fill="#c09cf2" stroke="#000000" d="M450,-306C450,-306 336,-306 336,-306 330,-306 324,-300 324,-294 324,-294 324,-235 324,-235 324,-229 330,-223 336,-223 336,-223 450,-223 450,-223 456,-223 462,-229 462,-235 462,-235 462,-294 462,-294 462,-300 456,-306 450,-306"/>
<text text-anchor="start" x="343.5" y="-290.8" font-family="Helvetica,sans-Serif" font-size="14.00" fill="#000000">sepalwidth ≤ 3.1</text>
<text text-anchor="start" x="357.5" y="-275.8" font-family="Helvetica,sans-Serif" font-size="14.00" fill="#000000">gini = 0.444</text>
<text text-anchor="start" x="355.5" y="-260.8" font-family="Helvetica,sans-Serif" font-size="14.00" fill="#000000">samples = 3</text>
<text text-anchor="start" x="346" y="-245.8" font-family="Helvetica,sans-Serif" font-size="14.00" fill="#000000">value = [0, 1, 2]</text>
<text text-anchor="start" x="332" y="-230.8" font-family="Helvetica,sans-Serif" font-size="14.00" fill="#000000">class = Iris_virginica</text>
</g>
<!-- 10&#45;&gt;11 -->
<g id="edge11" class="edge">
<title>10&#45;&gt;11</title>
<path fill="none" stroke="#000000" d="M393,-341.8796C393,-333.6838 393,-324.9891 393,-316.5013"/>
<polygon fill="#000000" stroke="#000000" points="396.5001,-316.298 393,-306.2981 389.5001,-316.2981 396.5001,-316.298"/>
</g>
<!-- 14 -->
<g id="node15" class="node">
<title>14</title>
<path fill="#8139e5" stroke="#000000" d="M606,-298.5C606,-298.5 492,-298.5 492,-298.5 486,-298.5 480,-292.5 480,-286.5 480,-286.5 480,-242.5 480,-242.5 480,-236.5 486,-230.5 492,-230.5 492,-230.5 606,-230.5 606,-230.5 612,-230.5 618,-236.5 618,-242.5 618,-242.5 618,-286.5 618,-286.5 618,-292.5 612,-298.5 606,-298.5"/>
<text text-anchor="start" x="521" y="-283.3" font-family="Helvetica,sans-Serif" font-size="14.00" fill="#000000">gini = 0.0</text>
<text text-anchor="start" x="508" y="-268.3" font-family="Helvetica,sans-Serif" font-size="14.00" fill="#000000">samples = 30</text>
<text text-anchor="start" x="498.5" y="-253.3" font-family="Helvetica,sans-Serif" font-size="14.00" fill="#000000">value = [0, 0, 30]</text>
<text text-anchor="start" x="488" y="-238.3" font-family="Helvetica,sans-Serif" font-size="14.00" fill="#000000">class = Iris_virginica</text>
</g>
<!-- 10&#45;&gt;14 -->
<g id="edge14" class="edge">
<title>10&#45;&gt;14</title>
<path fill="none" stroke="#000000" d="M447.5612,-341.8796C463.3484,-329.8368 480.5479,-316.7167 496.2241,-304.7586"/>
<polygon fill="#000000" stroke="#000000" points="498.4392,-307.4709 504.2673,-298.623 494.1937,-301.9053 498.4392,-307.4709"/>
</g>
<!-- 12 -->
<g id="node13" class="node">
<title>12</title>
<path fill="#8139e5" stroke="#000000" d="M450,-179.5C450,-179.5 336,-179.5 336,-179.5 330,-179.5 324,-173.5 324,-167.5 324,-167.5 324,-123.5 324,-123.5 324,-117.5 330,-111.5 336,-111.5 336,-111.5 450,-111.5 450,-111.5 456,-111.5 462,-117.5 462,-123.5 462,-123.5 462,-167.5 462,-167.5 462,-173.5 456,-179.5 450,-179.5"/>
<text text-anchor="start" x="365" y="-164.3" font-family="Helvetica,sans-Serif" font-size="14.00" fill="#000000">gini = 0.0</text>
<text text-anchor="start" x="355.5" y="-149.3" font-family="Helvetica,sans-Serif" font-size="14.00" fill="#000000">samples = 2</text>
<text text-anchor="start" x="346" y="-134.3" font-family="Helvetica,sans-Serif" font-size="14.00" fill="#000000">value = [0, 0, 2]</text>
<text text-anchor="start" x="332" y="-119.3" font-family="Helvetica,sans-Serif" font-size="14.00" fill="#000000">class = Iris_virginica</text>
</g>
<!-- 11&#45;&gt;12 -->
<g id="edge12" class="edge">
<title>11&#45;&gt;12</title>
<path fill="none" stroke="#000000" d="M393,-222.8796C393,-212.2134 393,-200.7021 393,-189.9015"/>
<polygon fill="#000000" stroke="#000000" points="396.5001,-189.8149 393,-179.8149 389.5001,-189.815 396.5001,-189.8149"/>
</g>
<!-- 13 -->
<g id="node14" class="node">
<title>13</title>
<path fill="#39e581" stroke="#000000" d="M614,-179.5C614,-179.5 492,-179.5 492,-179.5 486,-179.5 480,-173.5 480,-167.5 480,-167.5 480,-123.5 480,-123.5 480,-117.5 486,-111.5 492,-111.5 492,-111.5 614,-111.5 614,-111.5 620,-111.5 626,-117.5 626,-123.5 626,-123.5 626,-167.5 626,-167.5 626,-173.5 620,-179.5 614,-179.5"/>
<text text-anchor="start" x="525" y="-164.3" font-family="Helvetica,sans-Serif" font-size="14.00" fill="#000000">gini = 0.0</text>
<text text-anchor="start" x="515.5" y="-149.3" font-family="Helvetica,sans-Serif" font-size="14.00" fill="#000000">samples = 1</text>
<text text-anchor="start" x="506" y="-134.3" font-family="Helvetica,sans-Serif" font-size="14.00" fill="#000000">value = [0, 1, 0]</text>
<text text-anchor="start" x="488" y="-119.3" font-family="Helvetica,sans-Serif" font-size="14.00" fill="#000000">class = Iris_versicolor</text>
</g>
<!-- 11&#45;&gt;13 -->
<g id="edge13" class="edge">
<title>11&#45;&gt;13</title>
<path fill="none" stroke="#000000" d="M448.9602,-222.8796C465.1522,-210.8368 482.7927,-197.7167 498.8708,-185.7586"/>
<polygon fill="#000000" stroke="#000000" points="501.185,-188.3993 507.1203,-179.623 497.0075,-182.7825 501.185,-188.3993"/>
</g>
</g>
</svg>
