<?xml version="1.0" encoding="UTF-8" standalone="no"?>
<!DOCTYPE svg PUBLIC "-//W3C//DTD SVG 1.1//EN"
 "http://www.w3.org/Graphics/SVG/1.1/DTD/svg11.dtd">
<!-- Generated by graphviz version 2.40.1 (20161225.0304)
 -->
<!-- Title: Tree Pages: 1 -->
<svg width="610pt" height="671pt"
 viewBox="0.00 0.00 610.00 671.00" xmlns="http://www.w3.org/2000/svg" xmlns:xlink="http://www.w3.org/1999/xlink">
<g id="graph0" class="graph" transform="scale(1 1) rotate(0) translate(4 667)">
<title>Tree</title>
<polygon fill="#ffffff" stroke="transparent" points="-4,4 -4,-667 606,-667 606,4 -4,4"/>
<!-- 0 -->
<g id="node1" class="node">
<title>0</title>
<path fill="#bbddf6" stroke="#000000" d="M405,-663C405,-663 278,-663 278,-663 272,-663 266,-657 266,-651 266,-651 266,-592 266,-592 266,-586 272,-580 278,-580 278,-580 405,-580 405,-580 411,-580 417,-586 417,-592 417,-592 417,-651 417,-651 417,-657 411,-663 405,-663"/>
<text text-anchor="start" x="274" y="-647.8" font-family="Helvetica,sans-Serif" font-size="14.00" fill="#000000">pension_none ≤ 0.704</text>
<text text-anchor="start" x="306" y="-632.8" font-family="Helvetica,sans-Serif" font-size="14.00" fill="#000000">gini = 0.478</text>
<text text-anchor="start" x="300.5" y="-617.8" font-family="Helvetica,sans-Serif" font-size="14.00" fill="#000000">samples = 48</text>
<text text-anchor="start" x="294.5" y="-602.8" font-family="Helvetica,sans-Serif" font-size="14.00" fill="#000000">value = [19, 29]</text>
<text text-anchor="start" x="303" y="-587.8" font-family="Helvetica,sans-Serif" font-size="14.00" fill="#000000">class = good</text>
</g>
<!-- 1 -->
<g id="node2" class="node">
<title>1</title>
<path fill="#70b8ec" stroke="#000000" d="M337,-544C337,-544 194,-544 194,-544 188,-544 182,-538 182,-532 182,-532 182,-473 182,-473 182,-467 188,-461 194,-461 194,-461 337,-461 337,-461 343,-461 349,-467 349,-473 349,-473 349,-532 349,-532 349,-538 343,-544 337,-544"/>
<text text-anchor="start" x="190" y="-528.8" font-family="Helvetica,sans-Serif" font-size="14.00" fill="#000000">statutory_holidays ≤ 10.5</text>
<text text-anchor="start" x="230" y="-513.8" font-family="Helvetica,sans-Serif" font-size="14.00" fill="#000000">gini = 0.339</text>
<text text-anchor="start" x="224.5" y="-498.8" font-family="Helvetica,sans-Serif" font-size="14.00" fill="#000000">samples = 37</text>
<text text-anchor="start" x="222.5" y="-483.8" font-family="Helvetica,sans-Serif" font-size="14.00" fill="#000000">value = [8, 29]</text>
<text text-anchor="start" x="227" y="-468.8" font-family="Helvetica,sans-Serif" font-size="14.00" fill="#000000">class = good</text>
</g>
<!-- 0&#45;&gt;1 -->
<g id="edge1" class="edge">
<title>0&#45;&gt;1</title>
<path fill="none" stroke="#000000" d="M314.9189,-579.8796C309.3395,-571.1434 303.3981,-561.8404 297.6405,-552.8253"/>
<polygon fill="#000000" stroke="#000000" points="300.5269,-550.8421 292.1946,-544.2981 294.6274,-554.6098 300.5269,-550.8421"/>
<text text-anchor="middle" x="286.8111" y="-565.0116" font-family="Helvetica,sans-Serif" font-size="14.00" fill="#000000">True</text>
</g>
<!-- 12 -->
<g id="node13" class="node">
<title>12</title>
<path fill="#e58139" stroke="#000000" d="M456.5,-536.5C456.5,-536.5 378.5,-536.5 378.5,-536.5 372.5,-536.5 366.5,-530.5 366.5,-524.5 366.5,-524.5 366.5,-480.5 366.5,-480.5 366.5,-474.5 372.5,-468.5 378.5,-468.5 378.5,-468.5 456.5,-468.5 456.5,-468.5 462.5,-468.5 468.5,-474.5 468.5,-480.5 468.5,-480.5 468.5,-524.5 468.5,-524.5 468.5,-530.5 462.5,-536.5 456.5,-536.5"/>
<text text-anchor="start" x="389.5" y="-521.3" font-family="Helvetica,sans-Serif" font-size="14.00" fill="#000000">gini = 0.0</text>
<text text-anchor="start" x="376.5" y="-506.3" font-family="Helvetica,sans-Serif" font-size="14.00" fill="#000000">samples = 11</text>
<text text-anchor="start" x="374.5" y="-491.3" font-family="Helvetica,sans-Serif" font-size="14.00" fill="#000000">value = [11, 0]</text>
<text text-anchor="start" x="382.5" y="-476.3" font-family="Helvetica,sans-Serif" font-size="14.00" fill="#000000">class = bad</text>
</g>
<!-- 0&#45;&gt;12 -->
<g id="edge12" class="edge">
<title>0&#45;&gt;12</title>
<path fill="none" stroke="#000000" d="M368.0811,-579.8796C375.174,-568.7735 382.8521,-556.7513 389.9937,-545.5691"/>
<polygon fill="#000000" stroke="#000000" points="393.1518,-547.1267 395.5846,-536.8149 387.2523,-543.3589 393.1518,-547.1267"/>
<text text-anchor="middle" x="400.9681" y="-557.5284" font-family="Helvetica,sans-Serif" font-size="14.00" fill="#000000">False</text>
</g>
<!-- 2 -->
<g id="node3" class="node">
<title>2</title>
<path fill="#eeab7b" stroke="#000000" d="M239.5,-425C239.5,-425 51.5,-425 51.5,-425 45.5,-425 39.5,-419 39.5,-413 39.5,-413 39.5,-354 39.5,-354 39.5,-348 45.5,-342 51.5,-342 51.5,-342 239.5,-342 239.5,-342 245.5,-342 251.5,-348 251.5,-354 251.5,-354 251.5,-413 251.5,-413 251.5,-419 245.5,-425 239.5,-425"/>
<text text-anchor="start" x="47.5" y="-409.8" font-family="Helvetica,sans-Serif" font-size="14.00" fill="#000000">wage_increase_first_year ≤ 5.25</text>
<text text-anchor="start" x="110" y="-394.8" font-family="Helvetica,sans-Serif" font-size="14.00" fill="#000000">gini = 0.375</text>
<text text-anchor="start" x="108" y="-379.8" font-family="Helvetica,sans-Serif" font-size="14.00" fill="#000000">samples = 8</text>
<text text-anchor="start" x="106" y="-364.8" font-family="Helvetica,sans-Serif" font-size="14.00" fill="#000000">value = [6, 2]</text>
<text text-anchor="start" x="110.5" y="-349.8" font-family="Helvetica,sans-Serif" font-size="14.00" fill="#000000">class = bad</text>
</g>
<!-- 1&#45;&gt;2 -->
<g id="edge2" class="edge">
<title>1&#45;&gt;2</title>
<path fill="none" stroke="#000000" d="M223.5298,-460.8796C214.2662,-451.6931 204.3704,-441.8798 194.8448,-432.4336"/>
<polygon fill="#000000" stroke="#000000" points="197.2144,-429.8543 187.6493,-425.2981 192.2854,-434.8247 197.2144,-429.8543"/>
</g>
<!-- 5 -->
<g id="node6" class="node">
<title>5</title>
<path fill="#48a4e7" stroke="#000000" d="M489.5,-425C489.5,-425 281.5,-425 281.5,-425 275.5,-425 269.5,-419 269.5,-413 269.5,-413 269.5,-354 269.5,-354 269.5,-348 275.5,-342 281.5,-342 281.5,-342 489.5,-342 489.5,-342 495.5,-342 501.5,-348 501.5,-354 501.5,-354 501.5,-413 501.5,-413 501.5,-419 495.5,-425 489.5,-425"/>
<text text-anchor="start" x="277.5" y="-409.8" font-family="Helvetica,sans-Serif" font-size="14.00" fill="#000000">no_bereavement_assistance ≤ 0.55</text>
<text text-anchor="start" x="350" y="-394.8" font-family="Helvetica,sans-Serif" font-size="14.00" fill="#000000">gini = 0.128</text>
<text text-anchor="start" x="344.5" y="-379.8" font-family="Helvetica,sans-Serif" font-size="14.00" fill="#000000">samples = 29</text>
<text text-anchor="start" x="342.5" y="-364.8" font-family="Helvetica,sans-Serif" font-size="14.00" fill="#000000">value = [2, 27]</text>
<text text-anchor="start" x="347" y="-349.8" font-family="Helvetica,sans-Serif" font-size="14.00" fill="#000000">class = good</text>
</g>
<!-- 1&#45;&gt;5 -->
<g id="edge5" class="edge">
<title>1&#45;&gt;5</title>
<path fill="none" stroke="#000000" d="M307.4702,-460.8796C316.7338,-451.6931 326.6296,-441.8798 336.1552,-432.4336"/>
<polygon fill="#000000" stroke="#000000" points="338.7146,-434.8247 343.3507,-425.2981 333.7856,-429.8543 338.7146,-434.8247"/>
</g>
<!-- 3 -->
<g id="node4" class="node">
<title>3</title>
<path fill="#e58139" stroke="#000000" d="M83,-298.5C83,-298.5 12,-298.5 12,-298.5 6,-298.5 0,-292.5 0,-286.5 0,-286.5 0,-242.5 0,-242.5 0,-236.5 6,-230.5 12,-230.5 12,-230.5 83,-230.5 83,-230.5 89,-230.5 95,-236.5 95,-242.5 95,-242.5 95,-286.5 95,-286.5 95,-292.5 89,-298.5 83,-298.5"/>
<text text-anchor="start" x="19.5" y="-283.3" font-family="Helvetica,sans-Serif" font-size="14.00" fill="#000000">gini = 0.0</text>
<text text-anchor="start" x="10" y="-268.3" font-family="Helvetica,sans-Serif" font-size="14.00" fill="#000000">samples = 6</text>
<text text-anchor="start" x="8" y="-253.3" font-family="Helvetica,sans-Serif" font-size="14.00" fill="#000000">value = [6, 0]</text>
<text text-anchor="start" x="12.5" y="-238.3" font-family="Helvetica,sans-Serif" font-size="14.00" fill="#000000">class = bad</text>
</g>
<!-- 2&#45;&gt;3 -->
<g id="edge3" class="edge">
<title>2&#45;&gt;3</title>
<path fill="none" stroke="#000000" d="M111.2244,-341.8796C101.8065,-330.4436 91.5887,-318.0363 82.15,-306.575"/>
<polygon fill="#000000" stroke="#000000" points="84.8182,-304.3093 75.7594,-298.8149 79.4147,-308.7592 84.8182,-304.3093"/>
</g>
<!-- 4 -->
<g id="node5" class="node">
<title>4</title>
<path fill="#399de5" stroke="#000000" d="M196,-298.5C196,-298.5 125,-298.5 125,-298.5 119,-298.5 113,-292.5 113,-286.5 113,-286.5 113,-242.5 113,-242.5 113,-236.5 119,-230.5 125,-230.5 125,-230.5 196,-230.5 196,-230.5 202,-230.5 208,-236.5 208,-242.5 208,-242.5 208,-286.5 208,-286.5 208,-292.5 202,-298.5 196,-298.5"/>
<text text-anchor="start" x="132.5" y="-283.3" font-family="Helvetica,sans-Serif" font-size="14.00" fill="#000000">gini = 0.0</text>
<text text-anchor="start" x="123" y="-268.3" font-family="Helvetica,sans-Serif" font-size="14.00" fill="#000000">samples = 2</text>
<text text-anchor="start" x="121" y="-253.3" font-family="Helvetica,sans-Serif" font-size="14.00" fill="#000000">value = [0, 2]</text>
<text text-anchor="start" x="122" y="-238.3" font-family="Helvetica,sans-Serif" font-size="14.00" fill="#000000">class = good</text>
</g>
<!-- 2&#45;&gt;4 -->
<g id="edge4" class="edge">
<title>2&#45;&gt;4</title>
<path fill="none" stroke="#000000" d="M150.7463,-341.8796C152.0908,-331.2134 153.5418,-319.7021 154.9032,-308.9015"/>
<polygon fill="#000000" stroke="#000000" points="158.3964,-309.1742 156.1746,-298.8149 151.4514,-308.2987 158.3964,-309.1742"/>
</g>
<!-- 6 -->
<g id="node7" class="node">
<title>6</title>
<path fill="#40a1e6" stroke="#000000" d="M476.5,-306C476.5,-306 266.5,-306 266.5,-306 260.5,-306 254.5,-300 254.5,-294 254.5,-294 254.5,-235 254.5,-235 254.5,-229 260.5,-223 266.5,-223 266.5,-223 476.5,-223 476.5,-223 482.5,-223 488.5,-229 488.5,-235 488.5,-235 488.5,-294 488.5,-294 488.5,-300 482.5,-306 476.5,-306"/>
<text text-anchor="start" x="262.5" y="-290.8" font-family="Helvetica,sans-Serif" font-size="14.00" fill="#000000">wage_increase_second_year ≤ 2.75</text>
<text text-anchor="start" x="336" y="-275.8" font-family="Helvetica,sans-Serif" font-size="14.00" fill="#000000">gini = 0.069</text>
<text text-anchor="start" x="330.5" y="-260.8" font-family="Helvetica,sans-Serif" font-size="14.00" fill="#000000">samples = 28</text>
<text text-anchor="start" x="328.5" y="-245.8" font-family="Helvetica,sans-Serif" font-size="14.00" fill="#000000">value = [1, 27]</text>
<text text-anchor="start" x="333" y="-230.8" font-family="Helvetica,sans-Serif" font-size="14.00" fill="#000000">class = good</text>
</g>
<!-- 5&#45;&gt;6 -->
<g id="edge6" class="edge">
<title>5&#45;&gt;6</title>
<path fill="none" stroke="#000000" d="M380.6035,-341.8796C379.6393,-333.6838 378.6164,-324.9891 377.6178,-316.5013"/>
<polygon fill="#000000" stroke="#000000" points="381.0619,-315.8206 376.4174,-306.2981 374.1099,-316.6386 381.0619,-315.8206"/>
</g>
<!-- 11 -->
<g id="node12" class="node">
<title>11</title>
<path fill="#e58139" stroke="#000000" d="M590,-298.5C590,-298.5 519,-298.5 519,-298.5 513,-298.5 507,-292.5 507,-286.5 507,-286.5 507,-242.5 507,-242.5 507,-236.5 513,-230.5 519,-230.5 519,-230.5 590,-230.5 590,-230.5 596,-230.5 602,-236.5 602,-242.5 602,-242.5 602,-286.5 602,-286.5 602,-292.5 596,-298.5 590,-298.5"/>
<text text-anchor="start" x="526.5" y="-283.3" font-family="Helvetica,sans-Serif" font-size="14.00" fill="#000000">gini = 0.0</text>
<text text-anchor="start" x="517" y="-268.3" font-family="Helvetica,sans-Serif" font-size="14.00" fill="#000000">samples = 1</text>
<text text-anchor="start" x="515" y="-253.3" font-family="Helvetica,sans-Serif" font-size="14.00" fill="#000000">value = [1, 0]</text>
<text text-anchor="start" x="519.5" y="-238.3" font-family="Helvetica,sans-Serif" font-size="14.00" fill="#000000">class = bad</text>
</g>
<!-- 5&#45;&gt;11 -->
<g id="edge11" class="edge">
<title>5&#45;&gt;11</title>
<path fill="none" stroke="#000000" d="M446.1362,-341.9346C462.8372,-330.3796 480.9179,-317.7711 497.5,-306 498.2424,-305.473 498.9897,-304.9416 499.7412,-304.4065"/>
<polygon fill="#000000" stroke="#000000" points="501.8106,-307.2295 507.9057,-298.5634 497.7367,-301.5371 501.8106,-307.2295"/>
</g>
<!-- 7 -->
<g id="node8" class="node">
<title>7</title>
<path fill="#ffffff" stroke="#000000" d="M382.5,-187C382.5,-187 174.5,-187 174.5,-187 168.5,-187 162.5,-181 162.5,-175 162.5,-175 162.5,-116 162.5,-116 162.5,-110 168.5,-104 174.5,-104 174.5,-104 382.5,-104 382.5,-104 388.5,-104 394.5,-110 394.5,-116 394.5,-116 394.5,-175 394.5,-175 394.5,-181 388.5,-187 382.5,-187"/>
<text text-anchor="start" x="170.5" y="-171.8" font-family="Helvetica,sans-Serif" font-size="14.00" fill="#000000">no_bereavement_assistance ≤ 0.05</text>
<text text-anchor="start" x="250.5" y="-156.8" font-family="Helvetica,sans-Serif" font-size="14.00" fill="#000000">gini = 0.5</text>
<text text-anchor="start" x="241" y="-141.8" font-family="Helvetica,sans-Serif" font-size="14.00" fill="#000000">samples = 2</text>
<text text-anchor="start" x="239" y="-126.8" font-family="Helvetica,sans-Serif" font-size="14.00" fill="#000000">value = [1, 1]</text>
<text text-anchor="start" x="243.5" y="-111.8" font-family="Helvetica,sans-Serif" font-size="14.00" fill="#000000">class = bad</text>
</g>
<!-- 6&#45;&gt;7 -->
<g id="edge7" class="edge">
<title>6&#45;&gt;7</title>
<path fill="none" stroke="#000000" d="M338.9731,-222.8796C332.0049,-213.9633 324.5753,-204.4565 317.3944,-195.268"/>
<polygon fill="#000000" stroke="#000000" points="320.0812,-193.0221 311.1657,-187.2981 314.5657,-197.3326 320.0812,-193.0221"/>
</g>
<!-- 10 -->
<g id="node11" class="node">
<title>10</title>
<path fill="#399de5" stroke="#000000" d="M502.5,-179.5C502.5,-179.5 424.5,-179.5 424.5,-179.5 418.5,-179.5 412.5,-173.5 412.5,-167.5 412.5,-167.5 412.5,-123.5 412.5,-123.5 412.5,-117.5 418.5,-111.5 424.5,-111.5 424.5,-111.5 502.5,-111.5 502.5,-111.5 508.5,-111.5 514.5,-117.5 514.5,-123.5 514.5,-123.5 514.5,-167.5 514.5,-167.5 514.5,-173.5 508.5,-179.5 502.5,-179.5"/>
<text text-anchor="start" x="435.5" y="-164.3" font-family="Helvetica,sans-Serif" font-size="14.00" fill="#000000">gini = 0.0</text>
<text text-anchor="start" x="422.5" y="-149.3" font-family="Helvetica,sans-Serif" font-size="14.00" fill="#000000">samples = 26</text>
<text text-anchor="start" x="420.5" y="-134.3" font-family="Helvetica,sans-Serif" font-size="14.00" fill="#000000">value = [0, 26]</text>
<text text-anchor="start" x="425" y="-119.3" font-family="Helvetica,sans-Serif" font-size="14.00" fill="#000000">class = good</text>
</g>
<!-- 6&#45;&gt;10 -->
<g id="edge10" class="edge">
<title>6&#45;&gt;10</title>
<path fill="none" stroke="#000000" d="M403.6771,-222.8796C412.4333,-211.5536 421.9262,-199.2748 430.7156,-187.9058"/>
<polygon fill="#000000" stroke="#000000" points="433.6234,-189.8671 436.9708,-179.8149 428.0854,-185.5856 433.6234,-189.8671"/>
</g>
<!-- 8 -->
<g id="node9" class="node">
<title>8</title>
<path fill="#e58139" stroke="#000000" d="M258,-68C258,-68 187,-68 187,-68 181,-68 175,-62 175,-56 175,-56 175,-12 175,-12 175,-6 181,0 187,0 187,0 258,0 258,0 264,0 270,-6 270,-12 270,-12 270,-56 270,-56 270,-62 264,-68 258,-68"/>
<text text-anchor="start" x="194.5" y="-52.8" font-family="Helvetica,sans-Serif" font-size="14.00" fill="#000000">gini = 0.0</text>
<text text-anchor="start" x="185" y="-37.8" font-family="Helvetica,sans-Serif" font-size="14.00" fill="#000000">samples = 1</text>
<text text-anchor="start" x="183" y="-22.8" font-family="Helvetica,sans-Serif" font-size="14.00" fill="#000000">value = [1, 0]</text>
<text text-anchor="start" x="187.5" y="-7.8" font-family="Helvetica,sans-Serif" font-size="14.00" fill="#000000">class = bad</text>
</g>
<!-- 7&#45;&gt;8 -->
<g id="edge8" class="edge">
<title>7&#45;&gt;8</title>
<path fill="none" stroke="#000000" d="M257.6477,-103.9815C253.2625,-95.2504 248.6267,-86.0202 244.211,-77.2281"/>
<polygon fill="#000000" stroke="#000000" points="247.3246,-75.6291 239.7087,-68.2637 241.0692,-78.7708 247.3246,-75.6291"/>
</g>
<!-- 9 -->
<g id="node10" class="node">
<title>9</title>
<path fill="#399de5" stroke="#000000" d="M371,-68C371,-68 300,-68 300,-68 294,-68 288,-62 288,-56 288,-56 288,-12 288,-12 288,-6 294,0 300,0 300,0 371,0 371,0 377,0 383,-6 383,-12 383,-12 383,-56 383,-56 383,-62 377,-68 371,-68"/>
<text text-anchor="start" x="307.5" y="-52.8" font-family="Helvetica,sans-Serif" font-size="14.00" fill="#000000">gini = 0.0</text>
<text text-anchor="start" x="298" y="-37.8" font-family="Helvetica,sans-Serif" font-size="14.00" fill="#000000">samples = 1</text>
<text text-anchor="start" x="296" y="-22.8" font-family="Helvetica,sans-Serif" font-size="14.00" fill="#000000">value = [0, 1]</text>
<text text-anchor="start" x="297" y="-7.8" font-family="Helvetica,sans-Serif" font-size="14.00" fill="#000000">class = good</text>
</g>
<!-- 7&#45;&gt;9 -->
<g id="edge9" class="edge">
<title>7&#45;&gt;9</title>
<path fill="none" stroke="#000000" d="M299.7247,-103.9815C304.1881,-95.2504 308.9067,-86.0202 313.4013,-77.2281"/>
<polygon fill="#000000" stroke="#000000" points="316.5486,-78.7608 317.984,-68.2637 310.3158,-75.5745 316.5486,-78.7608"/>
</g>
</g>
</svg>
