<?xml version="1.0" encoding="UTF-8" standalone="no"?>
<!DOCTYPE svg PUBLIC "-//W3C//DTD SVG 1.1//EN"
 "http://www.w3.org/Graphics/SVG/1.1/DTD/svg11.dtd">
<!-- Generated by graphviz version 2.40.1 (20161225.0304)
 -->
<!-- Title: Tree Pages: 1 -->
<svg width="1453pt" height="909pt"
 viewBox="0.00 0.00 1452.50 909.00" xmlns="http://www.w3.org/2000/svg" xmlns:xlink="http://www.w3.org/1999/xlink">
<g id="graph0" class="graph" transform="scale(1 1) rotate(0) translate(4 905)">
<title>Tree</title>
<polygon fill="#ffffff" stroke="transparent" points="-4,4 -4,-905 1448.5,-905 1448.5,4 -4,4"/>
<!-- 0 -->
<g id="node1" class="node">
<title>0</title>
<path fill="#f4c9aa" stroke="#000000" d="M444,-901C444,-901 274,-901 274,-901 268,-901 262,-895 262,-889 262,-889 262,-830 262,-830 262,-824 268,-818 274,-818 274,-818 444,-818 444,-818 450,-818 456,-824 456,-830 456,-830 456,-889 456,-889 456,-895 450,-901 444,-901"/>
<text text-anchor="start" x="270" y="-885.8" font-family="Helvetica,sans-Serif" font-size="14.00" fill="#000000">physician_fee_freeze ≤ 0.709</text>
<text text-anchor="start" x="323.5" y="-870.8" font-family="Helvetica,sans-Serif" font-size="14.00" fill="#000000">gini = 0.463</text>
<text text-anchor="start" x="314" y="-855.8" font-family="Helvetica,sans-Serif" font-size="14.00" fill="#000000">samples = 308</text>
<text text-anchor="start" x="304.5" y="-840.8" font-family="Helvetica,sans-Serif" font-size="14.00" fill="#000000">value = [196, 112]</text>
<text text-anchor="start" x="307" y="-825.8" font-family="Helvetica,sans-Serif" font-size="14.00" fill="#000000">class = democrat</text>
</g>
<!-- 1 -->
<g id="node2" class="node">
<title>1</title>
<path fill="#e5823a" stroke="#000000" d="M319,-782C319,-782 149,-782 149,-782 143,-782 137,-776 137,-770 137,-770 137,-711 137,-711 137,-705 143,-699 149,-699 149,-699 319,-699 319,-699 325,-699 331,-705 331,-711 331,-711 331,-770 331,-770 331,-776 325,-782 319,-782"/>
<text text-anchor="start" x="145" y="-766.8" font-family="Helvetica,sans-Serif" font-size="14.00" fill="#000000">physician_fee_freeze ≤ 0.209</text>
<text text-anchor="start" x="198.5" y="-751.8" font-family="Helvetica,sans-Serif" font-size="14.00" fill="#000000">gini = 0.011</text>
<text text-anchor="start" x="189" y="-736.8" font-family="Helvetica,sans-Serif" font-size="14.00" fill="#000000">samples = 187</text>
<text text-anchor="start" x="187" y="-721.8" font-family="Helvetica,sans-Serif" font-size="14.00" fill="#000000">value = [186, 1]</text>
<text text-anchor="start" x="182" y="-706.8" font-family="Helvetica,sans-Serif" font-size="14.00" fill="#000000">class = democrat</text>
</g>
<!-- 0&#45;&gt;1 -->
<g id="edge1" class="edge">
<title>0&#45;&gt;1</title>
<path fill="none" stroke="#000000" d="M315.2811,-817.8796C305.6314,-808.6931 295.3234,-798.8798 285.4009,-789.4336"/>
<polygon fill="#000000" stroke="#000000" points="287.5616,-786.6582 277.9055,-782.2981 282.735,-791.7282 287.5616,-786.6582"/>
<text text-anchor="middle" x="278.5201" y="-803.5905" font-family="Helvetica,sans-Serif" font-size="14.00" fill="#000000">True</text>
</g>
<!-- 8 -->
<g id="node9" class="node">
<title>8</title>
<path fill="#4ba6e7" stroke="#000000" d="M673.5,-782C673.5,-782 452.5,-782 452.5,-782 446.5,-782 440.5,-776 440.5,-770 440.5,-770 440.5,-711 440.5,-711 440.5,-705 446.5,-699 452.5,-699 452.5,-699 673.5,-699 673.5,-699 679.5,-699 685.5,-705 685.5,-711 685.5,-711 685.5,-770 685.5,-770 685.5,-776 679.5,-782 673.5,-782"/>
<text text-anchor="start" x="448.5" y="-766.8" font-family="Helvetica,sans-Serif" font-size="14.00" fill="#000000">synfuels_corporation_cutback ≤ 0.681</text>
<text text-anchor="start" x="527.5" y="-751.8" font-family="Helvetica,sans-Serif" font-size="14.00" fill="#000000">gini = 0.152</text>
<text text-anchor="start" x="518" y="-736.8" font-family="Helvetica,sans-Serif" font-size="14.00" fill="#000000">samples = 121</text>
<text text-anchor="start" x="512.5" y="-721.8" font-family="Helvetica,sans-Serif" font-size="14.00" fill="#000000">value = [10, 111]</text>
<text text-anchor="start" x="508.5" y="-706.8" font-family="Helvetica,sans-Serif" font-size="14.00" fill="#000000">class = republican</text>
</g>
<!-- 0&#45;&gt;8 -->
<g id="edge8" class="edge">
<title>0&#45;&gt;8</title>
<path fill="none" stroke="#000000" d="M430.3493,-817.8796C447.2761,-808.0056 465.4444,-797.4075 482.7383,-787.3193"/>
<polygon fill="#000000" stroke="#000000" points="484.8167,-790.1589 491.691,-782.0969 481.2896,-784.1125 484.8167,-790.1589"/>
<text text-anchor="middle" x="485.3287" y="-802.5738" font-family="Helvetica,sans-Serif" font-size="14.00" fill="#000000">False</text>
</g>
<!-- 2 -->
<g id="node3" class="node">
<title>2</title>
<path fill="#e58139" stroke="#000000" d="M110,-655.5C110,-655.5 14,-655.5 14,-655.5 8,-655.5 2,-649.5 2,-643.5 2,-643.5 2,-599.5 2,-599.5 2,-593.5 8,-587.5 14,-587.5 14,-587.5 110,-587.5 110,-587.5 116,-587.5 122,-593.5 122,-599.5 122,-599.5 122,-643.5 122,-643.5 122,-649.5 116,-655.5 110,-655.5"/>
<text text-anchor="start" x="34" y="-640.3" font-family="Helvetica,sans-Serif" font-size="14.00" fill="#000000">gini = 0.0</text>
<text text-anchor="start" x="17" y="-625.3" font-family="Helvetica,sans-Serif" font-size="14.00" fill="#000000">samples = 179</text>
<text text-anchor="start" x="15" y="-610.3" font-family="Helvetica,sans-Serif" font-size="14.00" fill="#000000">value = [179, 0]</text>
<text text-anchor="start" x="10" y="-595.3" font-family="Helvetica,sans-Serif" font-size="14.00" fill="#000000">class = democrat</text>
</g>
<!-- 1&#45;&gt;2 -->
<g id="edge2" class="edge">
<title>1&#45;&gt;2</title>
<path fill="none" stroke="#000000" d="M173.8427,-698.8796C156.2766,-686.7263 137.1248,-673.4759 119.7136,-661.4297"/>
<polygon fill="#000000" stroke="#000000" points="121.5357,-658.4344 111.3207,-655.623 117.553,-664.191 121.5357,-658.4344"/>
</g>
<!-- 3 -->
<g id="node4" class="node">
<title>3</title>
<path fill="#e99355" stroke="#000000" d="M315.5,-663C315.5,-663 152.5,-663 152.5,-663 146.5,-663 140.5,-657 140.5,-651 140.5,-651 140.5,-592 140.5,-592 140.5,-586 146.5,-580 152.5,-580 152.5,-580 315.5,-580 315.5,-580 321.5,-580 327.5,-586 327.5,-592 327.5,-592 327.5,-651 327.5,-651 327.5,-657 321.5,-663 315.5,-663"/>
<text text-anchor="start" x="148.5" y="-647.8" font-family="Helvetica,sans-Serif" font-size="14.00" fill="#000000">education_spending ≤ 0.212</text>
<text text-anchor="start" x="198.5" y="-632.8" font-family="Helvetica,sans-Serif" font-size="14.00" fill="#000000">gini = 0.219</text>
<text text-anchor="start" x="196.5" y="-617.8" font-family="Helvetica,sans-Serif" font-size="14.00" fill="#000000">samples = 8</text>
<text text-anchor="start" x="194.5" y="-602.8" font-family="Helvetica,sans-Serif" font-size="14.00" fill="#000000">value = [7, 1]</text>
<text text-anchor="start" x="182" y="-587.8" font-family="Helvetica,sans-Serif" font-size="14.00" fill="#000000">class = democrat</text>
</g>
<!-- 1&#45;&gt;3 -->
<g id="edge3" class="edge">
<title>1&#45;&gt;3</title>
<path fill="none" stroke="#000000" d="M234,-698.8796C234,-690.6838 234,-681.9891 234,-673.5013"/>
<polygon fill="#000000" stroke="#000000" points="237.5001,-673.298 234,-663.2981 230.5001,-673.2981 237.5001,-673.298"/>
</g>
<!-- 4 -->
<g id="node5" class="node">
<title>4</title>
<path fill="#e58139" stroke="#000000" d="M108,-536.5C108,-536.5 12,-536.5 12,-536.5 6,-536.5 0,-530.5 0,-524.5 0,-524.5 0,-480.5 0,-480.5 0,-474.5 6,-468.5 12,-468.5 12,-468.5 108,-468.5 108,-468.5 114,-468.5 120,-474.5 120,-480.5 120,-480.5 120,-524.5 120,-524.5 120,-530.5 114,-536.5 108,-536.5"/>
<text text-anchor="start" x="32" y="-521.3" font-family="Helvetica,sans-Serif" font-size="14.00" fill="#000000">gini = 0.0</text>
<text text-anchor="start" x="22.5" y="-506.3" font-family="Helvetica,sans-Serif" font-size="14.00" fill="#000000">samples = 5</text>
<text text-anchor="start" x="20.5" y="-491.3" font-family="Helvetica,sans-Serif" font-size="14.00" fill="#000000">value = [5, 0]</text>
<text text-anchor="start" x="8" y="-476.3" font-family="Helvetica,sans-Serif" font-size="14.00" fill="#000000">class = democrat</text>
</g>
<!-- 3&#45;&gt;4 -->
<g id="edge4" class="edge">
<title>3&#45;&gt;4</title>
<path fill="none" stroke="#000000" d="M173.1432,-579.8796C155.3729,-567.7263 135.9983,-554.4759 118.3847,-542.4297"/>
<polygon fill="#000000" stroke="#000000" points="120.1243,-539.3792 109.8942,-536.623 116.1726,-545.1572 120.1243,-539.3792"/>
</g>
<!-- 5 -->
<g id="node6" class="node">
<title>5</title>
<path fill="#f2c09c" stroke="#000000" d="M317.5,-544C317.5,-544 150.5,-544 150.5,-544 144.5,-544 138.5,-538 138.5,-532 138.5,-532 138.5,-473 138.5,-473 138.5,-467 144.5,-461 150.5,-461 150.5,-461 317.5,-461 317.5,-461 323.5,-461 329.5,-467 329.5,-473 329.5,-473 329.5,-532 329.5,-532 329.5,-538 323.5,-544 317.5,-544"/>
<text text-anchor="start" x="146.5" y="-528.8" font-family="Helvetica,sans-Serif" font-size="14.00" fill="#000000">handicapped_infants ≤ 0.221</text>
<text text-anchor="start" x="198.5" y="-513.8" font-family="Helvetica,sans-Serif" font-size="14.00" fill="#000000">gini = 0.444</text>
<text text-anchor="start" x="196.5" y="-498.8" font-family="Helvetica,sans-Serif" font-size="14.00" fill="#000000">samples = 3</text>
<text text-anchor="start" x="194.5" y="-483.8" font-family="Helvetica,sans-Serif" font-size="14.00" fill="#000000">value = [2, 1]</text>
<text text-anchor="start" x="182" y="-468.8" font-family="Helvetica,sans-Serif" font-size="14.00" fill="#000000">class = democrat</text>
</g>
<!-- 3&#45;&gt;5 -->
<g id="edge5" class="edge">
<title>3&#45;&gt;5</title>
<path fill="none" stroke="#000000" d="M234,-579.8796C234,-571.6838 234,-562.9891 234,-554.5013"/>
<polygon fill="#000000" stroke="#000000" points="237.5001,-554.298 234,-544.2981 230.5001,-554.2981 237.5001,-554.298"/>
</g>
<!-- 6 -->
<g id="node7" class="node">
<title>6</title>
<path fill="#399de5" stroke="#000000" d="M175.5,-417.5C175.5,-417.5 74.5,-417.5 74.5,-417.5 68.5,-417.5 62.5,-411.5 62.5,-405.5 62.5,-405.5 62.5,-361.5 62.5,-361.5 62.5,-355.5 68.5,-349.5 74.5,-349.5 74.5,-349.5 175.5,-349.5 175.5,-349.5 181.5,-349.5 187.5,-355.5 187.5,-361.5 187.5,-361.5 187.5,-405.5 187.5,-405.5 187.5,-411.5 181.5,-417.5 175.5,-417.5"/>
<text text-anchor="start" x="97" y="-402.3" font-family="Helvetica,sans-Serif" font-size="14.00" fill="#000000">gini = 0.0</text>
<text text-anchor="start" x="87.5" y="-387.3" font-family="Helvetica,sans-Serif" font-size="14.00" fill="#000000">samples = 1</text>
<text text-anchor="start" x="85.5" y="-372.3" font-family="Helvetica,sans-Serif" font-size="14.00" fill="#000000">value = [0, 1]</text>
<text text-anchor="start" x="70.5" y="-357.3" font-family="Helvetica,sans-Serif" font-size="14.00" fill="#000000">class = republican</text>
</g>
<!-- 5&#45;&gt;6 -->
<g id="edge6" class="edge">
<title>5&#45;&gt;6</title>
<path fill="none" stroke="#000000" d="M195.8771,-460.8796C185.3014,-449.3337 173.8188,-436.7976 163.2367,-425.2446"/>
<polygon fill="#000000" stroke="#000000" points="165.7667,-422.825 156.4313,-417.8149 160.6049,-427.5531 165.7667,-422.825"/>
</g>
<!-- 7 -->
<g id="node8" class="node">
<title>7</title>
<path fill="#e58139" stroke="#000000" d="M314,-417.5C314,-417.5 218,-417.5 218,-417.5 212,-417.5 206,-411.5 206,-405.5 206,-405.5 206,-361.5 206,-361.5 206,-355.5 212,-349.5 218,-349.5 218,-349.5 314,-349.5 314,-349.5 320,-349.5 326,-355.5 326,-361.5 326,-361.5 326,-405.5 326,-405.5 326,-411.5 320,-417.5 314,-417.5"/>
<text text-anchor="start" x="238" y="-402.3" font-family="Helvetica,sans-Serif" font-size="14.00" fill="#000000">gini = 0.0</text>
<text text-anchor="start" x="228.5" y="-387.3" font-family="Helvetica,sans-Serif" font-size="14.00" fill="#000000">samples = 2</text>
<text text-anchor="start" x="226.5" y="-372.3" font-family="Helvetica,sans-Serif" font-size="14.00" fill="#000000">value = [2, 0]</text>
<text text-anchor="start" x="214" y="-357.3" font-family="Helvetica,sans-Serif" font-size="14.00" fill="#000000">class = democrat</text>
</g>
<!-- 5&#45;&gt;7 -->
<g id="edge7" class="edge">
<title>5&#45;&gt;7</title>
<path fill="none" stroke="#000000" d="M245.192,-460.8796C248.0898,-450.1034 251.2196,-438.4647 254.1499,-427.5677"/>
<polygon fill="#000000" stroke="#000000" points="257.5555,-428.3808 256.7725,-417.8149 250.7956,-426.563 257.5555,-428.3808"/>
</g>
<!-- 9 -->
<g id="node10" class="node">
<title>9</title>
<path fill="#3d9fe6" stroke="#000000" d="M690,-663C690,-663 436,-663 436,-663 430,-663 424,-657 424,-651 424,-651 424,-592 424,-592 424,-586 430,-580 436,-580 436,-580 690,-580 690,-580 696,-580 702,-586 702,-592 702,-592 702,-651 702,-651 702,-657 696,-663 690,-663"/>
<text text-anchor="start" x="432" y="-647.8" font-family="Helvetica,sans-Serif" font-size="14.00" fill="#000000">adoption_of_the_budget_resolution ≤ 0.798</text>
<text text-anchor="start" x="527.5" y="-632.8" font-family="Helvetica,sans-Serif" font-size="14.00" fill="#000000">gini = 0.039</text>
<text text-anchor="start" x="518" y="-617.8" font-family="Helvetica,sans-Serif" font-size="14.00" fill="#000000">samples = 101</text>
<text text-anchor="start" x="520" y="-602.8" font-family="Helvetica,sans-Serif" font-size="14.00" fill="#000000">value = [2, 99]</text>
<text text-anchor="start" x="508.5" y="-587.8" font-family="Helvetica,sans-Serif" font-size="14.00" fill="#000000">class = republican</text>
</g>
<!-- 8&#45;&gt;9 -->
<g id="edge9" class="edge">
<title>8&#45;&gt;9</title>
<path fill="none" stroke="#000000" d="M563,-698.8796C563,-690.6838 563,-681.9891 563,-673.5013"/>
<polygon fill="#000000" stroke="#000000" points="566.5001,-673.298 563,-663.2981 559.5001,-673.2981 566.5001,-673.298"/>
</g>
<!-- 16 -->
<g id="node17" class="node">
<title>16</title>
<path fill="#bddef6" stroke="#000000" d="M1085,-663C1085,-663 831,-663 831,-663 825,-663 819,-657 819,-651 819,-651 819,-592 819,-592 819,-586 825,-580 831,-580 831,-580 1085,-580 1085,-580 1091,-580 1097,-586 1097,-592 1097,-592 1097,-651 1097,-651 1097,-657 1091,-663 1085,-663"/>
<text text-anchor="start" x="827" y="-647.8" font-family="Helvetica,sans-Serif" font-size="14.00" fill="#000000">adoption_of_the_budget_resolution ≤ 0.298</text>
<text text-anchor="start" x="926" y="-632.8" font-family="Helvetica,sans-Serif" font-size="14.00" fill="#000000">gini = 0.48</text>
<text text-anchor="start" x="917" y="-617.8" font-family="Helvetica,sans-Serif" font-size="14.00" fill="#000000">samples = 20</text>
<text text-anchor="start" x="915" y="-602.8" font-family="Helvetica,sans-Serif" font-size="14.00" fill="#000000">value = [8, 12]</text>
<text text-anchor="start" x="903.5" y="-587.8" font-family="Helvetica,sans-Serif" font-size="14.00" fill="#000000">class = republican</text>
</g>
<!-- 8&#45;&gt;16 -->
<g id="edge16" class="edge">
<title>8&#45;&gt;16</title>
<path fill="none" stroke="#000000" d="M685.5452,-703.5813C724.9711,-691.7036 769.0762,-678.4163 810.1235,-666.0501"/>
<polygon fill="#000000" stroke="#000000" points="811.3674,-669.3309 819.9327,-663.095 809.3481,-662.6284 811.3674,-669.3309"/>
</g>
<!-- 10 -->
<g id="node11" class="node">
<title>10</title>
<path fill="#399de5" stroke="#000000" d="M460.5,-536.5C460.5,-536.5 359.5,-536.5 359.5,-536.5 353.5,-536.5 347.5,-530.5 347.5,-524.5 347.5,-524.5 347.5,-480.5 347.5,-480.5 347.5,-474.5 353.5,-468.5 359.5,-468.5 359.5,-468.5 460.5,-468.5 460.5,-468.5 466.5,-468.5 472.5,-474.5 472.5,-480.5 472.5,-480.5 472.5,-524.5 472.5,-524.5 472.5,-530.5 466.5,-536.5 460.5,-536.5"/>
<text text-anchor="start" x="382" y="-521.3" font-family="Helvetica,sans-Serif" font-size="14.00" fill="#000000">gini = 0.0</text>
<text text-anchor="start" x="369" y="-506.3" font-family="Helvetica,sans-Serif" font-size="14.00" fill="#000000">samples = 86</text>
<text text-anchor="start" x="367" y="-491.3" font-family="Helvetica,sans-Serif" font-size="14.00" fill="#000000">value = [0, 86]</text>
<text text-anchor="start" x="355.5" y="-476.3" font-family="Helvetica,sans-Serif" font-size="14.00" fill="#000000">class = republican</text>
</g>
<!-- 9&#45;&gt;10 -->
<g id="edge10" class="edge">
<title>9&#45;&gt;10</title>
<path fill="none" stroke="#000000" d="M509.488,-579.8796C494.2192,-568.0038 477.6034,-555.0804 462.4016,-543.2568"/>
<polygon fill="#000000" stroke="#000000" points="464.1616,-540.1916 454.1192,-536.8149 459.8639,-545.7171 464.1616,-540.1916"/>
</g>
<!-- 11 -->
<g id="node12" class="node">
<title>11</title>
<path fill="#57ace9" stroke="#000000" d="M781,-544C781,-544 503,-544 503,-544 497,-544 491,-538 491,-532 491,-532 491,-473 491,-473 491,-467 497,-461 503,-461 503,-461 781,-461 781,-461 787,-461 793,-467 793,-473 793,-473 793,-532 793,-532 793,-538 787,-544 781,-544"/>
<text text-anchor="start" x="499" y="-528.8" font-family="Helvetica,sans-Serif" font-size="14.00" fill="#000000">export_administration_act_south_africa ≤ 0.906</text>
<text text-anchor="start" x="606.5" y="-513.8" font-family="Helvetica,sans-Serif" font-size="14.00" fill="#000000">gini = 0.231</text>
<text text-anchor="start" x="601" y="-498.8" font-family="Helvetica,sans-Serif" font-size="14.00" fill="#000000">samples = 15</text>
<text text-anchor="start" x="599" y="-483.8" font-family="Helvetica,sans-Serif" font-size="14.00" fill="#000000">value = [2, 13]</text>
<text text-anchor="start" x="587.5" y="-468.8" font-family="Helvetica,sans-Serif" font-size="14.00" fill="#000000">class = republican</text>
</g>
<!-- 9&#45;&gt;11 -->
<g id="edge11" class="edge">
<title>9&#45;&gt;11</title>
<path fill="none" stroke="#000000" d="M590.6304,-579.8796C596.43,-571.1434 602.6059,-561.8404 608.5908,-552.8253"/>
<polygon fill="#000000" stroke="#000000" points="611.6368,-554.5652 614.2517,-544.2981 605.8049,-550.6935 611.6368,-554.5652"/>
</g>
<!-- 12 -->
<g id="node13" class="node">
<title>12</title>
<path fill="#ffffff" stroke="#000000" d="M549.5,-425C549.5,-425 388.5,-425 388.5,-425 382.5,-425 376.5,-419 376.5,-413 376.5,-413 376.5,-354 376.5,-354 376.5,-348 382.5,-342 388.5,-342 388.5,-342 549.5,-342 549.5,-342 555.5,-342 561.5,-348 561.5,-354 561.5,-354 561.5,-413 561.5,-413 561.5,-419 555.5,-425 549.5,-425"/>
<text text-anchor="start" x="384.5" y="-409.8" font-family="Helvetica,sans-Serif" font-size="14.00" fill="#000000">anti_satellite_test_ban ≤ 0.5</text>
<text text-anchor="start" x="441" y="-394.8" font-family="Helvetica,sans-Serif" font-size="14.00" fill="#000000">gini = 0.5</text>
<text text-anchor="start" x="431.5" y="-379.8" font-family="Helvetica,sans-Serif" font-size="14.00" fill="#000000">samples = 4</text>
<text text-anchor="start" x="429.5" y="-364.8" font-family="Helvetica,sans-Serif" font-size="14.00" fill="#000000">value = [2, 2]</text>
<text text-anchor="start" x="417" y="-349.8" font-family="Helvetica,sans-Serif" font-size="14.00" fill="#000000">class = democrat</text>
</g>
<!-- 11&#45;&gt;12 -->
<g id="edge12" class="edge">
<title>11&#45;&gt;12</title>
<path fill="none" stroke="#000000" d="M581.493,-460.8796C567.4018,-451.1868 552.2961,-440.7961 537.8731,-430.8752"/>
<polygon fill="#000000" stroke="#000000" points="539.6955,-427.8806 529.4728,-425.0969 535.7283,-433.6479 539.6955,-427.8806"/>
</g>
<!-- 15 -->
<g id="node16" class="node">
<title>15</title>
<path fill="#399de5" stroke="#000000" d="M692.5,-417.5C692.5,-417.5 591.5,-417.5 591.5,-417.5 585.5,-417.5 579.5,-411.5 579.5,-405.5 579.5,-405.5 579.5,-361.5 579.5,-361.5 579.5,-355.5 585.5,-349.5 591.5,-349.5 591.5,-349.5 692.5,-349.5 692.5,-349.5 698.5,-349.5 704.5,-355.5 704.5,-361.5 704.5,-361.5 704.5,-405.5 704.5,-405.5 704.5,-411.5 698.5,-417.5 692.5,-417.5"/>
<text text-anchor="start" x="614" y="-402.3" font-family="Helvetica,sans-Serif" font-size="14.00" fill="#000000">gini = 0.0</text>
<text text-anchor="start" x="601" y="-387.3" font-family="Helvetica,sans-Serif" font-size="14.00" fill="#000000">samples = 11</text>
<text text-anchor="start" x="599" y="-372.3" font-family="Helvetica,sans-Serif" font-size="14.00" fill="#000000">value = [0, 11]</text>
<text text-anchor="start" x="587.5" y="-357.3" font-family="Helvetica,sans-Serif" font-size="14.00" fill="#000000">class = republican</text>
</g>
<!-- 11&#45;&gt;15 -->
<g id="edge15" class="edge">
<title>11&#45;&gt;15</title>
<path fill="none" stroke="#000000" d="M642,-460.8796C642,-450.2134 642,-438.7021 642,-427.9015"/>
<polygon fill="#000000" stroke="#000000" points="645.5001,-427.8149 642,-417.8149 638.5001,-427.815 645.5001,-427.8149"/>
</g>
<!-- 13 -->
<g id="node14" class="node">
<title>13</title>
<path fill="#e58139" stroke="#000000" d="M386,-298.5C386,-298.5 290,-298.5 290,-298.5 284,-298.5 278,-292.5 278,-286.5 278,-286.5 278,-242.5 278,-242.5 278,-236.5 284,-230.5 290,-230.5 290,-230.5 386,-230.5 386,-230.5 392,-230.5 398,-236.5 398,-242.5 398,-242.5 398,-286.5 398,-286.5 398,-292.5 392,-298.5 386,-298.5"/>
<text text-anchor="start" x="310" y="-283.3" font-family="Helvetica,sans-Serif" font-size="14.00" fill="#000000">gini = 0.0</text>
<text text-anchor="start" x="300.5" y="-268.3" font-family="Helvetica,sans-Serif" font-size="14.00" fill="#000000">samples = 2</text>
<text text-anchor="start" x="298.5" y="-253.3" font-family="Helvetica,sans-Serif" font-size="14.00" fill="#000000">value = [2, 0]</text>
<text text-anchor="start" x="286" y="-238.3" font-family="Helvetica,sans-Serif" font-size="14.00" fill="#000000">class = democrat</text>
</g>
<!-- 12&#45;&gt;13 -->
<g id="edge13" class="edge">
<title>12&#45;&gt;13</title>
<path fill="none" stroke="#000000" d="M423.1826,-341.8796C410.2303,-330.1138 396.146,-317.3197 383.2286,-305.5855"/>
<polygon fill="#000000" stroke="#000000" points="385.5306,-302.9482 375.7753,-298.8149 380.8239,-308.1296 385.5306,-302.9482"/>
</g>
<!-- 14 -->
<g id="node15" class="node">
<title>14</title>
<path fill="#399de5" stroke="#000000" d="M529.5,-298.5C529.5,-298.5 428.5,-298.5 428.5,-298.5 422.5,-298.5 416.5,-292.5 416.5,-286.5 416.5,-286.5 416.5,-242.5 416.5,-242.5 416.5,-236.5 422.5,-230.5 428.5,-230.5 428.5,-230.5 529.5,-230.5 529.5,-230.5 535.5,-230.5 541.5,-236.5 541.5,-242.5 541.5,-242.5 541.5,-286.5 541.5,-286.5 541.5,-292.5 535.5,-298.5 529.5,-298.5"/>
<text text-anchor="start" x="451" y="-283.3" font-family="Helvetica,sans-Serif" font-size="14.00" fill="#000000">gini = 0.0</text>
<text text-anchor="start" x="441.5" y="-268.3" font-family="Helvetica,sans-Serif" font-size="14.00" fill="#000000">samples = 2</text>
<text text-anchor="start" x="439.5" y="-253.3" font-family="Helvetica,sans-Serif" font-size="14.00" fill="#000000">value = [0, 2]</text>
<text text-anchor="start" x="424.5" y="-238.3" font-family="Helvetica,sans-Serif" font-size="14.00" fill="#000000">class = republican</text>
</g>
<!-- 12&#45;&gt;14 -->
<g id="edge14" class="edge">
<title>12&#45;&gt;14</title>
<path fill="none" stroke="#000000" d="M472.4975,-341.8796C473.3938,-331.2134 474.3612,-319.7021 475.2688,-308.9015"/>
<polygon fill="#000000" stroke="#000000" points="478.7666,-309.0729 476.1164,-298.8149 471.7912,-308.4867 478.7666,-309.0729"/>
</g>
<!-- 17 -->
<g id="node18" class="node">
<title>17</title>
<path fill="#5dafea" stroke="#000000" d="M1039.5,-544C1039.5,-544 876.5,-544 876.5,-544 870.5,-544 864.5,-538 864.5,-532 864.5,-532 864.5,-473 864.5,-473 864.5,-467 870.5,-461 876.5,-461 876.5,-461 1039.5,-461 1039.5,-461 1045.5,-461 1051.5,-467 1051.5,-473 1051.5,-473 1051.5,-532 1051.5,-532 1051.5,-538 1045.5,-544 1039.5,-544"/>
<text text-anchor="start" x="872.5" y="-528.8" font-family="Helvetica,sans-Serif" font-size="14.00" fill="#000000">education_spending ≤ 0.212</text>
<text text-anchor="start" x="926" y="-513.8" font-family="Helvetica,sans-Serif" font-size="14.00" fill="#000000">gini = 0.26</text>
<text text-anchor="start" x="917" y="-498.8" font-family="Helvetica,sans-Serif" font-size="14.00" fill="#000000">samples = 13</text>
<text text-anchor="start" x="915" y="-483.8" font-family="Helvetica,sans-Serif" font-size="14.00" fill="#000000">value = [2, 11]</text>
<text text-anchor="start" x="903.5" y="-468.8" font-family="Helvetica,sans-Serif" font-size="14.00" fill="#000000">class = republican</text>
</g>
<!-- 16&#45;&gt;17 -->
<g id="edge17" class="edge">
<title>16&#45;&gt;17</title>
<path fill="none" stroke="#000000" d="M958,-579.8796C958,-571.6838 958,-562.9891 958,-554.5013"/>
<polygon fill="#000000" stroke="#000000" points="961.5001,-554.298 958,-544.2981 954.5001,-554.2981 961.5001,-554.298"/>
</g>
<!-- 28 -->
<g id="node29" class="node">
<title>28</title>
<path fill="#e9965a" stroke="#000000" d="M1321.5,-544C1321.5,-544 1160.5,-544 1160.5,-544 1154.5,-544 1148.5,-538 1148.5,-532 1148.5,-532 1148.5,-473 1148.5,-473 1148.5,-467 1154.5,-461 1160.5,-461 1160.5,-461 1321.5,-461 1321.5,-461 1327.5,-461 1333.5,-467 1333.5,-473 1333.5,-473 1333.5,-532 1333.5,-532 1333.5,-538 1327.5,-544 1321.5,-544"/>
<text text-anchor="start" x="1156.5" y="-528.8" font-family="Helvetica,sans-Serif" font-size="14.00" fill="#000000">anti_satellite_test_ban ≤ 0.5</text>
<text text-anchor="start" x="1205.5" y="-513.8" font-family="Helvetica,sans-Serif" font-size="14.00" fill="#000000">gini = 0.245</text>
<text text-anchor="start" x="1203.5" y="-498.8" font-family="Helvetica,sans-Serif" font-size="14.00" fill="#000000">samples = 7</text>
<text text-anchor="start" x="1201.5" y="-483.8" font-family="Helvetica,sans-Serif" font-size="14.00" fill="#000000">value = [6, 1]</text>
<text text-anchor="start" x="1189" y="-468.8" font-family="Helvetica,sans-Serif" font-size="14.00" fill="#000000">class = democrat</text>
</g>
<!-- 16&#45;&gt;28 -->
<g id="edge28" class="edge">
<title>16&#45;&gt;28</title>
<path fill="none" stroke="#000000" d="M1056.9797,-579.8796C1083.4999,-568.728 1112.2168,-556.6526 1138.9022,-545.4316"/>
<polygon fill="#000000" stroke="#000000" points="1140.388,-548.6037 1148.2495,-541.5011 1137.6746,-542.151 1140.388,-548.6037"/>
</g>
<!-- 18 -->
<g id="node19" class="node">
<title>18</title>
<path fill="#ffffff" stroke="#000000" d="M831,-425C831,-425 735,-425 735,-425 729,-425 723,-419 723,-413 723,-413 723,-354 723,-354 723,-348 729,-342 735,-342 735,-342 831,-342 831,-342 837,-342 843,-348 843,-354 843,-354 843,-413 843,-413 843,-419 837,-425 831,-425"/>
<text text-anchor="start" x="748.5" y="-409.8" font-family="Helvetica,sans-Serif" font-size="14.00" fill="#000000">crime ≤ 0.5</text>
<text text-anchor="start" x="755" y="-394.8" font-family="Helvetica,sans-Serif" font-size="14.00" fill="#000000">gini = 0.5</text>
<text text-anchor="start" x="745.5" y="-379.8" font-family="Helvetica,sans-Serif" font-size="14.00" fill="#000000">samples = 2</text>
<text text-anchor="start" x="743.5" y="-364.8" font-family="Helvetica,sans-Serif" font-size="14.00" fill="#000000">value = [1, 1]</text>
<text text-anchor="start" x="731" y="-349.8" font-family="Helvetica,sans-Serif" font-size="14.00" fill="#000000">class = democrat</text>
</g>
<!-- 17&#45;&gt;18 -->
<g id="edge18" class="edge">
<title>17&#45;&gt;18</title>
<path fill="none" stroke="#000000" d="M896.7935,-460.8796C882.2922,-451.0187 866.7288,-440.4356 851.911,-430.3595"/>
<polygon fill="#000000" stroke="#000000" points="853.5237,-427.2236 843.2863,-424.4947 849.5875,-433.0121 853.5237,-427.2236"/>
</g>
<!-- 21 -->
<g id="node22" class="node">
<title>21</title>
<path fill="#4da7e8" stroke="#000000" d="M1151,-425C1151,-425 873,-425 873,-425 867,-425 861,-419 861,-413 861,-413 861,-354 861,-354 861,-348 867,-342 873,-342 873,-342 1151,-342 1151,-342 1157,-342 1163,-348 1163,-354 1163,-354 1163,-413 1163,-413 1163,-419 1157,-425 1151,-425"/>
<text text-anchor="start" x="869" y="-409.8" font-family="Helvetica,sans-Serif" font-size="14.00" fill="#000000">export_administration_act_south_africa ≤ 0.406</text>
<text text-anchor="start" x="976.5" y="-394.8" font-family="Helvetica,sans-Serif" font-size="14.00" fill="#000000">gini = 0.165</text>
<text text-anchor="start" x="971" y="-379.8" font-family="Helvetica,sans-Serif" font-size="14.00" fill="#000000">samples = 11</text>
<text text-anchor="start" x="969" y="-364.8" font-family="Helvetica,sans-Serif" font-size="14.00" fill="#000000">value = [1, 10]</text>
<text text-anchor="start" x="957.5" y="-349.8" font-family="Helvetica,sans-Serif" font-size="14.00" fill="#000000">class = republican</text>
</g>
<!-- 17&#45;&gt;21 -->
<g id="edge21" class="edge">
<title>17&#45;&gt;21</title>
<path fill="none" stroke="#000000" d="M976.8866,-460.8796C980.7283,-452.4136 984.8115,-443.4153 988.7834,-434.6626"/>
<polygon fill="#000000" stroke="#000000" points="992.0877,-435.8507 993.0328,-425.2981 985.7133,-432.9581 992.0877,-435.8507"/>
</g>
<!-- 19 -->
<g id="node20" class="node">
<title>19</title>
<path fill="#399de5" stroke="#000000" d="M708.5,-298.5C708.5,-298.5 607.5,-298.5 607.5,-298.5 601.5,-298.5 595.5,-292.5 595.5,-286.5 595.5,-286.5 595.5,-242.5 595.5,-242.5 595.5,-236.5 601.5,-230.5 607.5,-230.5 607.5,-230.5 708.5,-230.5 708.5,-230.5 714.5,-230.5 720.5,-236.5 720.5,-242.5 720.5,-242.5 720.5,-286.5 720.5,-286.5 720.5,-292.5 714.5,-298.5 708.5,-298.5"/>
<text text-anchor="start" x="630" y="-283.3" font-family="Helvetica,sans-Serif" font-size="14.00" fill="#000000">gini = 0.0</text>
<text text-anchor="start" x="620.5" y="-268.3" font-family="Helvetica,sans-Serif" font-size="14.00" fill="#000000">samples = 1</text>
<text text-anchor="start" x="618.5" y="-253.3" font-family="Helvetica,sans-Serif" font-size="14.00" fill="#000000">value = [0, 1]</text>
<text text-anchor="start" x="603.5" y="-238.3" font-family="Helvetica,sans-Serif" font-size="14.00" fill="#000000">class = republican</text>
</g>
<!-- 18&#45;&gt;19 -->
<g id="edge19" class="edge">
<title>18&#45;&gt;19</title>
<path fill="none" stroke="#000000" d="M739.2811,-341.8796C727.0375,-330.2237 713.7339,-317.5587 701.5029,-305.9148"/>
<polygon fill="#000000" stroke="#000000" points="703.7012,-303.1751 694.0451,-298.8149 698.8746,-308.245 703.7012,-303.1751"/>
</g>
<!-- 20 -->
<g id="node21" class="node">
<title>20</title>
<path fill="#e58139" stroke="#000000" d="M847,-298.5C847,-298.5 751,-298.5 751,-298.5 745,-298.5 739,-292.5 739,-286.5 739,-286.5 739,-242.5 739,-242.5 739,-236.5 745,-230.5 751,-230.5 751,-230.5 847,-230.5 847,-230.5 853,-230.5 859,-236.5 859,-242.5 859,-242.5 859,-286.5 859,-286.5 859,-292.5 853,-298.5 847,-298.5"/>
<text text-anchor="start" x="771" y="-283.3" font-family="Helvetica,sans-Serif" font-size="14.00" fill="#000000">gini = 0.0</text>
<text text-anchor="start" x="761.5" y="-268.3" font-family="Helvetica,sans-Serif" font-size="14.00" fill="#000000">samples = 1</text>
<text text-anchor="start" x="759.5" y="-253.3" font-family="Helvetica,sans-Serif" font-size="14.00" fill="#000000">value = [1, 0]</text>
<text text-anchor="start" x="747" y="-238.3" font-family="Helvetica,sans-Serif" font-size="14.00" fill="#000000">class = democrat</text>
</g>
<!-- 18&#45;&gt;20 -->
<g id="edge20" class="edge">
<title>18&#45;&gt;20</title>
<path fill="none" stroke="#000000" d="M788.596,-341.8796C790.0301,-331.2134 791.5779,-319.7021 793.03,-308.9015"/>
<polygon fill="#000000" stroke="#000000" points="796.5224,-309.1922 794.3862,-298.8149 789.5848,-308.2593 796.5224,-309.1922"/>
</g>
<!-- 22 -->
<g id="node23" class="node">
<title>22</title>
<path fill="#9ccef2" stroke="#000000" d="M1099,-306C1099,-306 907,-306 907,-306 901,-306 895,-300 895,-294 895,-294 895,-235 895,-235 895,-229 901,-223 907,-223 907,-223 1099,-223 1099,-223 1105,-223 1111,-229 1111,-235 1111,-235 1111,-294 1111,-294 1111,-300 1105,-306 1099,-306"/>
<text text-anchor="start" x="903" y="-290.8" font-family="Helvetica,sans-Serif" font-size="14.00" fill="#000000">water_project_cost_sharing ≤ 0.5</text>
<text text-anchor="start" x="967.5" y="-275.8" font-family="Helvetica,sans-Serif" font-size="14.00" fill="#000000">gini = 0.444</text>
<text text-anchor="start" x="965.5" y="-260.8" font-family="Helvetica,sans-Serif" font-size="14.00" fill="#000000">samples = 3</text>
<text text-anchor="start" x="963.5" y="-245.8" font-family="Helvetica,sans-Serif" font-size="14.00" fill="#000000">value = [1, 2]</text>
<text text-anchor="start" x="948.5" y="-230.8" font-family="Helvetica,sans-Serif" font-size="14.00" fill="#000000">class = republican</text>
</g>
<!-- 21&#45;&gt;22 -->
<g id="edge22" class="edge">
<title>21&#45;&gt;22</title>
<path fill="none" stroke="#000000" d="M1008.8522,-341.8796C1008.2324,-333.6838 1007.5748,-324.9891 1006.9329,-316.5013"/>
<polygon fill="#000000" stroke="#000000" points="1010.4055,-316.0056 1006.1612,-306.2981 1003.4254,-316.5336 1010.4055,-316.0056"/>
</g>
<!-- 27 -->
<g id="node28" class="node">
<title>27</title>
<path fill="#399de5" stroke="#000000" d="M1242.5,-298.5C1242.5,-298.5 1141.5,-298.5 1141.5,-298.5 1135.5,-298.5 1129.5,-292.5 1129.5,-286.5 1129.5,-286.5 1129.5,-242.5 1129.5,-242.5 1129.5,-236.5 1135.5,-230.5 1141.5,-230.5 1141.5,-230.5 1242.5,-230.5 1242.5,-230.5 1248.5,-230.5 1254.5,-236.5 1254.5,-242.5 1254.5,-242.5 1254.5,-286.5 1254.5,-286.5 1254.5,-292.5 1248.5,-298.5 1242.5,-298.5"/>
<text text-anchor="start" x="1164" y="-283.3" font-family="Helvetica,sans-Serif" font-size="14.00" fill="#000000">gini = 0.0</text>
<text text-anchor="start" x="1154.5" y="-268.3" font-family="Helvetica,sans-Serif" font-size="14.00" fill="#000000">samples = 8</text>
<text text-anchor="start" x="1152.5" y="-253.3" font-family="Helvetica,sans-Serif" font-size="14.00" fill="#000000">value = [0, 8]</text>
<text text-anchor="start" x="1137.5" y="-238.3" font-family="Helvetica,sans-Serif" font-size="14.00" fill="#000000">class = republican</text>
</g>
<!-- 21&#45;&gt;27 -->
<g id="edge27" class="edge">
<title>21&#45;&gt;27</title>
<path fill="none" stroke="#000000" d="M1074.9553,-341.8796C1093.3384,-329.7263 1113.3811,-316.4759 1131.6021,-304.4297"/>
<polygon fill="#000000" stroke="#000000" points="1133.9737,-307.0576 1140.3853,-298.623 1130.1133,-301.2183 1133.9737,-307.0576"/>
</g>
<!-- 23 -->
<g id="node24" class="node">
<title>23</title>
<path fill="#ffffff" stroke="#000000" d="M995,-187C995,-187 843,-187 843,-187 837,-187 831,-181 831,-175 831,-175 831,-116 831,-116 831,-110 837,-104 843,-104 843,-104 995,-104 995,-104 1001,-104 1007,-110 1007,-116 1007,-116 1007,-175 1007,-175 1007,-181 1001,-187 995,-187"/>
<text text-anchor="start" x="839" y="-171.8" font-family="Helvetica,sans-Serif" font-size="14.00" fill="#000000">handicapped_infants ≤ 0.5</text>
<text text-anchor="start" x="891" y="-156.8" font-family="Helvetica,sans-Serif" font-size="14.00" fill="#000000">gini = 0.5</text>
<text text-anchor="start" x="881.5" y="-141.8" font-family="Helvetica,sans-Serif" font-size="14.00" fill="#000000">samples = 2</text>
<text text-anchor="start" x="879.5" y="-126.8" font-family="Helvetica,sans-Serif" font-size="14.00" fill="#000000">value = [1, 1]</text>
<text text-anchor="start" x="867" y="-111.8" font-family="Helvetica,sans-Serif" font-size="14.00" fill="#000000">class = democrat</text>
</g>
<!-- 22&#45;&gt;23 -->
<g id="edge23" class="edge">
<title>22&#45;&gt;23</title>
<path fill="none" stroke="#000000" d="M973.6209,-222.8796C967.3906,-214.0534 960.7519,-204.6485 954.327,-195.5466"/>
<polygon fill="#000000" stroke="#000000" points="957.1308,-193.4494 948.5045,-187.2981 951.412,-197.4862 957.1308,-193.4494"/>
</g>
<!-- 26 -->
<g id="node27" class="node">
<title>26</title>
<path fill="#399de5" stroke="#000000" d="M1137.5,-179.5C1137.5,-179.5 1036.5,-179.5 1036.5,-179.5 1030.5,-179.5 1024.5,-173.5 1024.5,-167.5 1024.5,-167.5 1024.5,-123.5 1024.5,-123.5 1024.5,-117.5 1030.5,-111.5 1036.5,-111.5 1036.5,-111.5 1137.5,-111.5 1137.5,-111.5 1143.5,-111.5 1149.5,-117.5 1149.5,-123.5 1149.5,-123.5 1149.5,-167.5 1149.5,-167.5 1149.5,-173.5 1143.5,-179.5 1137.5,-179.5"/>
<text text-anchor="start" x="1059" y="-164.3" font-family="Helvetica,sans-Serif" font-size="14.00" fill="#000000">gini = 0.0</text>
<text text-anchor="start" x="1049.5" y="-149.3" font-family="Helvetica,sans-Serif" font-size="14.00" fill="#000000">samples = 1</text>
<text text-anchor="start" x="1047.5" y="-134.3" font-family="Helvetica,sans-Serif" font-size="14.00" fill="#000000">value = [0, 1]</text>
<text text-anchor="start" x="1032.5" y="-119.3" font-family="Helvetica,sans-Serif" font-size="14.00" fill="#000000">class = republican</text>
</g>
<!-- 22&#45;&gt;26 -->
<g id="edge26" class="edge">
<title>22&#45;&gt;26</title>
<path fill="none" stroke="#000000" d="M1032.3791,-222.8796C1040.2963,-211.6636 1048.8731,-199.5131 1056.8325,-188.2372"/>
<polygon fill="#000000" stroke="#000000" points="1059.8702,-190.003 1062.7777,-179.8149 1054.1514,-185.9662 1059.8702,-190.003"/>
</g>
<!-- 24 -->
<g id="node25" class="node">
<title>24</title>
<path fill="#e58139" stroke="#000000" d="M897,-68C897,-68 801,-68 801,-68 795,-68 789,-62 789,-56 789,-56 789,-12 789,-12 789,-6 795,0 801,0 801,0 897,0 897,0 903,0 909,-6 909,-12 909,-12 909,-56 909,-56 909,-62 903,-68 897,-68"/>
<text text-anchor="start" x="821" y="-52.8" font-family="Helvetica,sans-Serif" font-size="14.00" fill="#000000">gini = 0.0</text>
<text text-anchor="start" x="811.5" y="-37.8" font-family="Helvetica,sans-Serif" font-size="14.00" fill="#000000">samples = 1</text>
<text text-anchor="start" x="809.5" y="-22.8" font-family="Helvetica,sans-Serif" font-size="14.00" fill="#000000">value = [1, 0]</text>
<text text-anchor="start" x="797" y="-7.8" font-family="Helvetica,sans-Serif" font-size="14.00" fill="#000000">class = democrat</text>
</g>
<!-- 23&#45;&gt;24 -->
<g id="edge24" class="edge">
<title>23&#45;&gt;24</title>
<path fill="none" stroke="#000000" d="M892.9346,-103.9815C887.3955,-95.1585 881.5364,-85.8258 875.9645,-76.9506"/>
<polygon fill="#000000" stroke="#000000" points="878.7922,-74.872 870.5108,-68.2637 872.8637,-78.594 878.7922,-74.872"/>
</g>
<!-- 25 -->
<g id="node26" class="node">
<title>25</title>
<path fill="#399de5" stroke="#000000" d="M1040.5,-68C1040.5,-68 939.5,-68 939.5,-68 933.5,-68 927.5,-62 927.5,-56 927.5,-56 927.5,-12 927.5,-12 927.5,-6 933.5,0 939.5,0 939.5,0 1040.5,0 1040.5,0 1046.5,0 1052.5,-6 1052.5,-12 1052.5,-12 1052.5,-56 1052.5,-56 1052.5,-62 1046.5,-68 1040.5,-68"/>
<text text-anchor="start" x="962" y="-52.8" font-family="Helvetica,sans-Serif" font-size="14.00" fill="#000000">gini = 0.0</text>
<text text-anchor="start" x="952.5" y="-37.8" font-family="Helvetica,sans-Serif" font-size="14.00" fill="#000000">samples = 1</text>
<text text-anchor="start" x="950.5" y="-22.8" font-family="Helvetica,sans-Serif" font-size="14.00" fill="#000000">value = [0, 1]</text>
<text text-anchor="start" x="935.5" y="-7.8" font-family="Helvetica,sans-Serif" font-size="14.00" fill="#000000">class = republican</text>
</g>
<!-- 23&#45;&gt;25 -->
<g id="edge25" class="edge">
<title>23&#45;&gt;25</title>
<path fill="none" stroke="#000000" d="M945.4378,-103.9815C951.056,-95.1585 956.9988,-85.8258 962.6503,-76.9506"/>
<polygon fill="#000000" stroke="#000000" points="965.7629,-78.5787 968.1819,-68.2637 959.8584,-74.8188 965.7629,-78.5787"/>
</g>
<!-- 29 -->
<g id="node30" class="node">
<title>29</title>
<path fill="#e58139" stroke="#000000" d="M1289,-417.5C1289,-417.5 1193,-417.5 1193,-417.5 1187,-417.5 1181,-411.5 1181,-405.5 1181,-405.5 1181,-361.5 1181,-361.5 1181,-355.5 1187,-349.5 1193,-349.5 1193,-349.5 1289,-349.5 1289,-349.5 1295,-349.5 1301,-355.5 1301,-361.5 1301,-361.5 1301,-405.5 1301,-405.5 1301,-411.5 1295,-417.5 1289,-417.5"/>
<text text-anchor="start" x="1213" y="-402.3" font-family="Helvetica,sans-Serif" font-size="14.00" fill="#000000">gini = 0.0</text>
<text text-anchor="start" x="1203.5" y="-387.3" font-family="Helvetica,sans-Serif" font-size="14.00" fill="#000000">samples = 6</text>
<text text-anchor="start" x="1201.5" y="-372.3" font-family="Helvetica,sans-Serif" font-size="14.00" fill="#000000">value = [6, 0]</text>
<text text-anchor="start" x="1189" y="-357.3" font-family="Helvetica,sans-Serif" font-size="14.00" fill="#000000">class = democrat</text>
</g>
<!-- 28&#45;&gt;29 -->
<g id="edge29" class="edge">
<title>28&#45;&gt;29</title>
<path fill="none" stroke="#000000" d="M1241,-460.8796C1241,-450.2134 1241,-438.7021 1241,-427.9015"/>
<polygon fill="#000000" stroke="#000000" points="1244.5001,-427.8149 1241,-417.8149 1237.5001,-427.815 1244.5001,-427.8149"/>
</g>
<!-- 30 -->
<g id="node31" class="node">
<title>30</title>
<path fill="#399de5" stroke="#000000" d="M1432.5,-417.5C1432.5,-417.5 1331.5,-417.5 1331.5,-417.5 1325.5,-417.5 1319.5,-411.5 1319.5,-405.5 1319.5,-405.5 1319.5,-361.5 1319.5,-361.5 1319.5,-355.5 1325.5,-349.5 1331.5,-349.5 1331.5,-349.5 1432.5,-349.5 1432.5,-349.5 1438.5,-349.5 1444.5,-355.5 1444.5,-361.5 1444.5,-361.5 1444.5,-405.5 1444.5,-405.5 1444.5,-411.5 1438.5,-417.5 1432.5,-417.5"/>
<text text-anchor="start" x="1354" y="-402.3" font-family="Helvetica,sans-Serif" font-size="14.00" fill="#000000">gini = 0.0</text>
<text text-anchor="start" x="1344.5" y="-387.3" font-family="Helvetica,sans-Serif" font-size="14.00" fill="#000000">samples = 1</text>
<text text-anchor="start" x="1342.5" y="-372.3" font-family="Helvetica,sans-Serif" font-size="14.00" fill="#000000">value = [0, 1]</text>
<text text-anchor="start" x="1327.5" y="-357.3" font-family="Helvetica,sans-Serif" font-size="14.00" fill="#000000">class = republican</text>
</g>
<!-- 28&#45;&gt;30 -->
<g id="edge30" class="edge">
<title>28&#45;&gt;30</title>
<path fill="none" stroke="#000000" d="M1290.315,-460.8796C1304.256,-449.1138 1319.4154,-436.3197 1333.3188,-424.5855"/>
<polygon fill="#000000" stroke="#000000" points="1335.9564,-426.9394 1341.3411,-417.8149 1331.4416,-421.5899 1335.9564,-426.9394"/>
</g>
</g>
</svg>
