<?xml version="1.0" encoding="UTF-8" standalone="no"?>
<!DOCTYPE svg PUBLIC "-//W3C//DTD SVG 1.1//EN"
 "http://www.w3.org/Graphics/SVG/1.1/DTD/svg11.dtd">
<!-- Generated by graphviz version 2.40.1 (20161225.0304)
 -->
<!-- Title: Tree Pages: 1 -->
<svg width="528pt" height="552pt"
 viewBox="0.00 0.00 528.00 552.00" xmlns="http://www.w3.org/2000/svg" xmlns:xlink="http://www.w3.org/1999/xlink">
<g id="graph0" class="graph" transform="scale(1 1) rotate(0) translate(4 548)">
<title>Tree</title>
<polygon fill="#ffffff" stroke="transparent" points="-4,4 -4,-548 524,-548 524,4 -4,4"/>
<!-- 0 -->
<g id="node1" class="node">
<title>0</title>
<path fill="#95f1bc" stroke="#000000" d="M268.5,-544C268.5,-544 103.5,-544 103.5,-544 97.5,-544 91.5,-538 91.5,-532 91.5,-532 91.5,-473 91.5,-473 91.5,-467 97.5,-461 103.5,-461 103.5,-461 268.5,-461 268.5,-461 274.5,-461 280.5,-467 280.5,-473 280.5,-473 280.5,-532 280.5,-532 280.5,-538 274.5,-544 268.5,-544"/>
<text text-anchor="start" x="99.5" y="-528.8" font-family="Helvetica,sans-Serif" font-size="14.00" fill="#000000">normal_tear_prod_rate ≤ 0.5</text>
<text text-anchor="start" x="150.5" y="-513.8" font-family="Helvetica,sans-Serif" font-size="14.00" fill="#000000">gini = 0.532</text>
<text text-anchor="start" x="145" y="-498.8" font-family="Helvetica,sans-Serif" font-size="14.00" fill="#000000">samples = 19</text>
<text text-anchor="start" x="135.5" y="-483.8" font-family="Helvetica,sans-Serif" font-size="14.00" fill="#000000">value = [3, 12, 4]</text>
<text text-anchor="start" x="151.5" y="-468.8" font-family="Helvetica,sans-Serif" font-size="14.00" fill="#000000">class = soft</text>
</g>
<!-- 1 -->
<g id="node2" class="node">
<title>1</title>
<path fill="#39e581" stroke="#000000" d="M161,-417.5C161,-417.5 75,-417.5 75,-417.5 69,-417.5 63,-411.5 63,-405.5 63,-405.5 63,-361.5 63,-361.5 63,-355.5 69,-349.5 75,-349.5 75,-349.5 161,-349.5 161,-349.5 167,-349.5 173,-355.5 173,-361.5 173,-361.5 173,-405.5 173,-405.5 173,-411.5 167,-417.5 161,-417.5"/>
<text text-anchor="start" x="90" y="-402.3" font-family="Helvetica,sans-Serif" font-size="14.00" fill="#000000">gini = 0.0</text>
<text text-anchor="start" x="80.5" y="-387.3" font-family="Helvetica,sans-Serif" font-size="14.00" fill="#000000">samples = 9</text>
<text text-anchor="start" x="71" y="-372.3" font-family="Helvetica,sans-Serif" font-size="14.00" fill="#000000">value = [0, 9, 0]</text>
<text text-anchor="start" x="83.5" y="-357.3" font-family="Helvetica,sans-Serif" font-size="14.00" fill="#000000">class = soft</text>
</g>
<!-- 0&#45;&gt;1 -->
<g id="edge1" class="edge">
<title>0&#45;&gt;1</title>
<path fill="none" stroke="#000000" d="M162.2169,-460.8796C155.8706,-449.7735 149.0007,-437.7513 142.6109,-426.5691"/>
<polygon fill="#000000" stroke="#000000" points="145.6088,-424.7609 137.6085,-417.8149 139.5311,-428.2339 145.6088,-424.7609"/>
<text text-anchor="middle" x="131.0306" y="-438.234" font-family="Helvetica,sans-Serif" font-size="14.00" fill="#000000">True</text>
</g>
<!-- 2 -->
<g id="node3" class="node">
<title>2</title>
<path fill="#ede3fb" stroke="#000000" d="M304.5,-425C304.5,-425 203.5,-425 203.5,-425 197.5,-425 191.5,-419 191.5,-413 191.5,-413 191.5,-354 191.5,-354 191.5,-348 197.5,-342 203.5,-342 203.5,-342 304.5,-342 304.5,-342 310.5,-342 316.5,-348 316.5,-354 316.5,-354 316.5,-413 316.5,-413 316.5,-419 310.5,-425 304.5,-425"/>
<text text-anchor="start" x="199.5" y="-409.8" font-family="Helvetica,sans-Serif" font-size="14.00" fill="#000000">astigmatism ≤ 0.5</text>
<text text-anchor="start" x="222" y="-394.8" font-family="Helvetica,sans-Serif" font-size="14.00" fill="#000000">gini = 0.66</text>
<text text-anchor="start" x="213" y="-379.8" font-family="Helvetica,sans-Serif" font-size="14.00" fill="#000000">samples = 10</text>
<text text-anchor="start" x="207" y="-364.8" font-family="Helvetica,sans-Serif" font-size="14.00" fill="#000000">value = [3, 3, 4]</text>
<text text-anchor="start" x="215.5" y="-349.8" font-family="Helvetica,sans-Serif" font-size="14.00" fill="#000000">class = none</text>
</g>
<!-- 0&#45;&gt;2 -->
<g id="edge2" class="edge">
<title>0&#45;&gt;2</title>
<path fill="none" stroke="#000000" d="M209.7831,-460.8796C214.7237,-452.2335 219.9816,-443.0322 225.0833,-434.1042"/>
<polygon fill="#000000" stroke="#000000" points="228.1928,-435.717 230.1154,-425.2981 222.1151,-432.244 228.1928,-435.717"/>
<text text-anchor="middle" x="236.6933" y="-445.7172" font-family="Helvetica,sans-Serif" font-size="14.00" fill="#000000">False</text>
</g>
<!-- 3 -->
<g id="node4" class="node">
<title>3</title>
<path fill="#a06aec" stroke="#000000" d="M229,-306C229,-306 137,-306 137,-306 131,-306 125,-300 125,-294 125,-294 125,-235 125,-235 125,-229 131,-223 137,-223 137,-223 229,-223 229,-223 235,-223 241,-229 241,-235 241,-235 241,-294 241,-294 241,-300 235,-306 229,-306"/>
<text text-anchor="start" x="133" y="-290.8" font-family="Helvetica,sans-Serif" font-size="14.00" fill="#000000">presbyopic ≤ 0.5</text>
<text text-anchor="start" x="151" y="-275.8" font-family="Helvetica,sans-Serif" font-size="14.00" fill="#000000">gini = 0.32</text>
<text text-anchor="start" x="145.5" y="-260.8" font-family="Helvetica,sans-Serif" font-size="14.00" fill="#000000">samples = 5</text>
<text text-anchor="start" x="136" y="-245.8" font-family="Helvetica,sans-Serif" font-size="14.00" fill="#000000">value = [0, 1, 4]</text>
<text text-anchor="start" x="144.5" y="-230.8" font-family="Helvetica,sans-Serif" font-size="14.00" fill="#000000">class = none</text>
</g>
<!-- 2&#45;&gt;3 -->
<g id="edge3" class="edge">
<title>2&#45;&gt;3</title>
<path fill="none" stroke="#000000" d="M229.1676,-341.8796C224.0091,-333.2335 218.5192,-324.0322 213.1924,-315.1042"/>
<polygon fill="#000000" stroke="#000000" points="216.0678,-313.0924 207.9383,-306.2981 210.0564,-316.679 216.0678,-313.0924"/>
</g>
<!-- 6 -->
<g id="node7" class="node">
<title>6</title>
<path fill="#f6d5bd" stroke="#000000" d="M367,-306C367,-306 281,-306 281,-306 275,-306 269,-300 269,-294 269,-294 269,-235 269,-235 269,-229 275,-223 281,-223 281,-223 367,-223 367,-223 373,-223 379,-229 379,-235 379,-235 379,-294 379,-294 379,-300 373,-306 367,-306"/>
<text text-anchor="start" x="288" y="-290.8" font-family="Helvetica,sans-Serif" font-size="14.00" fill="#000000">young ≤ 0.5</text>
<text text-anchor="start" x="292" y="-275.8" font-family="Helvetica,sans-Serif" font-size="14.00" fill="#000000">gini = 0.48</text>
<text text-anchor="start" x="286.5" y="-260.8" font-family="Helvetica,sans-Serif" font-size="14.00" fill="#000000">samples = 5</text>
<text text-anchor="start" x="277" y="-245.8" font-family="Helvetica,sans-Serif" font-size="14.00" fill="#000000">value = [3, 2, 0]</text>
<text text-anchor="start" x="287" y="-230.8" font-family="Helvetica,sans-Serif" font-size="14.00" fill="#000000">class = hard</text>
</g>
<!-- 2&#45;&gt;6 -->
<g id="edge6" class="edge">
<title>2&#45;&gt;6</title>
<path fill="none" stroke="#000000" d="M278.4826,-341.8796C283.5685,-333.2335 288.9811,-324.0322 294.2328,-315.1042"/>
<polygon fill="#000000" stroke="#000000" points="297.3594,-316.692 299.4129,-306.2981 291.3259,-313.1428 297.3594,-316.692"/>
</g>
<!-- 4 -->
<g id="node5" class="node">
<title>4</title>
<path fill="#8139e5" stroke="#000000" d="M98,-179.5C98,-179.5 12,-179.5 12,-179.5 6,-179.5 0,-173.5 0,-167.5 0,-167.5 0,-123.5 0,-123.5 0,-117.5 6,-111.5 12,-111.5 12,-111.5 98,-111.5 98,-111.5 104,-111.5 110,-117.5 110,-123.5 110,-123.5 110,-167.5 110,-167.5 110,-173.5 104,-179.5 98,-179.5"/>
<text text-anchor="start" x="27" y="-164.3" font-family="Helvetica,sans-Serif" font-size="14.00" fill="#000000">gini = 0.0</text>
<text text-anchor="start" x="17.5" y="-149.3" font-family="Helvetica,sans-Serif" font-size="14.00" fill="#000000">samples = 4</text>
<text text-anchor="start" x="8" y="-134.3" font-family="Helvetica,sans-Serif" font-size="14.00" fill="#000000">value = [0, 0, 4]</text>
<text text-anchor="start" x="16.5" y="-119.3" font-family="Helvetica,sans-Serif" font-size="14.00" fill="#000000">class = none</text>
</g>
<!-- 3&#45;&gt;4 -->
<g id="edge4" class="edge">
<title>3&#45;&gt;4</title>
<path fill="none" stroke="#000000" d="M138.2318,-222.8796C125.6944,-211.2237 112.0716,-198.5587 99.547,-186.9148"/>
<polygon fill="#000000" stroke="#000000" points="101.6172,-184.0605 91.9102,-179.8149 96.8509,-189.1872 101.6172,-184.0605"/>
</g>
<!-- 5 -->
<g id="node6" class="node">
<title>5</title>
<path fill="#39e581" stroke="#000000" d="M226,-179.5C226,-179.5 140,-179.5 140,-179.5 134,-179.5 128,-173.5 128,-167.5 128,-167.5 128,-123.5 128,-123.5 128,-117.5 134,-111.5 140,-111.5 140,-111.5 226,-111.5 226,-111.5 232,-111.5 238,-117.5 238,-123.5 238,-123.5 238,-167.5 238,-167.5 238,-173.5 232,-179.5 226,-179.5"/>
<text text-anchor="start" x="155" y="-164.3" font-family="Helvetica,sans-Serif" font-size="14.00" fill="#000000">gini = 0.0</text>
<text text-anchor="start" x="145.5" y="-149.3" font-family="Helvetica,sans-Serif" font-size="14.00" fill="#000000">samples = 1</text>
<text text-anchor="start" x="136" y="-134.3" font-family="Helvetica,sans-Serif" font-size="14.00" fill="#000000">value = [0, 1, 0]</text>
<text text-anchor="start" x="148.5" y="-119.3" font-family="Helvetica,sans-Serif" font-size="14.00" fill="#000000">class = soft</text>
</g>
<!-- 3&#45;&gt;5 -->
<g id="edge5" class="edge">
<title>3&#45;&gt;5</title>
<path fill="none" stroke="#000000" d="M183,-222.8796C183,-212.2134 183,-200.7021 183,-189.9015"/>
<polygon fill="#000000" stroke="#000000" points="186.5001,-189.8149 183,-179.8149 179.5001,-189.815 186.5001,-189.8149"/>
</g>
<!-- 7 -->
<g id="node8" class="node">
<title>7</title>
<path fill="#9cf2c0" stroke="#000000" d="M379.5,-187C379.5,-187 268.5,-187 268.5,-187 262.5,-187 256.5,-181 256.5,-175 256.5,-175 256.5,-116 256.5,-116 256.5,-110 262.5,-104 268.5,-104 268.5,-104 379.5,-104 379.5,-104 385.5,-104 391.5,-110 391.5,-116 391.5,-116 391.5,-175 391.5,-175 391.5,-181 385.5,-187 379.5,-187"/>
<text text-anchor="start" x="264.5" y="-171.8" font-family="Helvetica,sans-Serif" font-size="14.00" fill="#000000">hypermetrope ≤ 0.5</text>
<text text-anchor="start" x="288.5" y="-156.8" font-family="Helvetica,sans-Serif" font-size="14.00" fill="#000000">gini = 0.444</text>
<text text-anchor="start" x="286.5" y="-141.8" font-family="Helvetica,sans-Serif" font-size="14.00" fill="#000000">samples = 3</text>
<text text-anchor="start" x="277" y="-126.8" font-family="Helvetica,sans-Serif" font-size="14.00" fill="#000000">value = [1, 2, 0]</text>
<text text-anchor="start" x="289.5" y="-111.8" font-family="Helvetica,sans-Serif" font-size="14.00" fill="#000000">class = soft</text>
</g>
<!-- 6&#45;&gt;7 -->
<g id="edge7" class="edge">
<title>6&#45;&gt;7</title>
<path fill="none" stroke="#000000" d="M324,-222.8796C324,-214.6838 324,-205.9891 324,-197.5013"/>
<polygon fill="#000000" stroke="#000000" points="327.5001,-197.298 324,-187.2981 320.5001,-197.2981 327.5001,-197.298"/>
</g>
<!-- 10 -->
<g id="node11" class="node">
<title>10</title>
<path fill="#e58139" stroke="#000000" d="M508,-179.5C508,-179.5 422,-179.5 422,-179.5 416,-179.5 410,-173.5 410,-167.5 410,-167.5 410,-123.5 410,-123.5 410,-117.5 416,-111.5 422,-111.5 422,-111.5 508,-111.5 508,-111.5 514,-111.5 520,-117.5 520,-123.5 520,-123.5 520,-167.5 520,-167.5 520,-173.5 514,-179.5 508,-179.5"/>
<text text-anchor="start" x="437" y="-164.3" font-family="Helvetica,sans-Serif" font-size="14.00" fill="#000000">gini = 0.0</text>
<text text-anchor="start" x="427.5" y="-149.3" font-family="Helvetica,sans-Serif" font-size="14.00" fill="#000000">samples = 2</text>
<text text-anchor="start" x="418" y="-134.3" font-family="Helvetica,sans-Serif" font-size="14.00" fill="#000000">value = [2, 0, 0]</text>
<text text-anchor="start" x="428" y="-119.3" font-family="Helvetica,sans-Serif" font-size="14.00" fill="#000000">class = hard</text>
</g>
<!-- 6&#45;&gt;10 -->
<g id="edge10" class="edge">
<title>6&#45;&gt;10</title>
<path fill="none" stroke="#000000" d="M373.315,-222.8796C387.256,-211.1138 402.4154,-198.3197 416.3188,-186.5855"/>
<polygon fill="#000000" stroke="#000000" points="418.9564,-188.9394 424.3411,-179.8149 414.4416,-183.5899 418.9564,-188.9394"/>
</g>
<!-- 8 -->
<g id="node9" class="node">
<title>8</title>
<path fill="#e58139" stroke="#000000" d="M303,-68C303,-68 217,-68 217,-68 211,-68 205,-62 205,-56 205,-56 205,-12 205,-12 205,-6 211,0 217,0 217,0 303,0 303,0 309,0 315,-6 315,-12 315,-12 315,-56 315,-56 315,-62 309,-68 303,-68"/>
<text text-anchor="start" x="232" y="-52.8" font-family="Helvetica,sans-Serif" font-size="14.00" fill="#000000">gini = 0.0</text>
<text text-anchor="start" x="222.5" y="-37.8" font-family="Helvetica,sans-Serif" font-size="14.00" fill="#000000">samples = 1</text>
<text text-anchor="start" x="213" y="-22.8" font-family="Helvetica,sans-Serif" font-size="14.00" fill="#000000">value = [1, 0, 0]</text>
<text text-anchor="start" x="223" y="-7.8" font-family="Helvetica,sans-Serif" font-size="14.00" fill="#000000">class = hard</text>
</g>
<!-- 7&#45;&gt;8 -->
<g id="edge8" class="edge">
<title>7&#45;&gt;8</title>
<path fill="none" stroke="#000000" d="M300.1688,-103.9815C295.1044,-95.1585 289.7475,-85.8258 284.6532,-76.9506"/>
<polygon fill="#000000" stroke="#000000" points="287.6807,-75.1942 279.667,-68.2637 281.6097,-78.6789 287.6807,-75.1942"/>
</g>
<!-- 9 -->
<g id="node10" class="node">
<title>9</title>
<path fill="#39e581" stroke="#000000" d="M431,-68C431,-68 345,-68 345,-68 339,-68 333,-62 333,-56 333,-56 333,-12 333,-12 333,-6 339,0 345,0 345,0 431,0 431,0 437,0 443,-6 443,-12 443,-12 443,-56 443,-56 443,-62 437,-68 431,-68"/>
<text text-anchor="start" x="360" y="-52.8" font-family="Helvetica,sans-Serif" font-size="14.00" fill="#000000">gini = 0.0</text>
<text text-anchor="start" x="350.5" y="-37.8" font-family="Helvetica,sans-Serif" font-size="14.00" fill="#000000">samples = 2</text>
<text text-anchor="start" x="341" y="-22.8" font-family="Helvetica,sans-Serif" font-size="14.00" fill="#000000">value = [0, 2, 0]</text>
<text text-anchor="start" x="353.5" y="-7.8" font-family="Helvetica,sans-Serif" font-size="14.00" fill="#000000">class = soft</text>
</g>
<!-- 7&#45;&gt;9 -->
<g id="edge9" class="edge">
<title>7&#45;&gt;9</title>
<path fill="none" stroke="#000000" d="M347.8312,-103.9815C352.8956,-95.1585 358.2525,-85.8258 363.3468,-76.9506"/>
<polygon fill="#000000" stroke="#000000" points="366.3903,-78.6789 368.333,-68.2637 360.3193,-75.1942 366.3903,-78.6789"/>
</g>
</g>
</svg>
