<?xml version="1.0" encoding="UTF-8" standalone="no"?>
<!DOCTYPE svg PUBLIC "-//W3C//DTD SVG 1.1//EN"
 "http://www.w3.org/Graphics/SVG/1.1/DTD/svg11.dtd">
<!-- Generated by graphviz version 2.40.1 (20161225.0304)
 -->
<!-- Title: Tree Pages: 1 -->
<svg width="910pt" height="790pt"
 viewBox="0.00 0.00 910.00 790.00" xmlns="http://www.w3.org/2000/svg" xmlns:xlink="http://www.w3.org/1999/xlink">
<g id="graph0" class="graph" transform="scale(1 1) rotate(0) translate(4 786)">
<title>Tree</title>
<polygon fill="#ffffff" stroke="transparent" points="-4,4 -4,-786 906,-786 906,4 -4,4"/>
<!-- 0 -->
<g id="node1" class="node">
<title>0</title>
<path fill="#fdfcff" stroke="#000000" d="M579,-782C579,-782 465,-782 465,-782 459,-782 453,-776 453,-770 453,-770 453,-711 453,-711 453,-705 459,-699 465,-699 465,-699 579,-699 579,-699 585,-699 591,-705 591,-711 591,-711 591,-770 591,-770 591,-776 585,-782 579,-782"/>
<text text-anchor="start" x="470.5" y="-766.8" font-family="Helvetica,sans-Serif" font-size="14.00" fill="#000000">petalwidth ≤ 0.75</text>
<text text-anchor="start" x="486.5" y="-751.8" font-family="Helvetica,sans-Serif" font-size="14.00" fill="#000000">gini = 0.666</text>
<text text-anchor="start" x="477" y="-736.8" font-family="Helvetica,sans-Serif" font-size="14.00" fill="#000000">samples = 108</text>
<text text-anchor="start" x="464" y="-721.8" font-family="Helvetica,sans-Serif" font-size="14.00" fill="#000000">value = [36, 35, 37]</text>
<text text-anchor="start" x="461" y="-706.8" font-family="Helvetica,sans-Serif" font-size="14.00" fill="#000000">class = Iris_virginica</text>
</g>
<!-- 1 -->
<g id="node2" class="node">
<title>1</title>
<path fill="#e58139" stroke="#000000" d="M499,-655.5C499,-655.5 395,-655.5 395,-655.5 389,-655.5 383,-649.5 383,-643.5 383,-643.5 383,-599.5 383,-599.5 383,-593.5 389,-587.5 395,-587.5 395,-587.5 499,-587.5 499,-587.5 505,-587.5 511,-593.5 511,-599.5 511,-599.5 511,-643.5 511,-643.5 511,-649.5 505,-655.5 499,-655.5"/>
<text text-anchor="start" x="419" y="-640.3" font-family="Helvetica,sans-Serif" font-size="14.00" fill="#000000">gini = 0.0</text>
<text text-anchor="start" x="406" y="-625.3" font-family="Helvetica,sans-Serif" font-size="14.00" fill="#000000">samples = 36</text>
<text text-anchor="start" x="396.5" y="-610.3" font-family="Helvetica,sans-Serif" font-size="14.00" fill="#000000">value = [36, 0, 0]</text>
<text text-anchor="start" x="391" y="-595.3" font-family="Helvetica,sans-Serif" font-size="14.00" fill="#000000">class = Iris_setosa</text>
</g>
<!-- 0&#45;&gt;1 -->
<g id="edge1" class="edge">
<title>0&#45;&gt;1</title>
<path fill="none" stroke="#000000" d="M495.7686,-698.8796C488.769,-687.7735 481.192,-675.7513 474.1444,-664.5691"/>
<polygon fill="#000000" stroke="#000000" points="476.92,-662.4087 468.6271,-655.8149 470.998,-666.1411 476.92,-662.4087"/>
<text text-anchor="middle" x="463.0974" y="-676.4957" font-family="Helvetica,sans-Serif" font-size="14.00" fill="#000000">True</text>
</g>
<!-- 2 -->
<g id="node3" class="node">
<title>2</title>
<path fill="#f8f4fe" stroke="#000000" d="M655,-663C655,-663 541,-663 541,-663 535,-663 529,-657 529,-651 529,-651 529,-592 529,-592 529,-586 535,-580 541,-580 541,-580 655,-580 655,-580 661,-580 667,-586 667,-592 667,-592 667,-651 667,-651 667,-657 661,-663 655,-663"/>
<text text-anchor="start" x="546.5" y="-647.8" font-family="Helvetica,sans-Serif" font-size="14.00" fill="#000000">petalwidth ≤ 1.75</text>
<text text-anchor="start" x="570" y="-632.8" font-family="Helvetica,sans-Serif" font-size="14.00" fill="#000000">gini = 0.5</text>
<text text-anchor="start" x="557" y="-617.8" font-family="Helvetica,sans-Serif" font-size="14.00" fill="#000000">samples = 72</text>
<text text-anchor="start" x="543.5" y="-602.8" font-family="Helvetica,sans-Serif" font-size="14.00" fill="#000000">value = [0, 35, 37]</text>
<text text-anchor="start" x="537" y="-587.8" font-family="Helvetica,sans-Serif" font-size="14.00" fill="#000000">class = Iris_virginica</text>
</g>
<!-- 0&#45;&gt;2 -->
<g id="edge2" class="edge">
<title>0&#45;&gt;2</title>
<path fill="none" stroke="#000000" d="M548.5811,-698.8796C554.1605,-690.1434 560.1019,-680.8404 565.8595,-671.8253"/>
<polygon fill="#000000" stroke="#000000" points="568.8726,-673.6098 571.3054,-663.2981 562.9731,-669.8421 568.8726,-673.6098"/>
<text text-anchor="middle" x="576.6889" y="-684.0116" font-family="Helvetica,sans-Serif" font-size="14.00" fill="#000000">False</text>
</g>
<!-- 3 -->
<g id="node4" class="node">
<title>3</title>
<path fill="#4ae78c" stroke="#000000" d="M579,-544C579,-544 457,-544 457,-544 451,-544 445,-538 445,-532 445,-532 445,-473 445,-473 445,-467 451,-461 457,-461 457,-461 579,-461 579,-461 585,-461 591,-467 591,-473 591,-473 591,-532 591,-532 591,-538 585,-544 579,-544"/>
<text text-anchor="start" x="463.5" y="-528.8" font-family="Helvetica,sans-Serif" font-size="14.00" fill="#000000">petallength ≤ 5.35</text>
<text text-anchor="start" x="482.5" y="-513.8" font-family="Helvetica,sans-Serif" font-size="14.00" fill="#000000">gini = 0.149</text>
<text text-anchor="start" x="477" y="-498.8" font-family="Helvetica,sans-Serif" font-size="14.00" fill="#000000">samples = 37</text>
<text text-anchor="start" x="467.5" y="-483.8" font-family="Helvetica,sans-Serif" font-size="14.00" fill="#000000">value = [0, 34, 3]</text>
<text text-anchor="start" x="453" y="-468.8" font-family="Helvetica,sans-Serif" font-size="14.00" fill="#000000">class = Iris_versicolor</text>
</g>
<!-- 2&#45;&gt;3 -->
<g id="edge3" class="edge">
<title>2&#45;&gt;3</title>
<path fill="none" stroke="#000000" d="M570.0199,-579.8796C564.1469,-571.1434 557.8927,-561.8404 551.8321,-552.8253"/>
<polygon fill="#000000" stroke="#000000" points="554.5834,-550.6444 546.0995,-544.2981 548.7741,-554.5498 554.5834,-550.6444"/>
</g>
<!-- 14 -->
<g id="node15" class="node">
<title>14</title>
<path fill="#853fe6" stroke="#000000" d="M735,-544C735,-544 621,-544 621,-544 615,-544 609,-538 609,-532 609,-532 609,-473 609,-473 609,-467 615,-461 621,-461 621,-461 735,-461 735,-461 741,-461 747,-467 747,-473 747,-473 747,-532 747,-532 747,-538 741,-544 735,-544"/>
<text text-anchor="start" x="623.5" y="-528.8" font-family="Helvetica,sans-Serif" font-size="14.00" fill="#000000">petallength ≤ 4.85</text>
<text text-anchor="start" x="642.5" y="-513.8" font-family="Helvetica,sans-Serif" font-size="14.00" fill="#000000">gini = 0.056</text>
<text text-anchor="start" x="637" y="-498.8" font-family="Helvetica,sans-Serif" font-size="14.00" fill="#000000">samples = 35</text>
<text text-anchor="start" x="627.5" y="-483.8" font-family="Helvetica,sans-Serif" font-size="14.00" fill="#000000">value = [0, 1, 34]</text>
<text text-anchor="start" x="617" y="-468.8" font-family="Helvetica,sans-Serif" font-size="14.00" fill="#000000">class = Iris_virginica</text>
</g>
<!-- 2&#45;&gt;14 -->
<g id="edge14" class="edge">
<title>2&#45;&gt;14</title>
<path fill="none" stroke="#000000" d="M625.9801,-579.8796C631.8531,-571.1434 638.1073,-561.8404 644.1679,-552.8253"/>
<polygon fill="#000000" stroke="#000000" points="647.2259,-554.5498 649.9005,-544.2981 641.4166,-550.6444 647.2259,-554.5498"/>
</g>
<!-- 4 -->
<g id="node5" class="node">
<title>4</title>
<path fill="#45e788" stroke="#000000" d="M421,-425C421,-425 299,-425 299,-425 293,-425 287,-419 287,-413 287,-413 287,-354 287,-354 287,-348 293,-342 299,-342 299,-342 421,-342 421,-342 427,-342 433,-348 433,-354 433,-354 433,-413 433,-413 433,-419 427,-425 421,-425"/>
<text text-anchor="start" x="308.5" y="-409.8" font-family="Helvetica,sans-Serif" font-size="14.00" fill="#000000">petalwidth ≤ 1.65</text>
<text text-anchor="start" x="324.5" y="-394.8" font-family="Helvetica,sans-Serif" font-size="14.00" fill="#000000">gini = 0.105</text>
<text text-anchor="start" x="319" y="-379.8" font-family="Helvetica,sans-Serif" font-size="14.00" fill="#000000">samples = 36</text>
<text text-anchor="start" x="309.5" y="-364.8" font-family="Helvetica,sans-Serif" font-size="14.00" fill="#000000">value = [0, 34, 2]</text>
<text text-anchor="start" x="295" y="-349.8" font-family="Helvetica,sans-Serif" font-size="14.00" fill="#000000">class = Iris_versicolor</text>
</g>
<!-- 3&#45;&gt;4 -->
<g id="edge4" class="edge">
<title>3&#45;&gt;4</title>
<path fill="none" stroke="#000000" d="M462.7393,-460.8796C449.9901,-451.2774 436.3317,-440.9903 423.2709,-431.1534"/>
<polygon fill="#000000" stroke="#000000" points="425.3231,-428.3174 415.2295,-425.0969 421.1117,-433.9089 425.3231,-428.3174"/>
</g>
<!-- 13 -->
<g id="node14" class="node">
<title>13</title>
<path fill="#8139e5" stroke="#000000" d="M577,-417.5C577,-417.5 463,-417.5 463,-417.5 457,-417.5 451,-411.5 451,-405.5 451,-405.5 451,-361.5 451,-361.5 451,-355.5 457,-349.5 463,-349.5 463,-349.5 577,-349.5 577,-349.5 583,-349.5 589,-355.5 589,-361.5 589,-361.5 589,-405.5 589,-405.5 589,-411.5 583,-417.5 577,-417.5"/>
<text text-anchor="start" x="492" y="-402.3" font-family="Helvetica,sans-Serif" font-size="14.00" fill="#000000">gini = 0.0</text>
<text text-anchor="start" x="482.5" y="-387.3" font-family="Helvetica,sans-Serif" font-size="14.00" fill="#000000">samples = 1</text>
<text text-anchor="start" x="473" y="-372.3" font-family="Helvetica,sans-Serif" font-size="14.00" fill="#000000">value = [0, 0, 1]</text>
<text text-anchor="start" x="459" y="-357.3" font-family="Helvetica,sans-Serif" font-size="14.00" fill="#000000">class = Iris_virginica</text>
</g>
<!-- 3&#45;&gt;13 -->
<g id="edge13" class="edge">
<title>3&#45;&gt;13</title>
<path fill="none" stroke="#000000" d="M518.6995,-460.8796C518.8788,-450.2134 519.0722,-438.7021 519.2538,-427.9015"/>
<polygon fill="#000000" stroke="#000000" points="522.7546,-427.8724 519.4233,-417.8149 515.7556,-427.7547 522.7546,-427.8724"/>
</g>
<!-- 5 -->
<g id="node6" class="node">
<title>5</title>
<path fill="#3fe685" stroke="#000000" d="M297,-306C297,-306 175,-306 175,-306 169,-306 163,-300 163,-294 163,-294 163,-235 163,-235 163,-229 169,-223 175,-223 175,-223 297,-223 297,-223 303,-223 309,-229 309,-235 309,-235 309,-294 309,-294 309,-300 303,-306 297,-306"/>
<text text-anchor="start" x="181.5" y="-290.8" font-family="Helvetica,sans-Serif" font-size="14.00" fill="#000000">petallength ≤ 4.95</text>
<text text-anchor="start" x="200.5" y="-275.8" font-family="Helvetica,sans-Serif" font-size="14.00" fill="#000000">gini = 0.057</text>
<text text-anchor="start" x="195" y="-260.8" font-family="Helvetica,sans-Serif" font-size="14.00" fill="#000000">samples = 34</text>
<text text-anchor="start" x="185.5" y="-245.8" font-family="Helvetica,sans-Serif" font-size="14.00" fill="#000000">value = [0, 33, 1]</text>
<text text-anchor="start" x="171" y="-230.8" font-family="Helvetica,sans-Serif" font-size="14.00" fill="#000000">class = Iris_versicolor</text>
</g>
<!-- 4&#45;&gt;5 -->
<g id="edge5" class="edge">
<title>4&#45;&gt;5</title>
<path fill="none" stroke="#000000" d="M316.6308,-341.8796C307.0584,-332.6931 296.8328,-322.8798 286.9897,-313.4336"/>
<polygon fill="#000000" stroke="#000000" points="289.1928,-310.6969 279.5543,-306.2981 284.3459,-315.7475 289.1928,-310.6969"/>
</g>
<!-- 10 -->
<g id="node11" class="node">
<title>10</title>
<path fill="#ffffff" stroke="#000000" d="M461,-306C461,-306 339,-306 339,-306 333,-306 327,-300 327,-294 327,-294 327,-235 327,-235 327,-229 333,-223 339,-223 339,-223 461,-223 461,-223 467,-223 473,-229 473,-235 473,-235 473,-294 473,-294 473,-300 467,-306 461,-306"/>
<text text-anchor="start" x="345.5" y="-290.8" font-family="Helvetica,sans-Serif" font-size="14.00" fill="#000000">petallength ≤ 4.75</text>
<text text-anchor="start" x="372" y="-275.8" font-family="Helvetica,sans-Serif" font-size="14.00" fill="#000000">gini = 0.5</text>
<text text-anchor="start" x="362.5" y="-260.8" font-family="Helvetica,sans-Serif" font-size="14.00" fill="#000000">samples = 2</text>
<text text-anchor="start" x="353" y="-245.8" font-family="Helvetica,sans-Serif" font-size="14.00" fill="#000000">value = [0, 1, 1]</text>
<text text-anchor="start" x="335" y="-230.8" font-family="Helvetica,sans-Serif" font-size="14.00" fill="#000000">class = Iris_versicolor</text>
</g>
<!-- 4&#45;&gt;10 -->
<g id="edge10" class="edge">
<title>4&#45;&gt;10</title>
<path fill="none" stroke="#000000" d="M373.9901,-341.8796C376.8055,-333.5037 379.7961,-324.6067 382.7086,-315.942"/>
<polygon fill="#000000" stroke="#000000" points="386.0816,-316.8921 385.9502,-306.2981 379.4464,-314.6617 386.0816,-316.8921"/>
</g>
<!-- 6 -->
<g id="node7" class="node">
<title>6</title>
<path fill="#39e581" stroke="#000000" d="M134,-179.5C134,-179.5 12,-179.5 12,-179.5 6,-179.5 0,-173.5 0,-167.5 0,-167.5 0,-123.5 0,-123.5 0,-117.5 6,-111.5 12,-111.5 12,-111.5 134,-111.5 134,-111.5 140,-111.5 146,-117.5 146,-123.5 146,-123.5 146,-167.5 146,-167.5 146,-173.5 140,-179.5 134,-179.5"/>
<text text-anchor="start" x="45" y="-164.3" font-family="Helvetica,sans-Serif" font-size="14.00" fill="#000000">gini = 0.0</text>
<text text-anchor="start" x="32" y="-149.3" font-family="Helvetica,sans-Serif" font-size="14.00" fill="#000000">samples = 32</text>
<text text-anchor="start" x="22.5" y="-134.3" font-family="Helvetica,sans-Serif" font-size="14.00" fill="#000000">value = [0, 32, 0]</text>
<text text-anchor="start" x="8" y="-119.3" font-family="Helvetica,sans-Serif" font-size="14.00" fill="#000000">class = Iris_versicolor</text>
</g>
<!-- 5&#45;&gt;6 -->
<g id="edge6" class="edge">
<title>5&#45;&gt;6</title>
<path fill="none" stroke="#000000" d="M178.9905,-222.8796C162.4949,-210.8368 144.5237,-197.7167 128.1441,-185.7586"/>
<polygon fill="#000000" stroke="#000000" points="129.8804,-182.6927 119.74,-179.623 125.7528,-188.3463 129.8804,-182.6927"/>
</g>
<!-- 7 -->
<g id="node8" class="node">
<title>7</title>
<path fill="#ffffff" stroke="#000000" d="M298,-187C298,-187 176,-187 176,-187 170,-187 164,-181 164,-175 164,-175 164,-116 164,-116 164,-110 170,-104 176,-104 176,-104 298,-104 298,-104 304,-104 310,-110 310,-116 310,-116 310,-175 310,-175 310,-181 304,-187 298,-187"/>
<text text-anchor="start" x="184" y="-171.8" font-family="Helvetica,sans-Serif" font-size="14.00" fill="#000000">sepalwidth ≤ 2.45</text>
<text text-anchor="start" x="209" y="-156.8" font-family="Helvetica,sans-Serif" font-size="14.00" fill="#000000">gini = 0.5</text>
<text text-anchor="start" x="199.5" y="-141.8" font-family="Helvetica,sans-Serif" font-size="14.00" fill="#000000">samples = 2</text>
<text text-anchor="start" x="190" y="-126.8" font-family="Helvetica,sans-Serif" font-size="14.00" fill="#000000">value = [0, 1, 1]</text>
<text text-anchor="start" x="172" y="-111.8" font-family="Helvetica,sans-Serif" font-size="14.00" fill="#000000">class = Iris_versicolor</text>
</g>
<!-- 5&#45;&gt;7 -->
<g id="edge7" class="edge">
<title>5&#45;&gt;7</title>
<path fill="none" stroke="#000000" d="M236.3498,-222.8796C236.4186,-214.6838 236.4917,-205.9891 236.563,-197.5013"/>
<polygon fill="#000000" stroke="#000000" points="240.0645,-197.3272 236.6488,-187.2981 233.0648,-197.2683 240.0645,-197.3272"/>
</g>
<!-- 8 -->
<g id="node9" class="node">
<title>8</title>
<path fill="#8139e5" stroke="#000000" d="M214,-68C214,-68 100,-68 100,-68 94,-68 88,-62 88,-56 88,-56 88,-12 88,-12 88,-6 94,0 100,0 100,0 214,0 214,0 220,0 226,-6 226,-12 226,-12 226,-56 226,-56 226,-62 220,-68 214,-68"/>
<text text-anchor="start" x="129" y="-52.8" font-family="Helvetica,sans-Serif" font-size="14.00" fill="#000000">gini = 0.0</text>
<text text-anchor="start" x="119.5" y="-37.8" font-family="Helvetica,sans-Serif" font-size="14.00" fill="#000000">samples = 1</text>
<text text-anchor="start" x="110" y="-22.8" font-family="Helvetica,sans-Serif" font-size="14.00" fill="#000000">value = [0, 0, 1]</text>
<text text-anchor="start" x="96" y="-7.8" font-family="Helvetica,sans-Serif" font-size="14.00" fill="#000000">class = Iris_virginica</text>
</g>
<!-- 7&#45;&gt;8 -->
<g id="edge8" class="edge">
<title>7&#45;&gt;8</title>
<path fill="none" stroke="#000000" d="M207.211,-103.9815C200.7486,-94.9747 193.9052,-85.4367 187.419,-76.3965"/>
<polygon fill="#000000" stroke="#000000" points="190.2572,-74.3483 181.5838,-68.2637 184.5697,-78.4291 190.2572,-74.3483"/>
</g>
<!-- 9 -->
<g id="node10" class="node">
<title>9</title>
<path fill="#39e581" stroke="#000000" d="M378,-68C378,-68 256,-68 256,-68 250,-68 244,-62 244,-56 244,-56 244,-12 244,-12 244,-6 250,0 256,0 256,0 378,0 378,0 384,0 390,-6 390,-12 390,-12 390,-56 390,-56 390,-62 384,-68 378,-68"/>
<text text-anchor="start" x="289" y="-52.8" font-family="Helvetica,sans-Serif" font-size="14.00" fill="#000000">gini = 0.0</text>
<text text-anchor="start" x="279.5" y="-37.8" font-family="Helvetica,sans-Serif" font-size="14.00" fill="#000000">samples = 1</text>
<text text-anchor="start" x="270" y="-22.8" font-family="Helvetica,sans-Serif" font-size="14.00" fill="#000000">value = [0, 1, 0]</text>
<text text-anchor="start" x="252" y="-7.8" font-family="Helvetica,sans-Serif" font-size="14.00" fill="#000000">class = Iris_versicolor</text>
</g>
<!-- 7&#45;&gt;9 -->
<g id="edge9" class="edge">
<title>7&#45;&gt;9</title>
<path fill="none" stroke="#000000" d="M266.789,-103.9815C273.2514,-94.9747 280.0948,-85.4367 286.581,-76.3965"/>
<polygon fill="#000000" stroke="#000000" points="289.4303,-78.4291 292.4162,-68.2637 283.7428,-74.3483 289.4303,-78.4291"/>
</g>
<!-- 11 -->
<g id="node12" class="node">
<title>11</title>
<path fill="#8139e5" stroke="#000000" d="M456,-179.5C456,-179.5 342,-179.5 342,-179.5 336,-179.5 330,-173.5 330,-167.5 330,-167.5 330,-123.5 330,-123.5 330,-117.5 336,-111.5 342,-111.5 342,-111.5 456,-111.5 456,-111.5 462,-111.5 468,-117.5 468,-123.5 468,-123.5 468,-167.5 468,-167.5 468,-173.5 462,-179.5 456,-179.5"/>
<text text-anchor="start" x="371" y="-164.3" font-family="Helvetica,sans-Serif" font-size="14.00" fill="#000000">gini = 0.0</text>
<text text-anchor="start" x="361.5" y="-149.3" font-family="Helvetica,sans-Serif" font-size="14.00" fill="#000000">samples = 1</text>
<text text-anchor="start" x="352" y="-134.3" font-family="Helvetica,sans-Serif" font-size="14.00" fill="#000000">value = [0, 0, 1]</text>
<text text-anchor="start" x="338" y="-119.3" font-family="Helvetica,sans-Serif" font-size="14.00" fill="#000000">class = Iris_virginica</text>
</g>
<!-- 10&#45;&gt;11 -->
<g id="edge11" class="edge">
<title>10&#45;&gt;11</title>
<path fill="none" stroke="#000000" d="M399.6502,-222.8796C399.5606,-212.2134 399.4639,-200.7021 399.3731,-189.9015"/>
<polygon fill="#000000" stroke="#000000" points="402.8724,-189.7851 399.2884,-179.8149 395.8726,-189.844 402.8724,-189.7851"/>
</g>
<!-- 12 -->
<g id="node13" class="node">
<title>12</title>
<path fill="#39e581" stroke="#000000" d="M620,-179.5C620,-179.5 498,-179.5 498,-179.5 492,-179.5 486,-173.5 486,-167.5 486,-167.5 486,-123.5 486,-123.5 486,-117.5 492,-111.5 498,-111.5 498,-111.5 620,-111.5 620,-111.5 626,-111.5 632,-117.5 632,-123.5 632,-123.5 632,-167.5 632,-167.5 632,-173.5 626,-179.5 620,-179.5"/>
<text text-anchor="start" x="531" y="-164.3" font-family="Helvetica,sans-Serif" font-size="14.00" fill="#000000">gini = 0.0</text>
<text text-anchor="start" x="521.5" y="-149.3" font-family="Helvetica,sans-Serif" font-size="14.00" fill="#000000">samples = 1</text>
<text text-anchor="start" x="512" y="-134.3" font-family="Helvetica,sans-Serif" font-size="14.00" fill="#000000">value = [0, 1, 0]</text>
<text text-anchor="start" x="494" y="-119.3" font-family="Helvetica,sans-Serif" font-size="14.00" fill="#000000">class = Iris_versicolor</text>
</g>
<!-- 10&#45;&gt;12 -->
<g id="edge12" class="edge">
<title>10&#45;&gt;12</title>
<path fill="none" stroke="#000000" d="M455.6105,-222.8796C471.7013,-210.8368 489.2315,-197.7167 505.2091,-185.7586"/>
<polygon fill="#000000" stroke="#000000" points="507.4982,-188.4171 513.407,-179.623 503.3038,-182.8129 507.4982,-188.4171"/>
</g>
<!-- 15 -->
<g id="node16" class="node">
<title>15</title>
<path fill="#c09cf2" stroke="#000000" d="M734,-425C734,-425 620,-425 620,-425 614,-425 608,-419 608,-413 608,-413 608,-354 608,-354 608,-348 614,-342 620,-342 620,-342 734,-342 734,-342 740,-342 746,-348 746,-354 746,-354 746,-413 746,-413 746,-419 740,-425 734,-425"/>
<text text-anchor="start" x="627.5" y="-409.8" font-family="Helvetica,sans-Serif" font-size="14.00" fill="#000000">sepalwidth ≤ 3.1</text>
<text text-anchor="start" x="641.5" y="-394.8" font-family="Helvetica,sans-Serif" font-size="14.00" fill="#000000">gini = 0.444</text>
<text text-anchor="start" x="639.5" y="-379.8" font-family="Helvetica,sans-Serif" font-size="14.00" fill="#000000">samples = 3</text>
<text text-anchor="start" x="630" y="-364.8" font-family="Helvetica,sans-Serif" font-size="14.00" fill="#000000">value = [0, 1, 2]</text>
<text text-anchor="start" x="616" y="-349.8" font-family="Helvetica,sans-Serif" font-size="14.00" fill="#000000">class = Iris_virginica</text>
</g>
<!-- 14&#45;&gt;15 -->
<g id="edge15" class="edge">
<title>14&#45;&gt;15</title>
<path fill="none" stroke="#000000" d="M677.6502,-460.8796C677.5814,-452.6838 677.5083,-443.9891 677.437,-435.5013"/>
<polygon fill="#000000" stroke="#000000" points="680.9352,-435.2683 677.3512,-425.2981 673.9355,-435.3272 680.9352,-435.2683"/>
</g>
<!-- 18 -->
<g id="node19" class="node">
<title>18</title>
<path fill="#8139e5" stroke="#000000" d="M890,-417.5C890,-417.5 776,-417.5 776,-417.5 770,-417.5 764,-411.5 764,-405.5 764,-405.5 764,-361.5 764,-361.5 764,-355.5 770,-349.5 776,-349.5 776,-349.5 890,-349.5 890,-349.5 896,-349.5 902,-355.5 902,-361.5 902,-361.5 902,-405.5 902,-405.5 902,-411.5 896,-417.5 890,-417.5"/>
<text text-anchor="start" x="805" y="-402.3" font-family="Helvetica,sans-Serif" font-size="14.00" fill="#000000">gini = 0.0</text>
<text text-anchor="start" x="792" y="-387.3" font-family="Helvetica,sans-Serif" font-size="14.00" fill="#000000">samples = 32</text>
<text text-anchor="start" x="782.5" y="-372.3" font-family="Helvetica,sans-Serif" font-size="14.00" fill="#000000">value = [0, 0, 32]</text>
<text text-anchor="start" x="772" y="-357.3" font-family="Helvetica,sans-Serif" font-size="14.00" fill="#000000">class = Iris_virginica</text>
</g>
<!-- 14&#45;&gt;18 -->
<g id="edge18" class="edge">
<title>14&#45;&gt;18</title>
<path fill="none" stroke="#000000" d="M732.2115,-460.8796C747.8231,-448.8938 764.8247,-435.841 780.3408,-423.9287"/>
<polygon fill="#000000" stroke="#000000" points="782.5035,-426.6808 788.3041,-417.8149 778.2407,-421.1285 782.5035,-426.6808"/>
</g>
<!-- 16 -->
<g id="node17" class="node">
<title>16</title>
<path fill="#8139e5" stroke="#000000" d="M695,-298.5C695,-298.5 581,-298.5 581,-298.5 575,-298.5 569,-292.5 569,-286.5 569,-286.5 569,-242.5 569,-242.5 569,-236.5 575,-230.5 581,-230.5 581,-230.5 695,-230.5 695,-230.5 701,-230.5 707,-236.5 707,-242.5 707,-242.5 707,-286.5 707,-286.5 707,-292.5 701,-298.5 695,-298.5"/>
<text text-anchor="start" x="610" y="-283.3" font-family="Helvetica,sans-Serif" font-size="14.00" fill="#000000">gini = 0.0</text>
<text text-anchor="start" x="600.5" y="-268.3" font-family="Helvetica,sans-Serif" font-size="14.00" fill="#000000">samples = 2</text>
<text text-anchor="start" x="591" y="-253.3" font-family="Helvetica,sans-Serif" font-size="14.00" fill="#000000">value = [0, 0, 2]</text>
<text text-anchor="start" x="577" y="-238.3" font-family="Helvetica,sans-Serif" font-size="14.00" fill="#000000">class = Iris_virginica</text>
</g>
<!-- 15&#45;&gt;16 -->
<g id="edge16" class="edge">
<title>15&#45;&gt;16</title>
<path fill="none" stroke="#000000" d="M663.3597,-341.8796C659.828,-331.1034 656.0136,-319.4647 652.4424,-308.5677"/>
<polygon fill="#000000" stroke="#000000" points="655.6864,-307.2276 649.2461,-298.8149 649.0345,-309.4077 655.6864,-307.2276"/>
</g>
<!-- 17 -->
<g id="node18" class="node">
<title>17</title>
<path fill="#39e581" stroke="#000000" d="M859,-298.5C859,-298.5 737,-298.5 737,-298.5 731,-298.5 725,-292.5 725,-286.5 725,-286.5 725,-242.5 725,-242.5 725,-236.5 731,-230.5 737,-230.5 737,-230.5 859,-230.5 859,-230.5 865,-230.5 871,-236.5 871,-242.5 871,-242.5 871,-286.5 871,-286.5 871,-292.5 865,-298.5 859,-298.5"/>
<text text-anchor="start" x="770" y="-283.3" font-family="Helvetica,sans-Serif" font-size="14.00" fill="#000000">gini = 0.0</text>
<text text-anchor="start" x="760.5" y="-268.3" font-family="Helvetica,sans-Serif" font-size="14.00" fill="#000000">samples = 1</text>
<text text-anchor="start" x="751" y="-253.3" font-family="Helvetica,sans-Serif" font-size="14.00" fill="#000000">value = [0, 1, 0]</text>
<text text-anchor="start" x="733" y="-238.3" font-family="Helvetica,sans-Serif" font-size="14.00" fill="#000000">class = Iris_versicolor</text>
</g>
<!-- 15&#45;&gt;17 -->
<g id="edge17" class="edge">
<title>15&#45;&gt;17</title>
<path fill="none" stroke="#000000" d="M719.3199,-341.8796C731.1717,-330.2237 744.0495,-317.5587 755.8891,-305.9148"/>
<polygon fill="#000000" stroke="#000000" points="758.4327,-308.3223 763.1083,-298.8149 753.5244,-303.3314 758.4327,-308.3223"/>
</g>
</g>
</svg>
