<?xml version="1.0" encoding="UTF-8" standalone="no"?>
<!DOCTYPE svg PUBLIC "-//W3C//DTD SVG 1.1//EN"
 "http://www.w3.org/Graphics/SVG/1.1/DTD/svg11.dtd">
<!-- Generated by graphviz version 2.40.1 (20161225.0304)
 -->
<!-- Title: Tree Pages: 1 -->
<svg width="450pt" height="552pt"
 viewBox="0.00 0.00 449.50 552.00" xmlns="http://www.w3.org/2000/svg" xmlns:xlink="http://www.w3.org/1999/xlink">
<g id="graph0" class="graph" transform="scale(1 1) rotate(0) translate(4 548)">
<title>Tree</title>
<polygon fill="#ffffff" stroke="transparent" points="-4,4 -4,-548 445.5,-548 445.5,4 -4,4"/>
<!-- 0 -->
<g id="node1" class="node">
<title>0</title>
<path fill="#a7d3f3" stroke="#000000" d="M429.5,-544C429.5,-544 181.5,-544 181.5,-544 175.5,-544 169.5,-538 169.5,-532 169.5,-532 169.5,-473 169.5,-473 169.5,-467 175.5,-461 181.5,-461 181.5,-461 429.5,-461 429.5,-461 435.5,-461 441.5,-467 441.5,-473 441.5,-473 441.5,-532 441.5,-532 441.5,-538 435.5,-544 429.5,-544"/>
<text text-anchor="start" x="177.5" y="-528.8" font-family="Helvetica,sans-Serif" font-size="14.00" fill="#000000">no_longterm_disability_assistance ≤ 0.643</text>
<text text-anchor="start" x="270" y="-513.8" font-family="Helvetica,sans-Serif" font-size="14.00" fill="#000000">gini = 0.459</text>
<text text-anchor="start" x="264.5" y="-498.8" font-family="Helvetica,sans-Serif" font-size="14.00" fill="#000000">samples = 42</text>
<text text-anchor="start" x="258.5" y="-483.8" font-family="Helvetica,sans-Serif" font-size="14.00" fill="#000000">value = [15, 27]</text>
<text text-anchor="start" x="267" y="-468.8" font-family="Helvetica,sans-Serif" font-size="14.00" fill="#000000">class = good</text>
</g>
<!-- 1 -->
<g id="node2" class="node">
<title>1</title>
<path fill="#6cb6ec" stroke="#000000" d="M312,-425C312,-425 131,-425 131,-425 125,-425 119,-419 119,-413 119,-413 119,-354 119,-354 119,-348 125,-342 131,-342 131,-342 312,-342 312,-342 318,-342 324,-348 324,-354 324,-354 324,-413 324,-413 324,-419 318,-425 312,-425"/>
<text text-anchor="start" x="127" y="-409.8" font-family="Helvetica,sans-Serif" font-size="14.00" fill="#000000">wage_increase_first_year ≤ 2.9</text>
<text text-anchor="start" x="186" y="-394.8" font-family="Helvetica,sans-Serif" font-size="14.00" fill="#000000">gini = 0.327</text>
<text text-anchor="start" x="180.5" y="-379.8" font-family="Helvetica,sans-Serif" font-size="14.00" fill="#000000">samples = 34</text>
<text text-anchor="start" x="178.5" y="-364.8" font-family="Helvetica,sans-Serif" font-size="14.00" fill="#000000">value = [7, 27]</text>
<text text-anchor="start" x="183" y="-349.8" font-family="Helvetica,sans-Serif" font-size="14.00" fill="#000000">class = good</text>
</g>
<!-- 0&#45;&gt;1 -->
<g id="edge1" class="edge">
<title>0&#45;&gt;1</title>
<path fill="none" stroke="#000000" d="M276.1209,-460.8796C269.8906,-452.0534 263.2519,-442.6485 256.827,-433.5466"/>
<polygon fill="#000000" stroke="#000000" points="259.6308,-431.4494 251.0045,-425.2981 253.912,-435.4862 259.6308,-431.4494"/>
<text text-anchor="middle" x="246.7568" y="-446.2346" font-family="Helvetica,sans-Serif" font-size="14.00" fill="#000000">True</text>
</g>
<!-- 8 -->
<g id="node9" class="node">
<title>8</title>
<path fill="#e58139" stroke="#000000" d="M425,-417.5C425,-417.5 354,-417.5 354,-417.5 348,-417.5 342,-411.5 342,-405.5 342,-405.5 342,-361.5 342,-361.5 342,-355.5 348,-349.5 354,-349.5 354,-349.5 425,-349.5 425,-349.5 431,-349.5 437,-355.5 437,-361.5 437,-361.5 437,-405.5 437,-405.5 437,-411.5 431,-417.5 425,-417.5"/>
<text text-anchor="start" x="361.5" y="-402.3" font-family="Helvetica,sans-Serif" font-size="14.00" fill="#000000">gini = 0.0</text>
<text text-anchor="start" x="352" y="-387.3" font-family="Helvetica,sans-Serif" font-size="14.00" fill="#000000">samples = 8</text>
<text text-anchor="start" x="350" y="-372.3" font-family="Helvetica,sans-Serif" font-size="14.00" fill="#000000">value = [8, 0]</text>
<text text-anchor="start" x="354.5" y="-357.3" font-family="Helvetica,sans-Serif" font-size="14.00" fill="#000000">class = bad</text>
</g>
<!-- 0&#45;&gt;8 -->
<g id="edge8" class="edge">
<title>0&#45;&gt;8</title>
<path fill="none" stroke="#000000" d="M334.8791,-460.8796C342.7963,-449.6636 351.3731,-437.5131 359.3325,-426.2372"/>
<polygon fill="#000000" stroke="#000000" points="362.3702,-428.003 365.2777,-417.8149 356.6514,-423.9662 362.3702,-428.003"/>
<text text-anchor="middle" x="369.5254" y="-438.7514" font-family="Helvetica,sans-Serif" font-size="14.00" fill="#000000">False</text>
</g>
<!-- 2 -->
<g id="node3" class="node">
<title>2</title>
<path fill="#f0b78e" stroke="#000000" d="M220.5,-306C220.5,-306 62.5,-306 62.5,-306 56.5,-306 50.5,-300 50.5,-294 50.5,-294 50.5,-235 50.5,-235 50.5,-229 56.5,-223 62.5,-223 62.5,-223 220.5,-223 220.5,-223 226.5,-223 232.5,-229 232.5,-235 232.5,-235 232.5,-294 232.5,-294 232.5,-300 226.5,-306 220.5,-306"/>
<text text-anchor="start" x="58.5" y="-290.8" font-family="Helvetica,sans-Serif" font-size="14.00" fill="#000000">statutory_holidays ≤ 11.047</text>
<text text-anchor="start" x="109.5" y="-275.8" font-family="Helvetica,sans-Serif" font-size="14.00" fill="#000000">gini = 0.42</text>
<text text-anchor="start" x="100.5" y="-260.8" font-family="Helvetica,sans-Serif" font-size="14.00" fill="#000000">samples = 10</text>
<text text-anchor="start" x="102" y="-245.8" font-family="Helvetica,sans-Serif" font-size="14.00" fill="#000000">value = [7, 3]</text>
<text text-anchor="start" x="106.5" y="-230.8" font-family="Helvetica,sans-Serif" font-size="14.00" fill="#000000">class = bad</text>
</g>
<!-- 1&#45;&gt;2 -->
<g id="edge2" class="edge">
<title>1&#45;&gt;2</title>
<path fill="none" stroke="#000000" d="M193.5199,-341.8796C187.6469,-333.1434 181.3927,-323.8404 175.3321,-314.8253"/>
<polygon fill="#000000" stroke="#000000" points="178.0834,-312.6444 169.5995,-306.2981 172.2741,-316.5498 178.0834,-312.6444"/>
</g>
<!-- 7 -->
<g id="node8" class="node">
<title>7</title>
<path fill="#399de5" stroke="#000000" d="M340.5,-298.5C340.5,-298.5 262.5,-298.5 262.5,-298.5 256.5,-298.5 250.5,-292.5 250.5,-286.5 250.5,-286.5 250.5,-242.5 250.5,-242.5 250.5,-236.5 256.5,-230.5 262.5,-230.5 262.5,-230.5 340.5,-230.5 340.5,-230.5 346.5,-230.5 352.5,-236.5 352.5,-242.5 352.5,-242.5 352.5,-286.5 352.5,-286.5 352.5,-292.5 346.5,-298.5 340.5,-298.5"/>
<text text-anchor="start" x="273.5" y="-283.3" font-family="Helvetica,sans-Serif" font-size="14.00" fill="#000000">gini = 0.0</text>
<text text-anchor="start" x="260.5" y="-268.3" font-family="Helvetica,sans-Serif" font-size="14.00" fill="#000000">samples = 24</text>
<text text-anchor="start" x="258.5" y="-253.3" font-family="Helvetica,sans-Serif" font-size="14.00" fill="#000000">value = [0, 24]</text>
<text text-anchor="start" x="263" y="-238.3" font-family="Helvetica,sans-Serif" font-size="14.00" fill="#000000">class = good</text>
</g>
<!-- 1&#45;&gt;7 -->
<g id="edge7" class="edge">
<title>1&#45;&gt;7</title>
<path fill="none" stroke="#000000" d="M249.4801,-341.8796C257.0203,-330.6636 265.1887,-318.5131 272.7691,-307.2372"/>
<polygon fill="#000000" stroke="#000000" points="275.7566,-309.0667 278.4311,-298.8149 269.9473,-305.1612 275.7566,-309.0667"/>
</g>
<!-- 3 -->
<g id="node4" class="node">
<title>3</title>
<path fill="#e58139" stroke="#000000" d="M83,-179.5C83,-179.5 12,-179.5 12,-179.5 6,-179.5 0,-173.5 0,-167.5 0,-167.5 0,-123.5 0,-123.5 0,-117.5 6,-111.5 12,-111.5 12,-111.5 83,-111.5 83,-111.5 89,-111.5 95,-117.5 95,-123.5 95,-123.5 95,-167.5 95,-167.5 95,-173.5 89,-179.5 83,-179.5"/>
<text text-anchor="start" x="19.5" y="-164.3" font-family="Helvetica,sans-Serif" font-size="14.00" fill="#000000">gini = 0.0</text>
<text text-anchor="start" x="10" y="-149.3" font-family="Helvetica,sans-Serif" font-size="14.00" fill="#000000">samples = 5</text>
<text text-anchor="start" x="8" y="-134.3" font-family="Helvetica,sans-Serif" font-size="14.00" fill="#000000">value = [5, 0]</text>
<text text-anchor="start" x="12.5" y="-119.3" font-family="Helvetica,sans-Serif" font-size="14.00" fill="#000000">class = bad</text>
</g>
<!-- 2&#45;&gt;3 -->
<g id="edge3" class="edge">
<title>2&#45;&gt;3</title>
<path fill="none" stroke="#000000" d="M108.6234,-222.8796C99.6768,-211.5536 89.9776,-199.2748 80.9971,-187.9058"/>
<polygon fill="#000000" stroke="#000000" points="83.551,-185.4926 74.6059,-179.8149 78.058,-189.8316 83.551,-185.4926"/>
</g>
<!-- 4 -->
<g id="node5" class="node">
<title>4</title>
<path fill="#bddef6" stroke="#000000" d="M345.5,-187C345.5,-187 125.5,-187 125.5,-187 119.5,-187 113.5,-181 113.5,-175 113.5,-175 113.5,-116 113.5,-116 113.5,-110 119.5,-104 125.5,-104 125.5,-104 345.5,-104 345.5,-104 351.5,-104 357.5,-110 357.5,-116 357.5,-116 357.5,-175 357.5,-175 357.5,-181 351.5,-187 345.5,-187"/>
<text text-anchor="start" x="121.5" y="-171.8" font-family="Helvetica,sans-Serif" font-size="14.00" fill="#000000">cost_of_living_adjustment_tcf ≤ 0.108</text>
<text text-anchor="start" x="203.5" y="-156.8" font-family="Helvetica,sans-Serif" font-size="14.00" fill="#000000">gini = 0.48</text>
<text text-anchor="start" x="198" y="-141.8" font-family="Helvetica,sans-Serif" font-size="14.00" fill="#000000">samples = 5</text>
<text text-anchor="start" x="196" y="-126.8" font-family="Helvetica,sans-Serif" font-size="14.00" fill="#000000">value = [2, 3]</text>
<text text-anchor="start" x="197" y="-111.8" font-family="Helvetica,sans-Serif" font-size="14.00" fill="#000000">class = good</text>
</g>
<!-- 2&#45;&gt;4 -->
<g id="edge4" class="edge">
<title>2&#45;&gt;4</title>
<path fill="none" stroke="#000000" d="M174.3766,-222.8796C181.4197,-213.9633 188.9293,-204.4565 196.1874,-195.268"/>
<polygon fill="#000000" stroke="#000000" points="199.0309,-197.3147 202.483,-187.2981 193.5379,-192.9757 199.0309,-197.3147"/>
</g>
<!-- 5 -->
<g id="node6" class="node">
<title>5</title>
<path fill="#e58139" stroke="#000000" d="M214,-68C214,-68 143,-68 143,-68 137,-68 131,-62 131,-56 131,-56 131,-12 131,-12 131,-6 137,0 143,0 143,0 214,0 214,0 220,0 226,-6 226,-12 226,-12 226,-56 226,-56 226,-62 220,-68 214,-68"/>
<text text-anchor="start" x="150.5" y="-52.8" font-family="Helvetica,sans-Serif" font-size="14.00" fill="#000000">gini = 0.0</text>
<text text-anchor="start" x="141" y="-37.8" font-family="Helvetica,sans-Serif" font-size="14.00" fill="#000000">samples = 2</text>
<text text-anchor="start" x="139" y="-22.8" font-family="Helvetica,sans-Serif" font-size="14.00" fill="#000000">value = [2, 0]</text>
<text text-anchor="start" x="143.5" y="-7.8" font-family="Helvetica,sans-Serif" font-size="14.00" fill="#000000">class = bad</text>
</g>
<!-- 4&#45;&gt;5 -->
<g id="edge5" class="edge">
<title>4&#45;&gt;5</title>
<path fill="none" stroke="#000000" d="M214.2753,-103.9815C209.8119,-95.2504 205.0933,-86.0202 200.5987,-77.2281"/>
<polygon fill="#000000" stroke="#000000" points="203.6842,-75.5745 196.016,-68.2637 197.4514,-78.7608 203.6842,-75.5745"/>
</g>
<!-- 6 -->
<g id="node7" class="node">
<title>6</title>
<path fill="#399de5" stroke="#000000" d="M327,-68C327,-68 256,-68 256,-68 250,-68 244,-62 244,-56 244,-56 244,-12 244,-12 244,-6 250,0 256,0 256,0 327,0 327,0 333,0 339,-6 339,-12 339,-12 339,-56 339,-56 339,-62 333,-68 327,-68"/>
<text text-anchor="start" x="263.5" y="-52.8" font-family="Helvetica,sans-Serif" font-size="14.00" fill="#000000">gini = 0.0</text>
<text text-anchor="start" x="254" y="-37.8" font-family="Helvetica,sans-Serif" font-size="14.00" fill="#000000">samples = 3</text>
<text text-anchor="start" x="252" y="-22.8" font-family="Helvetica,sans-Serif" font-size="14.00" fill="#000000">value = [0, 3]</text>
<text text-anchor="start" x="253" y="-7.8" font-family="Helvetica,sans-Serif" font-size="14.00" fill="#000000">class = good</text>
</g>
<!-- 4&#45;&gt;6 -->
<g id="edge6" class="edge">
<title>4&#45;&gt;6</title>
<path fill="none" stroke="#000000" d="M256.3523,-103.9815C260.7375,-95.2504 265.3733,-86.0202 269.789,-77.2281"/>
<polygon fill="#000000" stroke="#000000" points="272.9308,-78.7708 274.2913,-68.2637 266.6754,-75.6291 272.9308,-78.7708"/>
</g>
</g>
</svg>
