<?xml version="1.0" encoding="UTF-8" standalone="no"?>
<!DOCTYPE svg PUBLIC "-//W3C//DTD SVG 1.1//EN"
 "http://www.w3.org/Graphics/SVG/1.1/DTD/svg11.dtd">
<!-- Generated by graphviz version 2.40.1 (20161225.0304)
 -->
<!-- Title: Tree Pages: 1 -->
<svg width="589pt" height="552pt"
 viewBox="0.00 0.00 589.00 552.00" xmlns="http://www.w3.org/2000/svg" xmlns:xlink="http://www.w3.org/1999/xlink">
<g id="graph0" class="graph" transform="scale(1 1) rotate(0) translate(4 548)">
<title>Tree</title>
<polygon fill="#ffffff" stroke="transparent" points="-4,4 -4,-548 585,-548 585,4 -4,4"/>
<!-- 0 -->
<g id="node1" class="node">
<title>0</title>
<path fill="#95f1bc" stroke="#000000" d="M281.5,-544C281.5,-544 116.5,-544 116.5,-544 110.5,-544 104.5,-538 104.5,-532 104.5,-532 104.5,-473 104.5,-473 104.5,-467 110.5,-461 116.5,-461 116.5,-461 281.5,-461 281.5,-461 287.5,-461 293.5,-467 293.5,-473 293.5,-473 293.5,-532 293.5,-532 293.5,-538 287.5,-544 281.5,-544"/>
<text text-anchor="start" x="112.5" y="-528.8" font-family="Helvetica,sans-Serif" font-size="14.00" fill="#000000">normal_tear_prod_rate ≤ 0.5</text>
<text text-anchor="start" x="163.5" y="-513.8" font-family="Helvetica,sans-Serif" font-size="14.00" fill="#000000">gini = 0.532</text>
<text text-anchor="start" x="158" y="-498.8" font-family="Helvetica,sans-Serif" font-size="14.00" fill="#000000">samples = 19</text>
<text text-anchor="start" x="148.5" y="-483.8" font-family="Helvetica,sans-Serif" font-size="14.00" fill="#000000">value = [3, 12, 4]</text>
<text text-anchor="start" x="164.5" y="-468.8" font-family="Helvetica,sans-Serif" font-size="14.00" fill="#000000">class = soft</text>
</g>
<!-- 1 -->
<g id="node2" class="node">
<title>1</title>
<path fill="#39e581" stroke="#000000" d="M174,-417.5C174,-417.5 88,-417.5 88,-417.5 82,-417.5 76,-411.5 76,-405.5 76,-405.5 76,-361.5 76,-361.5 76,-355.5 82,-349.5 88,-349.5 88,-349.5 174,-349.5 174,-349.5 180,-349.5 186,-355.5 186,-361.5 186,-361.5 186,-405.5 186,-405.5 186,-411.5 180,-417.5 174,-417.5"/>
<text text-anchor="start" x="103" y="-402.3" font-family="Helvetica,sans-Serif" font-size="14.00" fill="#000000">gini = 0.0</text>
<text text-anchor="start" x="93.5" y="-387.3" font-family="Helvetica,sans-Serif" font-size="14.00" fill="#000000">samples = 9</text>
<text text-anchor="start" x="84" y="-372.3" font-family="Helvetica,sans-Serif" font-size="14.00" fill="#000000">value = [0, 9, 0]</text>
<text text-anchor="start" x="96.5" y="-357.3" font-family="Helvetica,sans-Serif" font-size="14.00" fill="#000000">class = soft</text>
</g>
<!-- 0&#45;&gt;1 -->
<g id="edge1" class="edge">
<title>0&#45;&gt;1</title>
<path fill="none" stroke="#000000" d="M175.2169,-460.8796C168.8706,-449.7735 162.0007,-437.7513 155.6109,-426.5691"/>
<polygon fill="#000000" stroke="#000000" points="158.6088,-424.7609 150.6085,-417.8149 152.5311,-428.2339 158.6088,-424.7609"/>
<text text-anchor="middle" x="144.0306" y="-438.234" font-family="Helvetica,sans-Serif" font-size="14.00" fill="#000000">True</text>
</g>
<!-- 2 -->
<g id="node3" class="node">
<title>2</title>
<path fill="#ede3fb" stroke="#000000" d="M317.5,-425C317.5,-425 216.5,-425 216.5,-425 210.5,-425 204.5,-419 204.5,-413 204.5,-413 204.5,-354 204.5,-354 204.5,-348 210.5,-342 216.5,-342 216.5,-342 317.5,-342 317.5,-342 323.5,-342 329.5,-348 329.5,-354 329.5,-354 329.5,-413 329.5,-413 329.5,-419 323.5,-425 317.5,-425"/>
<text text-anchor="start" x="212.5" y="-409.8" font-family="Helvetica,sans-Serif" font-size="14.00" fill="#000000">astigmatism ≤ 0.5</text>
<text text-anchor="start" x="235" y="-394.8" font-family="Helvetica,sans-Serif" font-size="14.00" fill="#000000">gini = 0.66</text>
<text text-anchor="start" x="226" y="-379.8" font-family="Helvetica,sans-Serif" font-size="14.00" fill="#000000">samples = 10</text>
<text text-anchor="start" x="220" y="-364.8" font-family="Helvetica,sans-Serif" font-size="14.00" fill="#000000">value = [3, 3, 4]</text>
<text text-anchor="start" x="228.5" y="-349.8" font-family="Helvetica,sans-Serif" font-size="14.00" fill="#000000">class = none</text>
</g>
<!-- 0&#45;&gt;2 -->
<g id="edge2" class="edge">
<title>0&#45;&gt;2</title>
<path fill="none" stroke="#000000" d="M222.7831,-460.8796C227.7237,-452.2335 232.9816,-443.0322 238.0833,-434.1042"/>
<polygon fill="#000000" stroke="#000000" points="241.1928,-435.717 243.1154,-425.2981 235.1151,-432.244 241.1928,-435.717"/>
<text text-anchor="middle" x="249.6933" y="-445.7172" font-family="Helvetica,sans-Serif" font-size="14.00" fill="#000000">False</text>
</g>
<!-- 3 -->
<g id="node4" class="node">
<title>3</title>
<path fill="#a06aec" stroke="#000000" d="M241,-306C241,-306 149,-306 149,-306 143,-306 137,-300 137,-294 137,-294 137,-235 137,-235 137,-229 143,-223 149,-223 149,-223 241,-223 241,-223 247,-223 253,-229 253,-235 253,-235 253,-294 253,-294 253,-300 247,-306 241,-306"/>
<text text-anchor="start" x="145" y="-290.8" font-family="Helvetica,sans-Serif" font-size="14.00" fill="#000000">presbyopic ≤ 0.5</text>
<text text-anchor="start" x="163" y="-275.8" font-family="Helvetica,sans-Serif" font-size="14.00" fill="#000000">gini = 0.32</text>
<text text-anchor="start" x="157.5" y="-260.8" font-family="Helvetica,sans-Serif" font-size="14.00" fill="#000000">samples = 5</text>
<text text-anchor="start" x="148" y="-245.8" font-family="Helvetica,sans-Serif" font-size="14.00" fill="#000000">value = [0, 1, 4]</text>
<text text-anchor="start" x="156.5" y="-230.8" font-family="Helvetica,sans-Serif" font-size="14.00" fill="#000000">class = none</text>
</g>
<!-- 2&#45;&gt;3 -->
<g id="edge3" class="edge">
<title>2&#45;&gt;3</title>
<path fill="none" stroke="#000000" d="M241.8179,-341.8796C236.5867,-333.2335 231.0195,-324.0322 225.6177,-315.1042"/>
<polygon fill="#000000" stroke="#000000" points="228.4608,-313.0421 220.2896,-306.2981 222.4717,-316.6658 228.4608,-313.0421"/>
</g>
<!-- 8 -->
<g id="node9" class="node">
<title>8</title>
<path fill="#f6d5bd" stroke="#000000" d="M394.5,-306C394.5,-306 283.5,-306 283.5,-306 277.5,-306 271.5,-300 271.5,-294 271.5,-294 271.5,-235 271.5,-235 271.5,-229 277.5,-223 283.5,-223 283.5,-223 394.5,-223 394.5,-223 400.5,-223 406.5,-229 406.5,-235 406.5,-235 406.5,-294 406.5,-294 406.5,-300 400.5,-306 394.5,-306"/>
<text text-anchor="start" x="279.5" y="-290.8" font-family="Helvetica,sans-Serif" font-size="14.00" fill="#000000">hypermetrope ≤ 0.5</text>
<text text-anchor="start" x="307" y="-275.8" font-family="Helvetica,sans-Serif" font-size="14.00" fill="#000000">gini = 0.48</text>
<text text-anchor="start" x="301.5" y="-260.8" font-family="Helvetica,sans-Serif" font-size="14.00" fill="#000000">samples = 5</text>
<text text-anchor="start" x="292" y="-245.8" font-family="Helvetica,sans-Serif" font-size="14.00" fill="#000000">value = [3, 2, 0]</text>
<text text-anchor="start" x="302" y="-230.8" font-family="Helvetica,sans-Serif" font-size="14.00" fill="#000000">class = hard</text>
</g>
<!-- 2&#45;&gt;8 -->
<g id="edge8" class="edge">
<title>2&#45;&gt;8</title>
<path fill="none" stroke="#000000" d="M292.1821,-341.8796C297.4133,-333.2335 302.9805,-324.0322 308.3823,-315.1042"/>
<polygon fill="#000000" stroke="#000000" points="311.5283,-316.6658 313.7104,-306.2981 305.5392,-313.0421 311.5283,-316.6658"/>
</g>
<!-- 4 -->
<g id="node5" class="node">
<title>4</title>
<path fill="#8139e5" stroke="#000000" d="M98,-179.5C98,-179.5 12,-179.5 12,-179.5 6,-179.5 0,-173.5 0,-167.5 0,-167.5 0,-123.5 0,-123.5 0,-117.5 6,-111.5 12,-111.5 12,-111.5 98,-111.5 98,-111.5 104,-111.5 110,-117.5 110,-123.5 110,-123.5 110,-167.5 110,-167.5 110,-173.5 104,-179.5 98,-179.5"/>
<text text-anchor="start" x="27" y="-164.3" font-family="Helvetica,sans-Serif" font-size="14.00" fill="#000000">gini = 0.0</text>
<text text-anchor="start" x="17.5" y="-149.3" font-family="Helvetica,sans-Serif" font-size="14.00" fill="#000000">samples = 3</text>
<text text-anchor="start" x="8" y="-134.3" font-family="Helvetica,sans-Serif" font-size="14.00" fill="#000000">value = [0, 0, 3]</text>
<text text-anchor="start" x="16.5" y="-119.3" font-family="Helvetica,sans-Serif" font-size="14.00" fill="#000000">class = none</text>
</g>
<!-- 3&#45;&gt;4 -->
<g id="edge4" class="edge">
<title>3&#45;&gt;4</title>
<path fill="none" stroke="#000000" d="M146.0348,-222.8796C132.1927,-211.1138 117.1408,-198.3197 103.3359,-186.5855"/>
<polygon fill="#000000" stroke="#000000" points="105.2567,-183.6247 95.3705,-179.8149 100.7231,-188.9582 105.2567,-183.6247"/>
</g>
<!-- 5 -->
<g id="node6" class="node">
<title>5</title>
<path fill="#ffffff" stroke="#000000" d="M251.5,-187C251.5,-187 140.5,-187 140.5,-187 134.5,-187 128.5,-181 128.5,-175 128.5,-175 128.5,-116 128.5,-116 128.5,-110 134.5,-104 140.5,-104 140.5,-104 251.5,-104 251.5,-104 257.5,-104 263.5,-110 263.5,-116 263.5,-116 263.5,-175 263.5,-175 263.5,-181 257.5,-187 251.5,-187"/>
<text text-anchor="start" x="136.5" y="-171.8" font-family="Helvetica,sans-Serif" font-size="14.00" fill="#000000">hypermetrope ≤ 0.5</text>
<text text-anchor="start" x="168" y="-156.8" font-family="Helvetica,sans-Serif" font-size="14.00" fill="#000000">gini = 0.5</text>
<text text-anchor="start" x="158.5" y="-141.8" font-family="Helvetica,sans-Serif" font-size="14.00" fill="#000000">samples = 2</text>
<text text-anchor="start" x="149" y="-126.8" font-family="Helvetica,sans-Serif" font-size="14.00" fill="#000000">value = [0, 1, 1]</text>
<text text-anchor="start" x="161.5" y="-111.8" font-family="Helvetica,sans-Serif" font-size="14.00" fill="#000000">class = soft</text>
</g>
<!-- 3&#45;&gt;5 -->
<g id="edge5" class="edge">
<title>3&#45;&gt;5</title>
<path fill="none" stroke="#000000" d="M195.3498,-222.8796C195.4186,-214.6838 195.4917,-205.9891 195.563,-197.5013"/>
<polygon fill="#000000" stroke="#000000" points="199.0645,-197.3272 195.6488,-187.2981 192.0648,-197.2683 199.0645,-197.3272"/>
</g>
<!-- 6 -->
<g id="node7" class="node">
<title>6</title>
<path fill="#39e581" stroke="#000000" d="M179,-68C179,-68 93,-68 93,-68 87,-68 81,-62 81,-56 81,-56 81,-12 81,-12 81,-6 87,0 93,0 93,0 179,0 179,0 185,0 191,-6 191,-12 191,-12 191,-56 191,-56 191,-62 185,-68 179,-68"/>
<text text-anchor="start" x="108" y="-52.8" font-family="Helvetica,sans-Serif" font-size="14.00" fill="#000000">gini = 0.0</text>
<text text-anchor="start" x="98.5" y="-37.8" font-family="Helvetica,sans-Serif" font-size="14.00" fill="#000000">samples = 1</text>
<text text-anchor="start" x="89" y="-22.8" font-family="Helvetica,sans-Serif" font-size="14.00" fill="#000000">value = [0, 1, 0]</text>
<text text-anchor="start" x="101.5" y="-7.8" font-family="Helvetica,sans-Serif" font-size="14.00" fill="#000000">class = soft</text>
</g>
<!-- 5&#45;&gt;6 -->
<g id="edge6" class="edge">
<title>5&#45;&gt;6</title>
<path fill="none" stroke="#000000" d="M173.6582,-103.9815C168.9598,-95.2504 163.9929,-86.0202 159.2617,-77.2281"/>
<polygon fill="#000000" stroke="#000000" points="162.2586,-75.4111 154.4379,-68.2637 156.0944,-78.7282 162.2586,-75.4111"/>
</g>
<!-- 7 -->
<g id="node8" class="node">
<title>7</title>
<path fill="#8139e5" stroke="#000000" d="M307,-68C307,-68 221,-68 221,-68 215,-68 209,-62 209,-56 209,-56 209,-12 209,-12 209,-6 215,0 221,0 221,0 307,0 307,0 313,0 319,-6 319,-12 319,-12 319,-56 319,-56 319,-62 313,-68 307,-68"/>
<text text-anchor="start" x="236" y="-52.8" font-family="Helvetica,sans-Serif" font-size="14.00" fill="#000000">gini = 0.0</text>
<text text-anchor="start" x="226.5" y="-37.8" font-family="Helvetica,sans-Serif" font-size="14.00" fill="#000000">samples = 1</text>
<text text-anchor="start" x="217" y="-22.8" font-family="Helvetica,sans-Serif" font-size="14.00" fill="#000000">value = [0, 0, 1]</text>
<text text-anchor="start" x="225.5" y="-7.8" font-family="Helvetica,sans-Serif" font-size="14.00" fill="#000000">class = none</text>
</g>
<!-- 5&#45;&gt;7 -->
<g id="edge7" class="edge">
<title>5&#45;&gt;7</title>
<path fill="none" stroke="#000000" d="M221.3207,-103.9815C226.7016,-95.1585 232.3932,-85.8258 237.8059,-76.9506"/>
<polygon fill="#000000" stroke="#000000" points="240.8851,-78.6236 243.1038,-68.2637 234.9088,-74.9789 240.8851,-78.6236"/>
</g>
<!-- 9 -->
<g id="node10" class="node">
<title>9</title>
<path fill="#e58139" stroke="#000000" d="M381,-179.5C381,-179.5 295,-179.5 295,-179.5 289,-179.5 283,-173.5 283,-167.5 283,-167.5 283,-123.5 283,-123.5 283,-117.5 289,-111.5 295,-111.5 295,-111.5 381,-111.5 381,-111.5 387,-111.5 393,-117.5 393,-123.5 393,-123.5 393,-167.5 393,-167.5 393,-173.5 387,-179.5 381,-179.5"/>
<text text-anchor="start" x="310" y="-164.3" font-family="Helvetica,sans-Serif" font-size="14.00" fill="#000000">gini = 0.0</text>
<text text-anchor="start" x="300.5" y="-149.3" font-family="Helvetica,sans-Serif" font-size="14.00" fill="#000000">samples = 2</text>
<text text-anchor="start" x="291" y="-134.3" font-family="Helvetica,sans-Serif" font-size="14.00" fill="#000000">value = [2, 0, 0]</text>
<text text-anchor="start" x="301" y="-119.3" font-family="Helvetica,sans-Serif" font-size="14.00" fill="#000000">class = hard</text>
</g>
<!-- 8&#45;&gt;9 -->
<g id="edge9" class="edge">
<title>8&#45;&gt;9</title>
<path fill="none" stroke="#000000" d="M338.6502,-222.8796C338.5606,-212.2134 338.4639,-200.7021 338.3731,-189.9015"/>
<polygon fill="#000000" stroke="#000000" points="341.8724,-189.7851 338.2884,-179.8149 334.8726,-189.844 341.8724,-189.7851"/>
</g>
<!-- 10 -->
<g id="node11" class="node">
<title>10</title>
<path fill="#9cf2c0" stroke="#000000" d="M509,-187C509,-187 423,-187 423,-187 417,-187 411,-181 411,-175 411,-175 411,-116 411,-116 411,-110 417,-104 423,-104 423,-104 509,-104 509,-104 515,-104 521,-110 521,-116 521,-116 521,-175 521,-175 521,-181 515,-187 509,-187"/>
<text text-anchor="start" x="430" y="-171.8" font-family="Helvetica,sans-Serif" font-size="14.00" fill="#000000">young ≤ 0.5</text>
<text text-anchor="start" x="430.5" y="-156.8" font-family="Helvetica,sans-Serif" font-size="14.00" fill="#000000">gini = 0.444</text>
<text text-anchor="start" x="428.5" y="-141.8" font-family="Helvetica,sans-Serif" font-size="14.00" fill="#000000">samples = 3</text>
<text text-anchor="start" x="419" y="-126.8" font-family="Helvetica,sans-Serif" font-size="14.00" fill="#000000">value = [1, 2, 0]</text>
<text text-anchor="start" x="431.5" y="-111.8" font-family="Helvetica,sans-Serif" font-size="14.00" fill="#000000">class = soft</text>
</g>
<!-- 8&#45;&gt;10 -->
<g id="edge10" class="edge">
<title>8&#45;&gt;10</title>
<path fill="none" stroke="#000000" d="M383.4184,-222.8796C393.3186,-213.6031 403.9009,-203.6874 414.0731,-194.1559"/>
<polygon fill="#000000" stroke="#000000" points="416.4879,-196.6896 421.392,-187.2981 411.7016,-191.5816 416.4879,-196.6896"/>
</g>
<!-- 11 -->
<g id="node12" class="node">
<title>11</title>
<path fill="#39e581" stroke="#000000" d="M441,-68C441,-68 355,-68 355,-68 349,-68 343,-62 343,-56 343,-56 343,-12 343,-12 343,-6 349,0 355,0 355,0 441,0 441,0 447,0 453,-6 453,-12 453,-12 453,-56 453,-56 453,-62 447,-68 441,-68"/>
<text text-anchor="start" x="370" y="-52.8" font-family="Helvetica,sans-Serif" font-size="14.00" fill="#000000">gini = 0.0</text>
<text text-anchor="start" x="360.5" y="-37.8" font-family="Helvetica,sans-Serif" font-size="14.00" fill="#000000">samples = 2</text>
<text text-anchor="start" x="351" y="-22.8" font-family="Helvetica,sans-Serif" font-size="14.00" fill="#000000">value = [0, 2, 0]</text>
<text text-anchor="start" x="363.5" y="-7.8" font-family="Helvetica,sans-Serif" font-size="14.00" fill="#000000">class = soft</text>
</g>
<!-- 10&#45;&gt;11 -->
<g id="edge11" class="edge">
<title>10&#45;&gt;11</title>
<path fill="none" stroke="#000000" d="M440.6793,-103.9815C435.2984,-95.1585 429.6068,-85.8258 424.1941,-76.9506"/>
<polygon fill="#000000" stroke="#000000" points="427.0912,-74.9789 418.8962,-68.2637 421.1149,-78.6236 427.0912,-74.9789"/>
</g>
<!-- 12 -->
<g id="node13" class="node">
<title>12</title>
<path fill="#e58139" stroke="#000000" d="M569,-68C569,-68 483,-68 483,-68 477,-68 471,-62 471,-56 471,-56 471,-12 471,-12 471,-6 477,0 483,0 483,0 569,0 569,0 575,0 581,-6 581,-12 581,-12 581,-56 581,-56 581,-62 575,-68 569,-68"/>
<text text-anchor="start" x="498" y="-52.8" font-family="Helvetica,sans-Serif" font-size="14.00" fill="#000000">gini = 0.0</text>
<text text-anchor="start" x="488.5" y="-37.8" font-family="Helvetica,sans-Serif" font-size="14.00" fill="#000000">samples = 1</text>
<text text-anchor="start" x="479" y="-22.8" font-family="Helvetica,sans-Serif" font-size="14.00" fill="#000000">value = [1, 0, 0]</text>
<text text-anchor="start" x="489" y="-7.8" font-family="Helvetica,sans-Serif" font-size="14.00" fill="#000000">class = hard</text>
</g>
<!-- 10&#45;&gt;12 -->
<g id="edge12" class="edge">
<title>10&#45;&gt;12</title>
<path fill="none" stroke="#000000" d="M488.3418,-103.9815C493.0402,-95.2504 498.0071,-86.0202 502.7383,-77.2281"/>
<polygon fill="#000000" stroke="#000000" points="505.9056,-78.7282 507.5621,-68.2637 499.7414,-75.4111 505.9056,-78.7282"/>
</g>
</g>
</svg>
