<?xml version="1.0" encoding="UTF-8" standalone="no"?>
<!DOCTYPE svg PUBLIC "-//W3C//DTD SVG 1.1//EN"
 "http://www.w3.org/Graphics/SVG/1.1/DTD/svg11.dtd">
<!-- Generated by graphviz version 2.40.1 (20161225.0304)
 -->
<!-- Title: Tree Pages: 1 -->
<svg width="708pt" height="671pt"
 viewBox="0.00 0.00 708.00 671.00" xmlns="http://www.w3.org/2000/svg" xmlns:xlink="http://www.w3.org/1999/xlink">
<g id="graph0" class="graph" transform="scale(1 1) rotate(0) translate(4 667)">
<title>Tree</title>
<polygon fill="#ffffff" stroke="transparent" points="-4,4 -4,-667 704,-667 704,4 -4,4"/>
<!-- 0 -->
<g id="node1" class="node">
<title>0</title>
<path fill="#ffffff" stroke="#000000" d="M375,-663C375,-663 253,-663 253,-663 247,-663 241,-657 241,-651 241,-651 241,-592 241,-592 241,-586 247,-580 253,-580 253,-580 375,-580 375,-580 381,-580 387,-586 387,-592 387,-592 387,-651 387,-651 387,-657 381,-663 375,-663"/>
<text text-anchor="start" x="266" y="-647.8" font-family="Helvetica,sans-Serif" font-size="14.00" fill="#000000">petalwidth ≤ 0.8</text>
<text text-anchor="start" x="278.5" y="-632.8" font-family="Helvetica,sans-Serif" font-size="14.00" fill="#000000">gini = 0.666</text>
<text text-anchor="start" x="269" y="-617.8" font-family="Helvetica,sans-Serif" font-size="14.00" fill="#000000">samples = 105</text>
<text text-anchor="start" x="256" y="-602.8" font-family="Helvetica,sans-Serif" font-size="14.00" fill="#000000">value = [33, 36, 36]</text>
<text text-anchor="start" x="249" y="-587.8" font-family="Helvetica,sans-Serif" font-size="14.00" fill="#000000">class = Iris_versicolor</text>
</g>
<!-- 1 -->
<g id="node2" class="node">
<title>1</title>
<path fill="#e58139" stroke="#000000" d="M289,-536.5C289,-536.5 185,-536.5 185,-536.5 179,-536.5 173,-530.5 173,-524.5 173,-524.5 173,-480.5 173,-480.5 173,-474.5 179,-468.5 185,-468.5 185,-468.5 289,-468.5 289,-468.5 295,-468.5 301,-474.5 301,-480.5 301,-480.5 301,-524.5 301,-524.5 301,-530.5 295,-536.5 289,-536.5"/>
<text text-anchor="start" x="209" y="-521.3" font-family="Helvetica,sans-Serif" font-size="14.00" fill="#000000">gini = 0.0</text>
<text text-anchor="start" x="196" y="-506.3" font-family="Helvetica,sans-Serif" font-size="14.00" fill="#000000">samples = 33</text>
<text text-anchor="start" x="186.5" y="-491.3" font-family="Helvetica,sans-Serif" font-size="14.00" fill="#000000">value = [33, 0, 0]</text>
<text text-anchor="start" x="181" y="-476.3" font-family="Helvetica,sans-Serif" font-size="14.00" fill="#000000">class = Iris_setosa</text>
</g>
<!-- 0&#45;&gt;1 -->
<g id="edge1" class="edge">
<title>0&#45;&gt;1</title>
<path fill="none" stroke="#000000" d="M287.0691,-579.8796C279.8117,-568.6636 271.9497,-556.5131 264.6535,-545.2372"/>
<polygon fill="#000000" stroke="#000000" points="267.5748,-543.3093 259.2038,-536.8149 261.6978,-547.112 267.5748,-543.3093"/>
<text text-anchor="middle" x="253.9656" y="-557.56" font-family="Helvetica,sans-Serif" font-size="14.00" fill="#000000">True</text>
</g>
<!-- 2 -->
<g id="node3" class="node">
<title>2</title>
<path fill="#ffffff" stroke="#000000" d="M453,-544C453,-544 331,-544 331,-544 325,-544 319,-538 319,-532 319,-532 319,-473 319,-473 319,-467 325,-461 331,-461 331,-461 453,-461 453,-461 459,-461 465,-467 465,-473 465,-473 465,-532 465,-532 465,-538 459,-544 453,-544"/>
<text text-anchor="start" x="340.5" y="-528.8" font-family="Helvetica,sans-Serif" font-size="14.00" fill="#000000">petalwidth ≤ 1.75</text>
<text text-anchor="start" x="364" y="-513.8" font-family="Helvetica,sans-Serif" font-size="14.00" fill="#000000">gini = 0.5</text>
<text text-anchor="start" x="351" y="-498.8" font-family="Helvetica,sans-Serif" font-size="14.00" fill="#000000">samples = 72</text>
<text text-anchor="start" x="337.5" y="-483.8" font-family="Helvetica,sans-Serif" font-size="14.00" fill="#000000">value = [0, 36, 36]</text>
<text text-anchor="start" x="327" y="-468.8" font-family="Helvetica,sans-Serif" font-size="14.00" fill="#000000">class = Iris_versicolor</text>
</g>
<!-- 0&#45;&gt;2 -->
<g id="edge2" class="edge">
<title>0&#45;&gt;2</title>
<path fill="none" stroke="#000000" d="M341.2806,-579.8796C347.0068,-571.1434 353.1046,-561.8404 359.0137,-552.8253"/>
<polygon fill="#000000" stroke="#000000" points="362.0482,-554.5803 364.6029,-544.2981 356.1937,-550.7429 362.0482,-554.5803"/>
<text text-anchor="middle" x="369.6968" y="-565.0736" font-family="Helvetica,sans-Serif" font-size="14.00" fill="#000000">False</text>
</g>
<!-- 3 -->
<g id="node4" class="node">
<title>3</title>
<path fill="#54e992" stroke="#000000" d="M373,-425C373,-425 251,-425 251,-425 245,-425 239,-419 239,-413 239,-413 239,-354 239,-354 239,-348 245,-342 251,-342 251,-342 373,-342 373,-342 379,-342 385,-348 385,-354 385,-354 385,-413 385,-413 385,-419 379,-425 373,-425"/>
<text text-anchor="start" x="257.5" y="-409.8" font-family="Helvetica,sans-Serif" font-size="14.00" fill="#000000">petallength ≤ 4.95</text>
<text text-anchor="start" x="276.5" y="-394.8" font-family="Helvetica,sans-Serif" font-size="14.00" fill="#000000">gini = 0.214</text>
<text text-anchor="start" x="271" y="-379.8" font-family="Helvetica,sans-Serif" font-size="14.00" fill="#000000">samples = 41</text>
<text text-anchor="start" x="261.5" y="-364.8" font-family="Helvetica,sans-Serif" font-size="14.00" fill="#000000">value = [0, 36, 5]</text>
<text text-anchor="start" x="247" y="-349.8" font-family="Helvetica,sans-Serif" font-size="14.00" fill="#000000">class = Iris_versicolor</text>
</g>
<!-- 2&#45;&gt;3 -->
<g id="edge3" class="edge">
<title>2&#45;&gt;3</title>
<path fill="none" stroke="#000000" d="M364.0199,-460.8796C358.1469,-452.1434 351.8927,-442.8404 345.8321,-433.8253"/>
<polygon fill="#000000" stroke="#000000" points="348.5834,-431.6444 340.0995,-425.2981 342.7741,-435.5498 348.5834,-431.6444"/>
</g>
<!-- 12 -->
<g id="node13" class="node">
<title>12</title>
<path fill="#8139e5" stroke="#000000" d="M529,-417.5C529,-417.5 415,-417.5 415,-417.5 409,-417.5 403,-411.5 403,-405.5 403,-405.5 403,-361.5 403,-361.5 403,-355.5 409,-349.5 415,-349.5 415,-349.5 529,-349.5 529,-349.5 535,-349.5 541,-355.5 541,-361.5 541,-361.5 541,-405.5 541,-405.5 541,-411.5 535,-417.5 529,-417.5"/>
<text text-anchor="start" x="444" y="-402.3" font-family="Helvetica,sans-Serif" font-size="14.00" fill="#000000">gini = 0.0</text>
<text text-anchor="start" x="431" y="-387.3" font-family="Helvetica,sans-Serif" font-size="14.00" fill="#000000">samples = 31</text>
<text text-anchor="start" x="421.5" y="-372.3" font-family="Helvetica,sans-Serif" font-size="14.00" fill="#000000">value = [0, 0, 31]</text>
<text text-anchor="start" x="411" y="-357.3" font-family="Helvetica,sans-Serif" font-size="14.00" fill="#000000">class = Iris_virginica</text>
</g>
<!-- 2&#45;&gt;12 -->
<g id="edge12" class="edge">
<title>2&#45;&gt;12</title>
<path fill="none" stroke="#000000" d="M419.9801,-460.8796C427.5203,-449.6636 435.6887,-437.5131 443.2691,-426.2372"/>
<polygon fill="#000000" stroke="#000000" points="446.2566,-428.0667 448.9311,-417.8149 440.4473,-424.1612 446.2566,-428.0667"/>
</g>
<!-- 4 -->
<g id="node5" class="node">
<title>4</title>
<path fill="#3fe685" stroke="#000000" d="M293,-306C293,-306 171,-306 171,-306 165,-306 159,-300 159,-294 159,-294 159,-235 159,-235 159,-229 165,-223 171,-223 171,-223 293,-223 293,-223 299,-223 305,-229 305,-235 305,-235 305,-294 305,-294 305,-300 299,-306 293,-306"/>
<text text-anchor="start" x="180.5" y="-290.8" font-family="Helvetica,sans-Serif" font-size="14.00" fill="#000000">petalwidth ≤ 1.65</text>
<text text-anchor="start" x="196.5" y="-275.8" font-family="Helvetica,sans-Serif" font-size="14.00" fill="#000000">gini = 0.056</text>
<text text-anchor="start" x="191" y="-260.8" font-family="Helvetica,sans-Serif" font-size="14.00" fill="#000000">samples = 35</text>
<text text-anchor="start" x="181.5" y="-245.8" font-family="Helvetica,sans-Serif" font-size="14.00" fill="#000000">value = [0, 34, 1]</text>
<text text-anchor="start" x="167" y="-230.8" font-family="Helvetica,sans-Serif" font-size="14.00" fill="#000000">class = Iris_versicolor</text>
</g>
<!-- 3&#45;&gt;4 -->
<g id="edge4" class="edge">
<title>3&#45;&gt;4</title>
<path fill="none" stroke="#000000" d="M284.0199,-341.8796C278.1469,-333.1434 271.8927,-323.8404 265.8321,-314.8253"/>
<polygon fill="#000000" stroke="#000000" points="268.5834,-312.6444 260.0995,-306.2981 262.7741,-316.5498 268.5834,-312.6444"/>
</g>
<!-- 7 -->
<g id="node8" class="node">
<title>7</title>
<path fill="#c09cf2" stroke="#000000" d="M449,-306C449,-306 335,-306 335,-306 329,-306 323,-300 323,-294 323,-294 323,-235 323,-235 323,-229 329,-223 335,-223 335,-223 449,-223 449,-223 455,-223 461,-229 461,-235 461,-235 461,-294 461,-294 461,-300 455,-306 449,-306"/>
<text text-anchor="start" x="340.5" y="-290.8" font-family="Helvetica,sans-Serif" font-size="14.00" fill="#000000">petalwidth ≤ 1.55</text>
<text text-anchor="start" x="356.5" y="-275.8" font-family="Helvetica,sans-Serif" font-size="14.00" fill="#000000">gini = 0.444</text>
<text text-anchor="start" x="354.5" y="-260.8" font-family="Helvetica,sans-Serif" font-size="14.00" fill="#000000">samples = 6</text>
<text text-anchor="start" x="345" y="-245.8" font-family="Helvetica,sans-Serif" font-size="14.00" fill="#000000">value = [0, 2, 4]</text>
<text text-anchor="start" x="331" y="-230.8" font-family="Helvetica,sans-Serif" font-size="14.00" fill="#000000">class = Iris_virginica</text>
</g>
<!-- 3&#45;&gt;7 -->
<g id="edge7" class="edge">
<title>3&#45;&gt;7</title>
<path fill="none" stroke="#000000" d="M339.9801,-341.8796C345.8531,-333.1434 352.1073,-323.8404 358.1679,-314.8253"/>
<polygon fill="#000000" stroke="#000000" points="361.2259,-316.5498 363.9005,-306.2981 355.4166,-312.6444 361.2259,-316.5498"/>
</g>
<!-- 5 -->
<g id="node6" class="node">
<title>5</title>
<path fill="#39e581" stroke="#000000" d="M134,-179.5C134,-179.5 12,-179.5 12,-179.5 6,-179.5 0,-173.5 0,-167.5 0,-167.5 0,-123.5 0,-123.5 0,-117.5 6,-111.5 12,-111.5 12,-111.5 134,-111.5 134,-111.5 140,-111.5 146,-117.5 146,-123.5 146,-123.5 146,-167.5 146,-167.5 146,-173.5 140,-179.5 134,-179.5"/>
<text text-anchor="start" x="45" y="-164.3" font-family="Helvetica,sans-Serif" font-size="14.00" fill="#000000">gini = 0.0</text>
<text text-anchor="start" x="32" y="-149.3" font-family="Helvetica,sans-Serif" font-size="14.00" fill="#000000">samples = 34</text>
<text text-anchor="start" x="22.5" y="-134.3" font-family="Helvetica,sans-Serif" font-size="14.00" fill="#000000">value = [0, 34, 0]</text>
<text text-anchor="start" x="8" y="-119.3" font-family="Helvetica,sans-Serif" font-size="14.00" fill="#000000">class = Iris_versicolor</text>
</g>
<!-- 4&#45;&gt;5 -->
<g id="edge5" class="edge">
<title>4&#45;&gt;5</title>
<path fill="none" stroke="#000000" d="M176.3895,-222.8796C160.2987,-210.8368 142.7685,-197.7167 126.7909,-185.7586"/>
<polygon fill="#000000" stroke="#000000" points="128.6962,-182.8129 118.593,-179.623 124.5018,-188.4171 128.6962,-182.8129"/>
</g>
<!-- 6 -->
<g id="node7" class="node">
<title>6</title>
<path fill="#8139e5" stroke="#000000" d="M290,-179.5C290,-179.5 176,-179.5 176,-179.5 170,-179.5 164,-173.5 164,-167.5 164,-167.5 164,-123.5 164,-123.5 164,-117.5 170,-111.5 176,-111.5 176,-111.5 290,-111.5 290,-111.5 296,-111.5 302,-117.5 302,-123.5 302,-123.5 302,-167.5 302,-167.5 302,-173.5 296,-179.5 290,-179.5"/>
<text text-anchor="start" x="205" y="-164.3" font-family="Helvetica,sans-Serif" font-size="14.00" fill="#000000">gini = 0.0</text>
<text text-anchor="start" x="195.5" y="-149.3" font-family="Helvetica,sans-Serif" font-size="14.00" fill="#000000">samples = 1</text>
<text text-anchor="start" x="186" y="-134.3" font-family="Helvetica,sans-Serif" font-size="14.00" fill="#000000">value = [0, 0, 1]</text>
<text text-anchor="start" x="172" y="-119.3" font-family="Helvetica,sans-Serif" font-size="14.00" fill="#000000">class = Iris_virginica</text>
</g>
<!-- 4&#45;&gt;6 -->
<g id="edge6" class="edge">
<title>4&#45;&gt;6</title>
<path fill="none" stroke="#000000" d="M232.3498,-222.8796C232.4394,-212.2134 232.5361,-200.7021 232.6269,-189.9015"/>
<polygon fill="#000000" stroke="#000000" points="236.1274,-189.844 232.7116,-179.8149 229.1276,-189.7851 236.1274,-189.844"/>
</g>
<!-- 8 -->
<g id="node9" class="node">
<title>8</title>
<path fill="#8139e5" stroke="#000000" d="M448,-179.5C448,-179.5 334,-179.5 334,-179.5 328,-179.5 322,-173.5 322,-167.5 322,-167.5 322,-123.5 322,-123.5 322,-117.5 328,-111.5 334,-111.5 334,-111.5 448,-111.5 448,-111.5 454,-111.5 460,-117.5 460,-123.5 460,-123.5 460,-167.5 460,-167.5 460,-173.5 454,-179.5 448,-179.5"/>
<text text-anchor="start" x="363" y="-164.3" font-family="Helvetica,sans-Serif" font-size="14.00" fill="#000000">gini = 0.0</text>
<text text-anchor="start" x="353.5" y="-149.3" font-family="Helvetica,sans-Serif" font-size="14.00" fill="#000000">samples = 3</text>
<text text-anchor="start" x="344" y="-134.3" font-family="Helvetica,sans-Serif" font-size="14.00" fill="#000000">value = [0, 0, 3]</text>
<text text-anchor="start" x="330" y="-119.3" font-family="Helvetica,sans-Serif" font-size="14.00" fill="#000000">class = Iris_virginica</text>
</g>
<!-- 7&#45;&gt;8 -->
<g id="edge8" class="edge">
<title>7&#45;&gt;8</title>
<path fill="none" stroke="#000000" d="M391.6502,-222.8796C391.5606,-212.2134 391.4639,-200.7021 391.3731,-189.9015"/>
<polygon fill="#000000" stroke="#000000" points="394.8724,-189.7851 391.2884,-179.8149 387.8726,-189.844 394.8724,-189.7851"/>
</g>
<!-- 9 -->
<g id="node10" class="node">
<title>9</title>
<path fill="#9cf2c0" stroke="#000000" d="M612,-187C612,-187 490,-187 490,-187 484,-187 478,-181 478,-175 478,-175 478,-116 478,-116 478,-110 484,-104 490,-104 490,-104 612,-104 612,-104 618,-104 624,-110 624,-116 624,-116 624,-175 624,-175 624,-181 618,-187 612,-187"/>
<text text-anchor="start" x="496.5" y="-171.8" font-family="Helvetica,sans-Serif" font-size="14.00" fill="#000000">petallength ≤ 5.45</text>
<text text-anchor="start" x="515.5" y="-156.8" font-family="Helvetica,sans-Serif" font-size="14.00" fill="#000000">gini = 0.444</text>
<text text-anchor="start" x="513.5" y="-141.8" font-family="Helvetica,sans-Serif" font-size="14.00" fill="#000000">samples = 3</text>
<text text-anchor="start" x="504" y="-126.8" font-family="Helvetica,sans-Serif" font-size="14.00" fill="#000000">value = [0, 2, 1]</text>
<text text-anchor="start" x="486" y="-111.8" font-family="Helvetica,sans-Serif" font-size="14.00" fill="#000000">class = Iris_versicolor</text>
</g>
<!-- 7&#45;&gt;9 -->
<g id="edge9" class="edge">
<title>7&#45;&gt;9</title>
<path fill="none" stroke="#000000" d="M447.6105,-222.8796C460.4403,-213.2774 474.1852,-202.9903 487.3286,-193.1534"/>
<polygon fill="#000000" stroke="#000000" points="489.5121,-195.891 495.4209,-187.0969 485.3177,-190.2868 489.5121,-195.891"/>
</g>
<!-- 10 -->
<g id="node11" class="node">
<title>10</title>
<path fill="#39e581" stroke="#000000" d="M532,-68C532,-68 410,-68 410,-68 404,-68 398,-62 398,-56 398,-56 398,-12 398,-12 398,-6 404,0 410,0 410,0 532,0 532,0 538,0 544,-6 544,-12 544,-12 544,-56 544,-56 544,-62 538,-68 532,-68"/>
<text text-anchor="start" x="443" y="-52.8" font-family="Helvetica,sans-Serif" font-size="14.00" fill="#000000">gini = 0.0</text>
<text text-anchor="start" x="433.5" y="-37.8" font-family="Helvetica,sans-Serif" font-size="14.00" fill="#000000">samples = 2</text>
<text text-anchor="start" x="424" y="-22.8" font-family="Helvetica,sans-Serif" font-size="14.00" fill="#000000">value = [0, 2, 0]</text>
<text text-anchor="start" x="406" y="-7.8" font-family="Helvetica,sans-Serif" font-size="14.00" fill="#000000">class = Iris_versicolor</text>
</g>
<!-- 9&#45;&gt;10 -->
<g id="edge10" class="edge">
<title>9&#45;&gt;10</title>
<path fill="none" stroke="#000000" d="M521.211,-103.9815C514.7486,-94.9747 507.9052,-85.4367 501.419,-76.3965"/>
<polygon fill="#000000" stroke="#000000" points="504.2572,-74.3483 495.5838,-68.2637 498.5697,-78.4291 504.2572,-74.3483"/>
</g>
<!-- 11 -->
<g id="node12" class="node">
<title>11</title>
<path fill="#8139e5" stroke="#000000" d="M688,-68C688,-68 574,-68 574,-68 568,-68 562,-62 562,-56 562,-56 562,-12 562,-12 562,-6 568,0 574,0 574,0 688,0 688,0 694,0 700,-6 700,-12 700,-12 700,-56 700,-56 700,-62 694,-68 688,-68"/>
<text text-anchor="start" x="603" y="-52.8" font-family="Helvetica,sans-Serif" font-size="14.00" fill="#000000">gini = 0.0</text>
<text text-anchor="start" x="593.5" y="-37.8" font-family="Helvetica,sans-Serif" font-size="14.00" fill="#000000">samples = 1</text>
<text text-anchor="start" x="584" y="-22.8" font-family="Helvetica,sans-Serif" font-size="14.00" fill="#000000">value = [0, 0, 1]</text>
<text text-anchor="start" x="570" y="-7.8" font-family="Helvetica,sans-Serif" font-size="14.00" fill="#000000">class = Iris_virginica</text>
</g>
<!-- 9&#45;&gt;11 -->
<g id="edge11" class="edge">
<title>9&#45;&gt;11</title>
<path fill="none" stroke="#000000" d="M580.789,-103.9815C587.2514,-94.9747 594.0948,-85.4367 600.581,-76.3965"/>
<polygon fill="#000000" stroke="#000000" points="603.4303,-78.4291 606.4162,-68.2637 597.7428,-74.3483 603.4303,-78.4291"/>
</g>
</g>
</svg>
