<?xml version="1.0" encoding="UTF-8" standalone="no"?>
<!DOCTYPE svg PUBLIC "-//W3C//DTD SVG 1.1//EN"
 "http://www.w3.org/Graphics/SVG/1.1/DTD/svg11.dtd">
<!-- Generated by graphviz version 2.40.1 (20161225.0304)
 -->
<!-- Title: Tree Pages: 1 -->
<svg width="634pt" height="671pt"
 viewBox="0.00 0.00 634.00 671.00" xmlns="http://www.w3.org/2000/svg" xmlns:xlink="http://www.w3.org/1999/xlink">
<g id="graph0" class="graph" transform="scale(1 1) rotate(0) translate(4 667)">
<title>Tree</title>
<polygon fill="#ffffff" stroke="transparent" points="-4,4 -4,-667 630,-667 630,4 -4,4"/>
<!-- 0 -->
<g id="node1" class="node">
<title>0</title>
<path fill="#fef8f4" stroke="#000000" d="M293,-663C293,-663 185,-663 185,-663 179,-663 173,-657 173,-651 173,-651 173,-592 173,-592 173,-586 179,-580 185,-580 185,-580 293,-580 293,-580 299,-580 305,-586 305,-592 305,-592 305,-651 305,-651 305,-657 299,-663 293,-663"/>
<text text-anchor="start" x="188.5" y="-647.8" font-family="Helvetica,sans-Serif" font-size="14.00" fill="#000000">petallength ≤ 2.6</text>
<text text-anchor="start" x="203.5" y="-632.8" font-family="Helvetica,sans-Serif" font-size="14.00" fill="#000000">gini = 0.665</text>
<text text-anchor="start" x="194" y="-617.8" font-family="Helvetica,sans-Serif" font-size="14.00" fill="#000000">samples = 110</text>
<text text-anchor="start" x="181" y="-602.8" font-family="Helvetica,sans-Serif" font-size="14.00" fill="#000000">value = [40, 34, 36]</text>
<text text-anchor="start" x="183" y="-587.8" font-family="Helvetica,sans-Serif" font-size="14.00" fill="#000000">class = Iris_setosa</text>
</g>
<!-- 1 -->
<g id="node2" class="node">
<title>1</title>
<path fill="#e58139" stroke="#000000" d="M216,-536.5C216,-536.5 112,-536.5 112,-536.5 106,-536.5 100,-530.5 100,-524.5 100,-524.5 100,-480.5 100,-480.5 100,-474.5 106,-468.5 112,-468.5 112,-468.5 216,-468.5 216,-468.5 222,-468.5 228,-474.5 228,-480.5 228,-480.5 228,-524.5 228,-524.5 228,-530.5 222,-536.5 216,-536.5"/>
<text text-anchor="start" x="136" y="-521.3" font-family="Helvetica,sans-Serif" font-size="14.00" fill="#000000">gini = 0.0</text>
<text text-anchor="start" x="123" y="-506.3" font-family="Helvetica,sans-Serif" font-size="14.00" fill="#000000">samples = 40</text>
<text text-anchor="start" x="113.5" y="-491.3" font-family="Helvetica,sans-Serif" font-size="14.00" fill="#000000">value = [40, 0, 0]</text>
<text text-anchor="start" x="108" y="-476.3" font-family="Helvetica,sans-Serif" font-size="14.00" fill="#000000">class = Iris_setosa</text>
</g>
<!-- 0&#45;&gt;1 -->
<g id="edge1" class="edge">
<title>0&#45;&gt;1</title>
<path fill="none" stroke="#000000" d="M212.7686,-579.8796C205.769,-568.7735 198.192,-556.7513 191.1444,-545.5691"/>
<polygon fill="#000000" stroke="#000000" points="193.92,-543.4087 185.6271,-536.8149 187.998,-547.1411 193.92,-543.4087"/>
<text text-anchor="middle" x="180.0974" y="-557.4957" font-family="Helvetica,sans-Serif" font-size="14.00" fill="#000000">True</text>
</g>
<!-- 2 -->
<g id="node3" class="node">
<title>2</title>
<path fill="#f8f4fe" stroke="#000000" d="M372,-544C372,-544 258,-544 258,-544 252,-544 246,-538 246,-532 246,-532 246,-473 246,-473 246,-467 252,-461 258,-461 258,-461 372,-461 372,-461 378,-461 384,-467 384,-473 384,-473 384,-532 384,-532 384,-538 378,-544 372,-544"/>
<text text-anchor="start" x="260.5" y="-528.8" font-family="Helvetica,sans-Serif" font-size="14.00" fill="#000000">petallength ≤ 4.85</text>
<text text-anchor="start" x="287" y="-513.8" font-family="Helvetica,sans-Serif" font-size="14.00" fill="#000000">gini = 0.5</text>
<text text-anchor="start" x="274" y="-498.8" font-family="Helvetica,sans-Serif" font-size="14.00" fill="#000000">samples = 70</text>
<text text-anchor="start" x="260.5" y="-483.8" font-family="Helvetica,sans-Serif" font-size="14.00" fill="#000000">value = [0, 34, 36]</text>
<text text-anchor="start" x="254" y="-468.8" font-family="Helvetica,sans-Serif" font-size="14.00" fill="#000000">class = Iris_virginica</text>
</g>
<!-- 0&#45;&gt;2 -->
<g id="edge2" class="edge">
<title>0&#45;&gt;2</title>
<path fill="none" stroke="#000000" d="M265.5811,-579.8796C271.1605,-571.1434 277.1019,-561.8404 282.8595,-552.8253"/>
<polygon fill="#000000" stroke="#000000" points="285.8726,-554.6098 288.3054,-544.2981 279.9731,-550.8421 285.8726,-554.6098"/>
<text text-anchor="middle" x="293.6889" y="-565.0116" font-family="Helvetica,sans-Serif" font-size="14.00" fill="#000000">False</text>
</g>
<!-- 3 -->
<g id="node4" class="node">
<title>3</title>
<path fill="#45e789" stroke="#000000" d="M294,-425C294,-425 172,-425 172,-425 166,-425 160,-419 160,-413 160,-413 160,-354 160,-354 160,-348 166,-342 172,-342 172,-342 294,-342 294,-342 300,-342 306,-348 306,-354 306,-354 306,-413 306,-413 306,-419 300,-425 294,-425"/>
<text text-anchor="start" x="181.5" y="-409.8" font-family="Helvetica,sans-Serif" font-size="14.00" fill="#000000">petalwidth ≤ 1.65</text>
<text text-anchor="start" x="197.5" y="-394.8" font-family="Helvetica,sans-Serif" font-size="14.00" fill="#000000">gini = 0.108</text>
<text text-anchor="start" x="192" y="-379.8" font-family="Helvetica,sans-Serif" font-size="14.00" fill="#000000">samples = 35</text>
<text text-anchor="start" x="182.5" y="-364.8" font-family="Helvetica,sans-Serif" font-size="14.00" fill="#000000">value = [0, 33, 2]</text>
<text text-anchor="start" x="168" y="-349.8" font-family="Helvetica,sans-Serif" font-size="14.00" fill="#000000">class = Iris_versicolor</text>
</g>
<!-- 2&#45;&gt;3 -->
<g id="edge3" class="edge">
<title>2&#45;&gt;3</title>
<path fill="none" stroke="#000000" d="M286.3204,-460.8796C280.2385,-452.0534 273.7578,-442.6485 267.4859,-433.5466"/>
<polygon fill="#000000" stroke="#000000" points="270.3582,-431.5465 261.802,-425.2981 264.5941,-435.5184 270.3582,-431.5465"/>
</g>
<!-- 8 -->
<g id="node9" class="node">
<title>8</title>
<path fill="#853fe6" stroke="#000000" d="M454,-425C454,-425 340,-425 340,-425 334,-425 328,-419 328,-413 328,-413 328,-354 328,-354 328,-348 334,-342 340,-342 340,-342 454,-342 454,-342 460,-342 466,-348 466,-354 466,-354 466,-413 466,-413 466,-419 460,-425 454,-425"/>
<text text-anchor="start" x="349" y="-409.8" font-family="Helvetica,sans-Serif" font-size="14.00" fill="#000000">petalwidth ≤ 1.7</text>
<text text-anchor="start" x="361.5" y="-394.8" font-family="Helvetica,sans-Serif" font-size="14.00" fill="#000000">gini = 0.056</text>
<text text-anchor="start" x="356" y="-379.8" font-family="Helvetica,sans-Serif" font-size="14.00" fill="#000000">samples = 35</text>
<text text-anchor="start" x="346.5" y="-364.8" font-family="Helvetica,sans-Serif" font-size="14.00" fill="#000000">value = [0, 1, 34]</text>
<text text-anchor="start" x="336" y="-349.8" font-family="Helvetica,sans-Serif" font-size="14.00" fill="#000000">class = Iris_virginica</text>
</g>
<!-- 2&#45;&gt;8 -->
<g id="edge8" class="edge">
<title>2&#45;&gt;8</title>
<path fill="none" stroke="#000000" d="M343.6796,-460.8796C349.7615,-452.0534 356.2422,-442.6485 362.5141,-433.5466"/>
<polygon fill="#000000" stroke="#000000" points="365.4059,-435.5184 368.198,-425.2981 359.6418,-431.5465 365.4059,-435.5184"/>
</g>
<!-- 4 -->
<g id="node5" class="node">
<title>4</title>
<path fill="#39e581" stroke="#000000" d="M134,-298.5C134,-298.5 12,-298.5 12,-298.5 6,-298.5 0,-292.5 0,-286.5 0,-286.5 0,-242.5 0,-242.5 0,-236.5 6,-230.5 12,-230.5 12,-230.5 134,-230.5 134,-230.5 140,-230.5 146,-236.5 146,-242.5 146,-242.5 146,-286.5 146,-286.5 146,-292.5 140,-298.5 134,-298.5"/>
<text text-anchor="start" x="45" y="-283.3" font-family="Helvetica,sans-Serif" font-size="14.00" fill="#000000">gini = 0.0</text>
<text text-anchor="start" x="32" y="-268.3" font-family="Helvetica,sans-Serif" font-size="14.00" fill="#000000">samples = 32</text>
<text text-anchor="start" x="22.5" y="-253.3" font-family="Helvetica,sans-Serif" font-size="14.00" fill="#000000">value = [0, 32, 0]</text>
<text text-anchor="start" x="8" y="-238.3" font-family="Helvetica,sans-Serif" font-size="14.00" fill="#000000">class = Iris_versicolor</text>
</g>
<!-- 3&#45;&gt;4 -->
<g id="edge4" class="edge">
<title>3&#45;&gt;4</title>
<path fill="none" stroke="#000000" d="M177.0398,-341.8796C160.8478,-329.8368 143.2073,-316.7167 127.1292,-304.7586"/>
<polygon fill="#000000" stroke="#000000" points="128.9925,-301.7825 118.8797,-298.623 124.815,-307.3993 128.9925,-301.7825"/>
</g>
<!-- 5 -->
<g id="node6" class="node">
<title>5</title>
<path fill="#c09cf2" stroke="#000000" d="M290,-306C290,-306 176,-306 176,-306 170,-306 164,-300 164,-294 164,-294 164,-235 164,-235 164,-229 170,-223 176,-223 176,-223 290,-223 290,-223 296,-223 302,-229 302,-235 302,-235 302,-294 302,-294 302,-300 296,-306 290,-306"/>
<text text-anchor="start" x="181.5" y="-290.8" font-family="Helvetica,sans-Serif" font-size="14.00" fill="#000000">petalwidth ≤ 1.75</text>
<text text-anchor="start" x="197.5" y="-275.8" font-family="Helvetica,sans-Serif" font-size="14.00" fill="#000000">gini = 0.444</text>
<text text-anchor="start" x="195.5" y="-260.8" font-family="Helvetica,sans-Serif" font-size="14.00" fill="#000000">samples = 3</text>
<text text-anchor="start" x="186" y="-245.8" font-family="Helvetica,sans-Serif" font-size="14.00" fill="#000000">value = [0, 1, 2]</text>
<text text-anchor="start" x="172" y="-230.8" font-family="Helvetica,sans-Serif" font-size="14.00" fill="#000000">class = Iris_virginica</text>
</g>
<!-- 3&#45;&gt;5 -->
<g id="edge5" class="edge">
<title>3&#45;&gt;5</title>
<path fill="none" stroke="#000000" d="M233,-341.8796C233,-333.6838 233,-324.9891 233,-316.5013"/>
<polygon fill="#000000" stroke="#000000" points="236.5001,-316.298 233,-306.2981 229.5001,-316.2981 236.5001,-316.298"/>
</g>
<!-- 6 -->
<g id="node7" class="node">
<title>6</title>
<path fill="#8139e5" stroke="#000000" d="M130,-179.5C130,-179.5 16,-179.5 16,-179.5 10,-179.5 4,-173.5 4,-167.5 4,-167.5 4,-123.5 4,-123.5 4,-117.5 10,-111.5 16,-111.5 16,-111.5 130,-111.5 130,-111.5 136,-111.5 142,-117.5 142,-123.5 142,-123.5 142,-167.5 142,-167.5 142,-173.5 136,-179.5 130,-179.5"/>
<text text-anchor="start" x="45" y="-164.3" font-family="Helvetica,sans-Serif" font-size="14.00" fill="#000000">gini = 0.0</text>
<text text-anchor="start" x="35.5" y="-149.3" font-family="Helvetica,sans-Serif" font-size="14.00" fill="#000000">samples = 1</text>
<text text-anchor="start" x="26" y="-134.3" font-family="Helvetica,sans-Serif" font-size="14.00" fill="#000000">value = [0, 0, 1]</text>
<text text-anchor="start" x="12" y="-119.3" font-family="Helvetica,sans-Serif" font-size="14.00" fill="#000000">class = Iris_virginica</text>
</g>
<!-- 5&#45;&gt;6 -->
<g id="edge6" class="edge">
<title>5&#45;&gt;6</title>
<path fill="none" stroke="#000000" d="M177.0398,-222.8796C160.8478,-210.8368 143.2073,-197.7167 127.1292,-185.7586"/>
<polygon fill="#000000" stroke="#000000" points="128.9925,-182.7825 118.8797,-179.623 124.815,-188.3993 128.9925,-182.7825"/>
</g>
<!-- 7 -->
<g id="node8" class="node">
<title>7</title>
<path fill="#ffffff" stroke="#000000" d="M294,-179.5C294,-179.5 172,-179.5 172,-179.5 166,-179.5 160,-173.5 160,-167.5 160,-167.5 160,-123.5 160,-123.5 160,-117.5 166,-111.5 172,-111.5 172,-111.5 294,-111.5 294,-111.5 300,-111.5 306,-117.5 306,-123.5 306,-123.5 306,-167.5 306,-167.5 306,-173.5 300,-179.5 294,-179.5"/>
<text text-anchor="start" x="205" y="-164.3" font-family="Helvetica,sans-Serif" font-size="14.00" fill="#000000">gini = 0.5</text>
<text text-anchor="start" x="195.5" y="-149.3" font-family="Helvetica,sans-Serif" font-size="14.00" fill="#000000">samples = 2</text>
<text text-anchor="start" x="186" y="-134.3" font-family="Helvetica,sans-Serif" font-size="14.00" fill="#000000">value = [0, 1, 1]</text>
<text text-anchor="start" x="168" y="-119.3" font-family="Helvetica,sans-Serif" font-size="14.00" fill="#000000">class = Iris_versicolor</text>
</g>
<!-- 5&#45;&gt;7 -->
<g id="edge7" class="edge">
<title>5&#45;&gt;7</title>
<path fill="none" stroke="#000000" d="M233,-222.8796C233,-212.2134 233,-200.7021 233,-189.9015"/>
<polygon fill="#000000" stroke="#000000" points="236.5001,-189.8149 233,-179.8149 229.5001,-189.815 236.5001,-189.8149"/>
</g>
<!-- 9 -->
<g id="node10" class="node">
<title>9</title>
<path fill="#ab7bee" stroke="#000000" d="M454,-306C454,-306 340,-306 340,-306 334,-306 328,-300 328,-294 328,-294 328,-235 328,-235 328,-229 334,-223 340,-223 340,-223 454,-223 454,-223 460,-223 466,-229 466,-235 466,-235 466,-294 466,-294 466,-300 460,-306 454,-306"/>
<text text-anchor="start" x="342.5" y="-290.8" font-family="Helvetica,sans-Serif" font-size="14.00" fill="#000000">petallength ≤ 5.35</text>
<text text-anchor="start" x="361.5" y="-275.8" font-family="Helvetica,sans-Serif" font-size="14.00" fill="#000000">gini = 0.375</text>
<text text-anchor="start" x="359.5" y="-260.8" font-family="Helvetica,sans-Serif" font-size="14.00" fill="#000000">samples = 4</text>
<text text-anchor="start" x="350" y="-245.8" font-family="Helvetica,sans-Serif" font-size="14.00" fill="#000000">value = [0, 1, 3]</text>
<text text-anchor="start" x="336" y="-230.8" font-family="Helvetica,sans-Serif" font-size="14.00" fill="#000000">class = Iris_virginica</text>
</g>
<!-- 8&#45;&gt;9 -->
<g id="edge9" class="edge">
<title>8&#45;&gt;9</title>
<path fill="none" stroke="#000000" d="M397,-341.8796C397,-333.6838 397,-324.9891 397,-316.5013"/>
<polygon fill="#000000" stroke="#000000" points="400.5001,-316.298 397,-306.2981 393.5001,-316.2981 400.5001,-316.298"/>
</g>
<!-- 14 -->
<g id="node15" class="node">
<title>14</title>
<path fill="#8139e5" stroke="#000000" d="M610,-298.5C610,-298.5 496,-298.5 496,-298.5 490,-298.5 484,-292.5 484,-286.5 484,-286.5 484,-242.5 484,-242.5 484,-236.5 490,-230.5 496,-230.5 496,-230.5 610,-230.5 610,-230.5 616,-230.5 622,-236.5 622,-242.5 622,-242.5 622,-286.5 622,-286.5 622,-292.5 616,-298.5 610,-298.5"/>
<text text-anchor="start" x="525" y="-283.3" font-family="Helvetica,sans-Serif" font-size="14.00" fill="#000000">gini = 0.0</text>
<text text-anchor="start" x="512" y="-268.3" font-family="Helvetica,sans-Serif" font-size="14.00" fill="#000000">samples = 31</text>
<text text-anchor="start" x="502.5" y="-253.3" font-family="Helvetica,sans-Serif" font-size="14.00" fill="#000000">value = [0, 0, 31]</text>
<text text-anchor="start" x="492" y="-238.3" font-family="Helvetica,sans-Serif" font-size="14.00" fill="#000000">class = Iris_virginica</text>
</g>
<!-- 8&#45;&gt;14 -->
<g id="edge14" class="edge">
<title>8&#45;&gt;14</title>
<path fill="none" stroke="#000000" d="M451.5612,-341.8796C467.3484,-329.8368 484.5479,-316.7167 500.2241,-304.7586"/>
<polygon fill="#000000" stroke="#000000" points="502.4392,-307.4709 508.2673,-298.623 498.1937,-301.9053 502.4392,-307.4709"/>
</g>
<!-- 10 -->
<g id="node11" class="node">
<title>10</title>
<path fill="#ffffff" stroke="#000000" d="M458,-187C458,-187 336,-187 336,-187 330,-187 324,-181 324,-175 324,-175 324,-116 324,-116 324,-110 330,-104 336,-104 336,-104 458,-104 458,-104 464,-104 470,-110 470,-116 470,-116 470,-175 470,-175 470,-181 464,-187 458,-187"/>
<text text-anchor="start" x="345.5" y="-171.8" font-family="Helvetica,sans-Serif" font-size="14.00" fill="#000000">petalwidth ≤ 1.55</text>
<text text-anchor="start" x="369" y="-156.8" font-family="Helvetica,sans-Serif" font-size="14.00" fill="#000000">gini = 0.5</text>
<text text-anchor="start" x="359.5" y="-141.8" font-family="Helvetica,sans-Serif" font-size="14.00" fill="#000000">samples = 2</text>
<text text-anchor="start" x="350" y="-126.8" font-family="Helvetica,sans-Serif" font-size="14.00" fill="#000000">value = [0, 1, 1]</text>
<text text-anchor="start" x="332" y="-111.8" font-family="Helvetica,sans-Serif" font-size="14.00" fill="#000000">class = Iris_versicolor</text>
</g>
<!-- 9&#45;&gt;10 -->
<g id="edge10" class="edge">
<title>9&#45;&gt;10</title>
<path fill="none" stroke="#000000" d="M397,-222.8796C397,-214.6838 397,-205.9891 397,-197.5013"/>
<polygon fill="#000000" stroke="#000000" points="400.5001,-197.298 397,-187.2981 393.5001,-197.2981 400.5001,-197.298"/>
</g>
<!-- 13 -->
<g id="node14" class="node">
<title>13</title>
<path fill="#8139e5" stroke="#000000" d="M614,-179.5C614,-179.5 500,-179.5 500,-179.5 494,-179.5 488,-173.5 488,-167.5 488,-167.5 488,-123.5 488,-123.5 488,-117.5 494,-111.5 500,-111.5 500,-111.5 614,-111.5 614,-111.5 620,-111.5 626,-117.5 626,-123.5 626,-123.5 626,-167.5 626,-167.5 626,-173.5 620,-179.5 614,-179.5"/>
<text text-anchor="start" x="529" y="-164.3" font-family="Helvetica,sans-Serif" font-size="14.00" fill="#000000">gini = 0.0</text>
<text text-anchor="start" x="519.5" y="-149.3" font-family="Helvetica,sans-Serif" font-size="14.00" fill="#000000">samples = 2</text>
<text text-anchor="start" x="510" y="-134.3" font-family="Helvetica,sans-Serif" font-size="14.00" fill="#000000">value = [0, 0, 2]</text>
<text text-anchor="start" x="496" y="-119.3" font-family="Helvetica,sans-Serif" font-size="14.00" fill="#000000">class = Iris_virginica</text>
</g>
<!-- 9&#45;&gt;13 -->
<g id="edge13" class="edge">
<title>9&#45;&gt;13</title>
<path fill="none" stroke="#000000" d="M452.9602,-222.8796C469.1522,-210.8368 486.7927,-197.7167 502.8708,-185.7586"/>
<polygon fill="#000000" stroke="#000000" points="505.185,-188.3993 511.1203,-179.623 501.0075,-182.7825 505.185,-188.3993"/>
</g>
<!-- 11 -->
<g id="node12" class="node">
<title>11</title>
<path fill="#8139e5" stroke="#000000" d="M374,-68C374,-68 260,-68 260,-68 254,-68 248,-62 248,-56 248,-56 248,-12 248,-12 248,-6 254,0 260,0 260,0 374,0 374,0 380,0 386,-6 386,-12 386,-12 386,-56 386,-56 386,-62 380,-68 374,-68"/>
<text text-anchor="start" x="289" y="-52.8" font-family="Helvetica,sans-Serif" font-size="14.00" fill="#000000">gini = 0.0</text>
<text text-anchor="start" x="279.5" y="-37.8" font-family="Helvetica,sans-Serif" font-size="14.00" fill="#000000">samples = 1</text>
<text text-anchor="start" x="270" y="-22.8" font-family="Helvetica,sans-Serif" font-size="14.00" fill="#000000">value = [0, 0, 1]</text>
<text text-anchor="start" x="256" y="-7.8" font-family="Helvetica,sans-Serif" font-size="14.00" fill="#000000">class = Iris_virginica</text>
</g>
<!-- 10&#45;&gt;11 -->
<g id="edge11" class="edge">
<title>10&#45;&gt;11</title>
<path fill="none" stroke="#000000" d="M367.211,-103.9815C360.7486,-94.9747 353.9052,-85.4367 347.419,-76.3965"/>
<polygon fill="#000000" stroke="#000000" points="350.2572,-74.3483 341.5838,-68.2637 344.5697,-78.4291 350.2572,-74.3483"/>
</g>
<!-- 12 -->
<g id="node13" class="node">
<title>12</title>
<path fill="#39e581" stroke="#000000" d="M538,-68C538,-68 416,-68 416,-68 410,-68 404,-62 404,-56 404,-56 404,-12 404,-12 404,-6 410,0 416,0 416,0 538,0 538,0 544,0 550,-6 550,-12 550,-12 550,-56 550,-56 550,-62 544,-68 538,-68"/>
<text text-anchor="start" x="449" y="-52.8" font-family="Helvetica,sans-Serif" font-size="14.00" fill="#000000">gini = 0.0</text>
<text text-anchor="start" x="439.5" y="-37.8" font-family="Helvetica,sans-Serif" font-size="14.00" fill="#000000">samples = 1</text>
<text text-anchor="start" x="430" y="-22.8" font-family="Helvetica,sans-Serif" font-size="14.00" fill="#000000">value = [0, 1, 0]</text>
<text text-anchor="start" x="412" y="-7.8" font-family="Helvetica,sans-Serif" font-size="14.00" fill="#000000">class = Iris_versicolor</text>
</g>
<!-- 10&#45;&gt;12 -->
<g id="edge12" class="edge">
<title>10&#45;&gt;12</title>
<path fill="none" stroke="#000000" d="M426.789,-103.9815C433.2514,-94.9747 440.0948,-85.4367 446.581,-76.3965"/>
<polygon fill="#000000" stroke="#000000" points="449.4303,-78.4291 452.4162,-68.2637 443.7428,-74.3483 449.4303,-78.4291"/>
</g>
</g>
</svg>
